<?xml version="1.0" standalone="no"?>
<!DOCTYPE svg PUBLIC "-//W3C//DTD SVG 1.1//EN" "http://www.w3.org/Graphics/SVG/1.1/DTD/svg11.dtd" >
<svg xmlns="http://www.w3.org/2000/svg" xmlns:xlink="http://www.w3.org/1999/xlink" version="1.1">
<metadata>
Created by FontForge 20161013 at Fri Jan 30 18:24:18 2015
 By ,,,
Copyright Emily Spadoni
1-27-2015
Contact: penelopelime@verizon.net
</metadata>
<defs>
<font id="LillyBelle" horiz-adv-x="574" >
  <font-face 
    font-family="LillyBelle"
    font-weight="400"
    font-stretch="normal"
    units-per-em="1024"
    panose-1="0 0 0 0 0 0 0 0 0 0"
    ascent="819"
    descent="-205"
    x-height="525"
    cap-height="932"
    bbox="-44 -361 2878 1140"
    underline-thickness="1"
    underline-position="-2"
    unicode-range="U+000D-FFAD"
  />
<missing-glyph horiz-adv-x="676" 
d="M184 102h308v683h-308v-171v-512zM133 836h410v-785h-410v785z" />
    <glyph glyph-name=".notdef" horiz-adv-x="676" 
d="M184 102h308v683h-308v-171v-512zM133 836h410v-785h-410v785z" />
    <glyph glyph-name=".null" horiz-adv-x="0" 
 />
    <glyph glyph-name="nonmarkingreturn" unicode="&#xd;" horiz-adv-x="0" 
 />
    <glyph glyph-name="NULL" horiz-adv-x="0" 
 />
    <glyph glyph-name="NULL" horiz-adv-x="0" 
 />
    <glyph glyph-name="space" unicode=" " horiz-adv-x="355" 
 />
    <glyph glyph-name="exclam" unicode="!" horiz-adv-x="223" 
d="M59 876q13 37 48 37q4 0 9 -1q42 -5 65 -66q14 -67 17 -134q2 -31 2 -62q0 -34 -2 -66q-6 -114 -22 -197q-15 -83 -6 -103q-7 -22 -44 -30q-13 -3 -24 -3q-23 0 -42 10q-10 6 -17 14q-8 8 -12 19q27 108 37 252t-9 330zM106 -31h-3q-26 0 -56 18q-29 18 -30 43q0 2 1 4
q2 29 36 43t63 15h2q18 0 36 -15q18 -16 18 -33q0 -1 -1 -3q-2 -24 -21 -47q-20 -24 -45 -25z" />
    <glyph glyph-name="quotedbl" unicode="&#x22;" horiz-adv-x="323" 
d="M12 945q18 11 46 11q8 1 16 0q39 -4 70 -47q-1 -52 -14 -92q-12 -40 -33 -74q-11 -14 -24 -18q-5 -1 -11 -1h-1q-19 0 -28 26q-6 14 -7 34q-2 19 -2 40q1 40 1 76q1 36 -13 45zM169 922q16 43 59 47h8q38 0 66 -38q-2 -53 -12 -101t-31 -82q-11 -14 -24 -14q-5 0 -11 2
q-18 9 -28 20q-6 14 -7 30q-2 17 -2 34q0 33 -1 62q0 29 -17 40z" />
    <glyph glyph-name="numbersign" unicode="#" horiz-adv-x="818" 
d="M747 629q13 -2 19 -8q7 -6 8 -14q1 -3 1 -6q0 -16 -14 -35q-17 -22 -32 -29q-39 -3 -77 -7v-7q-2 -78 -2 -155q40 -2 81 -4q36 -5 51 -41q8 -18 8 -34q0 -15 -7 -28q-5 -9 -14 -16q-8 -7 -21 -9q-17 20 -98 28q-1 -43 -1 -78q0 -34 -1 -58t-4 -33q-3 -13 -12 -26
q-10 -13 -23 -25q-25 -22 -57 -35q-19 -8 -36 -8q-9 0 -18 3q-9 2 -15 9q-7 7 -10 17q-2 30 -2 60q0 42 3 84q3 51 9 101q-13 1 -25 1h-131q-16 -85 -40 -156q-3 -8 -9 -15q-8 -10 -24 -17q-15 -7 -29 -7q-11 0 -21 4q-10 3 -18 12q-9 8 -14 22q16 62 32 157h-61
q-59 -1 -75 2q-37 7 -37 30v7q6 28 32 42q79 8 154 13q7 58 9 120q-56 -2 -106 -3q-28 5 -31 36v8q0 25 15 34q36 -4 84 -4h40q-1 59 -6 118q-6 70 -21 136q11 35 38 35q8 0 18 -3q41 -14 64 -79q22 -104 27 -201q81 6 171 19l15 2q24 123 36 231q7 38 43 56q20 9 37 9
q14 0 26 -7q8 -5 15 -14q6 -9 8 -23q-23 -17 -33 -109q-6 -57 -11 -123q47 10 92 21zM520 518q-58 -6 -114 -12l-56 -6q0 -44 -4 -87l-4 -38h43h25l86 -2q10 74 24 145z" />
    <glyph glyph-name="dollar" unicode="$" horiz-adv-x="441" 
d="M262 -44q-12 -15 -37 -20q-6 -2 -11 -2q-19 0 -31 17q4 3 7 22q2 19 3 49q1 22 1 50q-46 10 -87 37q-46 29 -73 73q-5 25 -5 45q0 16 3 28q8 27 46 43q-8 -28 17 -57q26 -29 65 -48q16 -9 33 -14q-3 83 -7 177q-2 34 -4 69q-4 5 -9 10q-59 58 -98 120q-26 40 -37 82t4 84
q7 19 19 33q13 14 29 24q29 16 65 19q-1 7 -1 13q-8 81 -14 89q12 23 42 23h5q34 -2 48 -26q0 -5 1 -24q0 -18 1 -48q0 -17 1 -37q28 -9 51 -26q22 -17 36 -41q14 -23 14 -53q-2 -14 -22 -17q-20 -4 -33 5q8 57 -32 83q-6 4 -12 6q1 -27 2 -58q3 -81 6 -172q54 -37 99 -83
q39 -41 61 -92q14 -32 14 -70q0 -24 -6 -52q-11 -56 -39 -89q-29 -34 -67 -49q-24 -9 -50 -11v-6q2 -68 2 -95v-11zM309 215q5 25 -6 52t-33 56q-9 12 -19 24q2 -47 4 -90q1 -46 2 -87q44 1 52 45zM151 721q-11 -14 -18 -34q-9 -26 -2 -49t24 -44q8 -10 18 -20l-2 42
q-5 63 -9 116q-6 -5 -11 -11z" />
    <glyph glyph-name="percent" unicode="%" horiz-adv-x="550" 
d="M170 32q-25 -28 -46 -39q-18 -8 -33 -8h-6q-33 4 -49 38q-13 27 -13 50q0 7 1 14q4 8 17 31q14 23 34 56q37 63 91 153t107 183q23 41 45 81t40 76q35 68 56 120q20 51 16 72q18 25 45 32q8 2 14 2q16 0 25 -13q5 -7 6 -20v-4q0 -11 -4 -26q-21 -67 -67 -164
q-47 -96 -99 -198q-28 -54 -54 -107q-27 -52 -50 -100q-43 -88 -67 -152q-24 -63 -9 -77zM138 511q-27 4 -47 16q-20 13 -34 30q-25 33 -32 77q-6 36 -6 68v13q1 21 6 42q6 21 15 41q18 37 50 62q30 24 70 24h6q23 -1 41 -11q17 -11 29 -28q23 -32 30 -78q7 -42 7 -79v-9
q-1 -22 -4 -45t-10 -44q-13 -38 -41 -62q-22 -19 -56 -19q-11 0 -24 2zM540 204v-8q0 -59 -21 -111q-22 -56 -89 -59h-8q-62 0 -96 40q-37 43 -40 101v13q0 32 6 67q8 42 34 73q13 17 33 28q20 12 48 16q12 2 23 2q14 0 25 -3q21 -5 36 -17q27 -22 38 -62q10 -39 11 -80z
M218 676q5 62 -8 100q-13 39 -35 39h-1q-26 0 -43 -42q-17 -43 -18 -90v-4q0 -37 11 -66q11 -30 38 -32h4q4 0 7 1q20 3 30 24q12 26 15 70zM419 275q-28 -1 -42 -27q-13 -23 -13 -52v-3q0 -20 7 -39t20 -32q8 -8 19 -12q11 -5 23 -5h1q22 1 39 20q13 15 13 56q0 12 -1 25
q-3 44 -20 58q-16 12 -40 12q-3 0 -6 -1z" />
    <glyph glyph-name="ampersand" unicode="&#x26;" horiz-adv-x="842" 
d="M42 794v1q0 41 15 73q14 31 38 52q45 39 109 40h3q62 0 109 -39q24 -20 41 -52t22 -75q5 -48 -14 -109t-48 -126q-13 -29 -27 -59q18 -28 37 -56q29 -43 61 -85q29 -38 60 -74q25 47 48 97q25 55 45 104q-22 11 -65 35q-13 23 0 46t37 25q2 -10 13 -18q10 -8 26 -14
q30 -11 69 -19q40 -9 68 -20q11 -21 4 -40q-6 -18 -34 -26q-24 6 -74 16q-15 -74 -47 -162q-16 -44 -35 -85q24 -24 48 -45q76 -68 144 -92q69 -24 110 28q15 -8 19 -39q2 -12 2 -24q0 -19 -4 -37q-4 -21 -12 -37q-8 -17 -19 -23q-31 -17 -73 -9t-91 35q-84 47 -178 139
q-18 -29 -37 -57q-25 -36 -53 -64q-52 -53 -110 -68q-14 -3 -29 -3q-43 0 -86 32q-48 36 -64 84t-11 103q6 58 30 122q25 63 57 128q15 30 31 60q-43 69 -76 137q-59 120 -59 200zM296 682q14 33 22 61q7 28 5 49q-4 35 -15 58q-10 22 -25 32q-33 25 -71 -4q-39 -30 -40 -93
q-1 -41 27 -109q19 -46 46 -97q30 56 51 103zM199 248q-12 -66 23 -106q19 -21 38 -27t39 0q37 11 74 57l12 15q-73 78 -136 166l-14 19q-27 -67 -36 -124z" />
    <glyph glyph-name="quotesingle" unicode="'" horiz-adv-x="164" 
d="M18 958q18 11 45 11q8 0 17 -1q39 -4 70 -46q-2 -52 -14 -92t-33 -75q-12 -13 -25 -17q-5 -1 -10 -1h-1q-20 0 -28 26q-6 14 -8 34q-1 19 -1 40q0 40 1 76t-13 45z" />
    <glyph glyph-name="parenleft" unicode="(" horiz-adv-x="358" 
d="M257 986q10 3 19 3q4 0 7 -1q12 -2 21 -9q26 -20 26 -66v-1q-1 -46 -29 -62q-33 -18 -66 -80q-32 -63 -58 -150q-13 -47 -23 -99q-11 -52 -17 -106q-9 -83 -5 -166q3 -83 23 -154q19 -69 56 -122q36 -53 94 -81q21 -14 -6 -30q-24 -15 -53 -15h-6q-95 54 -147 170
q-51 117 -64 258q-4 49 -4 100q0 25 1 51q3 76 16 150q24 136 79 248q55 111 136 162z" />
    <glyph glyph-name="parenright" unicode=")" horiz-adv-x="352" 
d="M110 -152h-6q-29 0 -53 14q-27 17 -6 31q58 28 94 81q37 53 56 121q20 72 23 155q4 83 -5 165q-11 101 -37 192q-25 91 -56 154q-17 34 -35 57t-36 33q-28 15 -29 62v1q0 45 26 66q9 7 21 9q3 1 7 1q9 0 19 -4q44 -27 80 -73t65 -105q52 -110 74 -253q14 -90 14 -179
q0 -50 -5 -100q-13 -141 -64 -258q-52 -117 -147 -170z" />
    <glyph glyph-name="asterisk" unicode="*" horiz-adv-x="278" 
d="M122 627q-8 -6 -16 -6q-7 0 -14 4q-18 9 -24 21q3 13 6 28q2 15 7 24q-12 2 -25 2q-14 0 -34 1q-8 5 -12 17q-2 3 -2 8q0 7 5 16q11 3 25 11q13 7 28 15q-7 11 -12 24q-6 14 -13 26q-8 22 10 28q19 5 32 -1q5 -7 19 -12q14 -6 25 -11q7 7 18 27q12 19 19 29q2 2 6 2t8 -2
q9 -2 16 -13q2 -19 1 -36q-1 -18 3 -26q7 -1 24 -5q18 -3 37 -7q10 -3 12 -17q1 -2 1 -4q0 -11 -11 -22q-17 -6 -33 -12q-17 -7 -25 -11q3 -7 12 -25t16 -25q3 -14 -6 -26q-8 -12 -23 -9q-19 11 -29 15q-10 5 -16 9q-6 -5 -17 -15t-18 -22z" />
    <glyph glyph-name="plus" unicode="+" horiz-adv-x="2184" 
d="M10 305q90 211 208 306q83 66 176 66q41 0 83 -13q81 -23 139 -85q57 -63 104 -145q30 -53 58 -112q28 -58 57 -117q53 -108 118 -203t163 -143q34 -17 65 -17q31 -1 57 11q28 13 50 36q22 24 37 54q12 25 19 51q-41 20 -75 45q-47 34 -75 72q-21 29 -28 58q-8 30 -5 56
q6 50 42 82q37 32 87 26q26 -4 53 -19q28 -16 55 -47q35 -40 52 -89t18 -101q0 -33 -5 -65q33 -10 70 -18q98 -22 194 -18q99 4 183 43q84 38 127 123q25 49 28 95q3 47 -10 87q-18 61 -63 104q-44 42 -92 55q-26 7 -50 3q-24 -3 -43 -18q-30 -24 -22 -55q9 -32 31 -28
q7 1 15 8t15 21q11 9 29 -7q18 -15 10 -31q-13 -15 -27 -23q-14 -7 -28 -9q-40 -5 -72 28t-32 75q1 19 9 37t26 34q25 23 60 32q36 10 75 7q73 -5 146 -49q72 -45 104 -123q18 -45 19 -100q0 -9 -1 -18q-3 -65 -42 -143q-39 -77 -104 -124t-144 -69q-120 -34 -256 -17
q-92 12 -171 38q-11 -29 -26 -57q-49 -87 -135 -119q-38 -14 -84 -14h-13q-53 3 -112 30q-93 43 -156 117q-63 75 -110 162q-57 106 -102 216q-45 109 -101 189q-30 42 -67 73q-36 30 -82 43q-77 21 -146 7q-70 -15 -133 -81q-34 -36 -66 -88q-32 -53 -63 -125q-8 -5 -20 -7
q-11 -3 -21 7zM1352 66q0 67 -39 114q-21 26 -39 38t-31 13q-25 2 -29 -26q-4 -27 25 -65q18 -23 50 -46q28 -20 63 -38v10z" />
    <glyph glyph-name="comma" unicode="," horiz-adv-x="168" 
d="M12 76q18 11 46 11q8 0 16 -1q39 -4 70 -46q0 -13 -1 -26q-4 -37 -13 -66q-12 -40 -33 -75q-16 -18 -35 -19h-1q-19 1 -28 27q-6 14 -7 34q-2 19 -2 40q1 40 1 75q1 36 -13 46z" />
    <glyph glyph-name="hyphen" unicode="-" horiz-adv-x="364" 
d="M55 448q46 3 102 5q51 1 92 1h8q24 0 43 -1q18 0 28 -2q12 -15 16 -42q1 -6 1 -11q0 -19 -10 -30q-17 12 -71 9q-53 -3 -109 -9q-30 -3 -57 -6q-28 -3 -47 -4q-30 0 -38 26q-2 8 -2 15q0 17 11 31q6 7 14 12q8 4 19 6z" />
    <glyph glyph-name="period" unicode="." horiz-adv-x="188" 
d="M17 31v3q0 17 17 31q18 16 35 16h2q28 -2 60 -15q33 -14 36 -41q0 -5 -1 -9q-2 -21 -28 -37q-29 -17 -55 -17h-2q-24 1 -43 23q-19 23 -21 46z" />
    <glyph glyph-name="slash" unicode="/" horiz-adv-x="586" 
d="M164 45q-27 -26 -49 -35q-16 -6 -29 -6q-6 0 -11 1q-32 7 -46 42q-9 24 -9 44q0 10 2 20q5 8 20 30q15 21 38 53q42 60 103 146q61 85 121 174q26 39 51 77q24 38 46 73q40 65 64 115q25 49 23 71q19 23 46 28q6 1 11 1q19 0 28 -15q4 -8 4 -20q0 -13 -6 -30
q-26 -65 -80 -158t-114 -190q-32 -52 -62 -102q-31 -50 -58 -96q-50 -85 -78 -146q-29 -61 -15 -77z" />
    <glyph glyph-name="zero" unicode="0" horiz-adv-x="601" 
d="M262 844q28 4 52 4q76 0 122 -40q61 -54 87 -138q15 -46 21 -96q7 -50 8 -98v-22q0 -81 -13 -171q-15 -102 -63 -172q-26 -38 -64 -61q-37 -24 -89 -25q-6 -1 -11 -1q-89 0 -148 52q-64 54 -97 133q-18 43 -28 89t-12 91q-1 30 -1 62q0 16 1 33q0 51 8 101q15 92 65 167
t162 92zM455 518q-2 136 -56 190q-50 50 -106 50h-9q-47 -3 -71 -61t-29 -140q-2 -25 -2 -51q0 -20 1 -41q2 -48 9 -95q10 -72 29 -135t45 -101q13 -20 29 -32q15 -11 32 -11h1q31 1 61 56q29 54 47 145q10 48 15 105q4 49 4 101v20z" />
    <glyph glyph-name="one" unicode="1" horiz-adv-x="333" 
d="M52 766q36 21 62 58q27 36 47 56q12 4 47 11q13 3 25 3q18 -1 31 -7q8 -4 12 -10q5 -6 6 -15q-1 -10 -3 -35q-2 -24 -4 -61q-5 -67 -12 -162q-6 -95 -10 -193q-5 -100 -7 -188q-1 -87 3 -135q22 -1 36 0t27 3q6 -8 6 -17q-1 -5 -3 -11q-6 -15 -20 -19q-28 -1 -73 -9
q-44 -8 -87 -15q-23 -4 -43 -6q-20 -3 -35 -4q-17 6 -17 36v3q1 34 9 39q21 1 39 2q17 1 32 3q0 39 1 114q0 76 1 163v168q1 83 0 140v52q0 21 -1 27q-9 -11 -25 -24q-17 -13 -33 -21q-13 0 -20 15q-8 15 9 39z" />
    <glyph glyph-name="two" unicode="2" horiz-adv-x="589" 
d="M82 653q4 36 49 85q46 50 109 85q34 19 71 31t72 13h4q32 0 61 -11q32 -12 57 -40q40 -43 31 -112q-9 -68 -45 -145q-19 -41 -44 -83q-24 -42 -51 -83q-49 -76 -99 -142q-50 -67 -80 -111q26 2 58 0l66 -4q49 -4 88 0q38 3 38 29q74 -5 89 -48q3 -8 3 -15q0 -36 -64 -72
q-32 -2 -58 -2h-52q-48 0 -104 -2t-146 -14q-17 3 -39 26q-23 22 -38 50q-8 16 -12 31q-3 11 -4 22q0 4 1 7q5 23 45 79q39 55 91 124q29 37 59 76t59 78q67 89 114 160q46 71 32 86q-23 25 -80 10q-57 -16 -111 -46q-35 -21 -62 -44q-26 -23 -32 -42q-4 -12 -34 -11t-42 35
z" />
    <glyph glyph-name="three" unicode="3" horiz-adv-x="601" 
d="M68 710q28 35 64 61t74 40q48 18 95 19q25 0 49 -5q72 -14 119 -80q29 -41 18 -92q-10 -50 -34 -94q-13 -23 -27 -43t-25 -33q51 -10 101 -36q51 -25 63 -89q4 -20 4 -40q0 -62 -40 -120q-51 -76 -132 -118q-45 -22 -93 -32q-28 -5 -56 -5q-20 0 -41 3q-45 7 -88 31
q-42 24 -76 69q-1 8 -1 14q0 28 14 43q16 18 39 -8q30 -27 60 -35t59 -2q26 5 51 20q24 16 46 36q49 49 75 111t8 90q-23 36 -72 28q-48 -7 -106 -24q-28 -1 -40 20q-12 20 5 62q24 12 48 35q23 23 43 52q38 53 55 110q17 58 -5 84q-12 14 -41 10t-59 -20q-37 -19 -66 -48
q-29 -30 -24 -56q-11 -23 -43 -4q-31 20 -21 46z" />
    <glyph glyph-name="four" unicode="4" horiz-adv-x="486" 
d="M165 855q18 12 37 12q8 0 17 -3q28 -8 37 -58q-12 -6 -37 -55q-24 -49 -50 -111q-20 -49 -39 -98q-18 -50 -28 -83q-5 -19 -8 -31q-2 -12 -1 -15q9 -11 46 -10t81 4l46 4q23 1 42 1q8 104 6 187q-2 82 2 149q35 42 72 4t48 -133q-12 -2 -14 -42q-3 -40 -1 -100
q1 -33 2 -69q2 -37 3 -74q3 -72 3 -142q0 -69 -7 -117q-4 -34 -47 -48q-11 -3 -23 -3q-32 -1 -63 27q-2 25 -2 56q1 32 4 66q4 61 10 117q6 55 5 70q-62 -2 -133 -10q-72 -9 -116 0q-22 3 -28 27q-4 19 -4 30v6q4 36 19 88q14 53 32 109q27 84 55 157q27 73 34 88z" />
    <glyph glyph-name="five" unicode="5" 
d="M96 850q14 6 84 2q70 -3 145 -5q50 -1 93 1t63 10q30 -15 22 -35q-8 -21 -27 -24q-71 -1 -212 -4q-7 -48 -11 -97t-15 -95q80 13 147 15q66 2 108 -57q18 -26 29 -57q12 -31 17 -65q4 -29 4 -59q0 -36 -6 -73q-12 -69 -42 -127q-26 -48 -63 -84q-38 -36 -87 -52
q-29 -8 -61 -8q-36 0 -76 10q-77 21 -169 97q-11 13 -14 25q-2 6 -2 12q0 5 1 9q6 22 31 29q25 6 39 -13q88 -21 150 -8q62 14 101 48q26 21 42 49q17 28 25 57q17 54 8 103q-8 49 -34 66q-50 32 -104 5q-55 -27 -101 -68q-54 -1 -70 28t-39 60q7 76 12 163q5 88 12 142z
" />
    <glyph glyph-name="six" unicode="6" horiz-adv-x="546" 
d="M491 249v-13q0 -36 -10 -66q-13 -36 -36 -63q-24 -29 -57 -49q-33 -19 -70 -29q-32 -8 -65 -8q-36 0 -71 9q-68 19 -103 79q-30 52 -30 134v1q0 83 15 172q7 47 17 93q10 45 19 86q18 77 28 129t-3 57q4 29 22 62q18 34 49 40q5 1 11 1q12 0 26 -5q20 -8 44 -31
q2 -13 -2 -39t-12 -61q-16 -65 -42 -151q-25 -86 -46 -167q6 5 20 11q14 7 33 12q37 9 85 8q49 -1 90 -28q35 -22 60 -66q24 -44 28 -118zM174 346q-10 -16 -20 -56q-10 -39 -10 -79q0 -22 4 -41t14 -33q14 -20 51 -24h18q29 0 59 9q21 7 40 19q19 11 32 27t19 36q4 13 4 27
q0 8 -2 17q-10 70 -45 94q-33 23 -72 23h-4q-23 -1 -45 -6q-23 -6 -43 -13z" />
    <glyph glyph-name="seven" unicode="7" horiz-adv-x="503" 
d="M45 831q15 -7 41 -9q25 -3 58 -2q59 2 132 10q72 8 133 12q31 -18 42 -40t12 -51q-2 -12 -10 -37t-19 -59q-20 -63 -49 -148q-29 -84 -56 -168q-34 -105 -55 -188q-22 -82 -10 -95q-32 -47 -68 -47q-9 0 -18 3q-46 13 -86 44q2 8 9 29q8 22 20 54q23 59 57 146
q35 87 73 180q31 78 61 153q30 76 54 137q-39 2 -87 -8q-48 -11 -94 -24q-25 -8 -47 -15q-23 -7 -42 -13q-28 -1 -55 40q-20 30 -20 55q0 9 3 17q2 8 7 14t14 10z" />
    <glyph glyph-name="eight" unicode="8" horiz-adv-x="460" 
d="M42 138q-3 22 -3 43q0 20 3 39q6 39 19 71q25 61 63 101q37 39 56 53q-4 2 -16 11q-11 9 -25 23q-27 28 -55 75q-28 48 -33 115q-5 52 21 96q26 45 68 71q23 14 50 22q25 8 52 8h1q63 -1 99 -23q36 -23 52 -58q14 -29 16 -64t-4 -71q-10 -67 -36 -123q-26 -57 -44 -72
q48 -37 73 -101q25 -62 25 -126v-6q-1 -36 -10 -71q-8 -34 -26 -63q-21 -36 -56 -61q-35 -24 -85 -30q-11 -1 -22 -1q-30 0 -62 9q-44 14 -76 45q-17 17 -29 38q-12 22 -16 50zM241 373h-1q-19 0 -47 -40q-29 -42 -48 -95q-13 -35 -16 -70q-1 -9 -1 -18q0 -23 8 -40
q6 -15 20 -25q14 -9 36 -11h2q28 0 52 48q24 51 29 112q1 13 1 26q0 27 -5 53q-7 38 -30 60zM277 511q17 2 34 39q18 36 27 82q8 38 8 73q0 18 -2 35q-6 51 -45 53h-5q-24 0 -41 -9q-18 -9 -29 -26q-16 -25 -16 -63q0 -9 1 -18q5 -50 22 -94q10 -23 22 -42t24 -30z" />
    <glyph glyph-name="nine" unicode="9" horiz-adv-x="552" 
d="M356 497q-9 -11 -24 -18q-16 -7 -37 -9q-38 -6 -86 5q-47 11 -87 41q-33 25 -55 64t-23 94v6q0 51 18 89q20 39 53 64q49 38 119 43q10 1 21 1q58 0 112 -22q34 -14 63 -37q30 -22 51 -52q21 -31 21 -96q0 -16 -1 -33q-7 -91 -24 -191q-14 -80 -29 -155q-15 -74 -21 -122
q-2 -26 -1 -42t7 -19q-4 -31 -23 -66q-19 -36 -52 -43q-5 -1 -11 -1q-13 0 -28 5q-21 9 -47 34q6 12 17 87q10 75 26 170q9 51 19 104q10 52 22 99zM163 689v-4q0 -41 28 -72q30 -33 72 -47q22 -7 45 -8h5q21 0 40 7q10 17 17 55q7 37 7 74v6q0 17 -1 31q-2 18 -6 30
q-3 12 -14 20q-10 9 -25 14q-20 7 -45 8q-8 0 -17 -1q-35 -4 -63 -24q-18 -14 -30 -36t-13 -53z" />
    <glyph glyph-name="colon" unicode=":" horiz-adv-x="188" 
d="M10 41v3q0 16 17 31t35 15h2q27 -1 60 -15q33 -13 35 -41q0 -5 -1 -10q-3 -20 -28 -35q-29 -18 -54 -17h-3q-23 1 -42 23t-21 46zM173 441q1 -19 -18 -36q-10 -8 -20 -12q-8 -4 -16 -4h-2q-29 2 -63 16t-36 43v3q0 25 30 43q29 18 55 19q2 0 4 -1q24 -1 44 -24t22 -47z
" />
    <glyph glyph-name="semicolon" unicode=";" horiz-adv-x="189" 
d="M71 508h4q26 0 57 -19q32 -20 30 -48q-2 -29 -37 -44h-1q-35 -14 -64 -16h-2q-18 0 -37 17q-18 15 -18 33v3q2 25 22 49q21 24 46 25zM11 58q18 12 46 12q7 0 16 -1q39 -4 70 -46q0 -7 -1 -13q-2 -45 -13 -80q-12 -39 -33 -74q-16 -19 -35 -19h-1q-19 0 -28 26
q-6 15 -8 34q-1 20 -1 41q0 39 1 75t-13 45z" />
    <glyph glyph-name="less" unicode="&#x3c;" horiz-adv-x="449" 
d="M351 677h2q12 0 31 -14q21 -15 27 -41q2 -6 2 -12q0 -8 -3 -18q-4 -16 -19 -33q-13 1 -44 -21q-30 -22 -64 -53q-42 -37 -77 -74q-36 -37 -42 -46q2 -10 35 -46q32 -36 72 -77q21 -23 41 -45q21 -21 37 -40q12 -17 2 -37q-11 -19 -30 -21h-3q-7 0 -15 3q-9 4 -19 14
q-1 10 -32 45q-31 34 -72 75q-49 51 -96 98t-53 60q2 7 11 19q10 12 24 29q26 31 66 71t81 76q43 37 80 63q38 25 58 25z" />
    <glyph glyph-name="equal" unicode="=" horiz-adv-x="468" 
d="M424 501q11 -2 17 -7q7 -5 9 -11t2 -12q1 -16 -12 -35q-17 -27 -34 -34q-123 -10 -206 -13q-83 -2 -138 -6q-31 2 -33 40q-1 4 -1 8q0 31 18 42q70 -9 113 -13q44 -3 112 8q29 4 66 12q38 9 87 21zM401 299q32 -4 47 -31q8 -14 8 -27q0 -11 -6 -20q-4 -7 -11 -13
q-8 -5 -19 -7q-14 16 -51 24q-38 7 -85 9q-70 2 -141 -1q-72 -4 -96 1q-33 6 -32 22q0 3 1 6q6 20 29 33q56 5 98 8q36 2 82 2h18q31 0 69 -2q39 -1 89 -4z" />
    <glyph glyph-name="greater" unicode="&#x3e;" horiz-adv-x="412" 
d="M405 394q-5 -11 -38 -45t-75 -76q-50 -50 -94 -97q-45 -47 -46 -60q-9 -10 -19 -14q-7 -3 -14 -3h-3q-20 2 -30 21q-10 20 2 37q16 18 36 40q21 22 42 45q39 41 72 77q32 36 34 46q-5 9 -41 46t-77 74q-35 31 -65 53t-43 21q-16 17 -20 33q-2 10 -2 18q0 6 1 12
q6 26 27 41q20 14 31 14q1 0 2 -1q20 1 58 -24q38 -26 80 -63q22 -19 45 -40q22 -21 42 -42q38 -38 65 -70q26 -31 30 -43z" />
    <glyph glyph-name="question" unicode="?" horiz-adv-x="406" 
d="M16 721q5 58 57 108q53 50 119 62q16 3 32 3q21 0 41 -5q37 -8 69 -35q57 -48 57 -104v-13q-7 -63 -42 -121q-19 -31 -42 -59q-22 -28 -42 -51q-10 -12 -16 -29q-5 -17 -8 -37q-4 -36 1 -73t12 -58q-3 -31 -22 -62q-18 -30 -43 -32h-2q-9 0 -19 6q-11 7 -22 23
q-45 67 -48 128q-3 60 17 114q24 64 65 118q40 53 63 95q12 23 15 42q3 20 -9 36q-9 13 -21 17q-12 5 -25 3q-14 -1 -29 -9q-14 -7 -27 -18q-25 -20 -42 -45t-16 -40q-20 -30 -49 -9q-25 19 -25 39q0 3 1 6zM181 -3q-21 16 -34 49q-5 14 -5 25q0 17 11 28q13 14 33 14
q9 0 20 -3q34 -10 57 -27q14 -10 19 -34q1 -7 1 -13q0 -15 -9 -25q-16 -17 -45 -22q-8 -2 -16 -2q-18 0 -32 10z" />
    <glyph glyph-name="at" unicode="@" horiz-adv-x="762" 
d="M481 629q19 -15 7 -36q-12 -20 -28 -21q-21 11 -44 -10t-40 -54q-22 -40 -30 -83q-9 -44 8 -57q10 -7 32 21q21 29 39 68q13 26 21 51q9 25 9 41q19 18 36 14q18 -4 17 -32q-6 -18 -8 -41t-1 -46q2 -45 12 -82q11 -38 26 -44t50 22t63 79q15 27 24 60q10 32 10 68
q1 39 -11 75t-34 67q-39 58 -106 93t-145 31q-66 -4 -125 -49q-60 -46 -96 -125q-19 -42 -29 -92q-10 -51 -9 -110q2 -45 10 -90t24 -87q30 -77 87 -133q57 -55 146 -64q36 -3 71 5t66 22q59 28 95 67q37 40 31 62q25 8 41 -10q17 -17 13 -45q-9 -22 -28 -43
q-20 -21 -46 -39q-50 -33 -117 -54q-56 -16 -110 -16h-20q-166 11 -269 126t-104 299v3q0 116 49 210q48 93 125 149q41 30 87 48q47 17 96 20h24q86 0 159 -31q84 -37 134 -102q27 -35 42 -77q14 -43 14 -90q0 -62 -14 -111q-15 -49 -38 -86q-43 -69 -99 -97
q-56 -27 -87 -16q-34 13 -49 57q-16 45 -13 66q-5 -14 -25 -43q-20 -30 -50 -43q-15 -7 -34 -6q-18 2 -38 18q-43 34 -46 99t24 124q14 32 35 59q22 26 49 41q26 14 55 15q30 1 62 -15z" />
    <glyph glyph-name="A" unicode="A" horiz-adv-x="589" 
d="M68 385q-21 5 -21 19q0 5 4 10q11 22 27 22q7 -2 16 -4q0 2 1 3q15 56 32 111q30 100 63 188q33 87 64 138q9 17 22 25q14 8 30 10h7q27 0 57 -18q33 -19 54 -53q8 -77 19 -186q10 -108 22 -220q7 -58 13 -114q6 -57 12 -107q12 -92 21 -153q10 -61 16 -63q9 -3 15 2
q5 5 5 17q14 -11 15 -43v-2q0 -30 -20 -50q-9 -8 -22 -13q-9 -2 -19 -2q-7 0 -14 1q-55 7 -90 60t-55 132q-11 42 -19 90q-7 47 -11 97q-5 50 -8 100q-29 -1 -58 -1h-36q-13 -59 -25 -118q-20 -97 -33 -165q-7 -36 -12 -60q-4 -25 -5 -32q-8 -13 -19 -18q-11 -6 -24 -6
q-28 -1 -54 20q-26 20 -28 40q7 52 22 126t35 157q7 29 14 59q-6 0 -13 1zM303 520q0 104 3 175q4 71 0 73q-2 -2 -7 -15q-4 -14 -11 -37q-11 -43 -28 -112q-16 -69 -33 -148l-7 -29q32 1 67 3h16q-1 47 0 90z" />
    <glyph glyph-name="B" unicode="B" horiz-adv-x="625" 
d="M126 846q4 21 14 32q9 12 22 16q10 4 20 4q15 0 31 -7q27 -12 39 -31q1 -12 1 -30q1 -17 1 -45q16 30 55 58q40 28 84 31q25 2 49 -7q24 -8 45 -30q21 -23 28 -50q7 -28 3 -57q-8 -59 -46 -119q-37 -61 -73 -105q-19 -24 -35 -41q-15 -17 -22 -25q23 5 73 6q49 2 94 -17
q25 -10 44 -28q20 -18 30 -46q14 -40 14 -82q0 -17 -2 -34q-8 -60 -37 -110q-43 -75 -118 -114q-75 -38 -152 0q-24 17 -30 53q-6 35 38 75q21 -15 39 -16q18 -2 32 7q16 9 27 27q12 18 20 40q14 42 15 87t-11 65q-29 45 -89 32q-43 -10 -83 -42q-3 -79 -5 -150
q-3 -90 -1 -147q1 -31 4 -50t9 -22q-8 -21 -36 -29q-17 -5 -36 -5q-10 0 -21 1q-20 3 -38 12q-17 9 -27 23q-11 35 -12 103q0 67 5 152q3 45 7 94l8 98q6 77 12 152t9 139q-27 -15 -61 -8q-34 8 -45 21q-5 5 -5 10q0 2 1 4q3 7 10 10q17 -1 54 25q38 27 48 70zM254 557
q-2 -61 -4 -121l4 3q15 11 27 27q18 23 31 54t22 65q17 63 20 119q3 57 -7 68q-18 21 -51 0t-41 -51q1 -77 -1 -164z" />
    <glyph glyph-name="C" unicode="C" horiz-adv-x="589" 
d="M507 674q-11 -19 -38 -21q-27 -3 -47 11q-8 7 -14 16t-7 22q20 12 28 54q9 41 -5 69q-4 9 -12 15q-7 5 -18 7q-16 1 -34 -10q-18 -12 -35 -33q-32 -41 -60 -111q-27 -70 -40 -152q-11 -67 -9 -138q1 -70 22 -133q21 -65 49 -105q29 -41 59 -59q56 -34 106 -6t61 90
q26 21 47 -2q11 -12 11 -28t-11 -37q-14 -30 -37 -55q-22 -25 -49 -43q-51 -35 -114 -45q-18 -3 -36 -3q-44 0 -87 17q-50 20 -94 65t-73 121q-24 63 -35 125q-12 62 -12 121v2q0 108 34 201q35 93 95 157q49 53 113 82q56 25 119 25h16q28 -2 51 -13q24 -11 41 -29
q31 -34 37 -83q5 -49 -22 -94z" />
    <glyph glyph-name="D" unicode="D" horiz-adv-x="629" 
d="M68 873q10 18 36 20h9q21 0 43 -7q17 -6 31 -15q15 -9 22 -21q2 -14 4 -26t3 -23q45 41 122 44q77 2 143 -31q35 -18 62 -47q28 -28 40 -67q18 -54 18 -127q0 -21 -1 -43q-7 -100 -34 -203q-14 -54 -33 -106t-42 -98q-42 -85 -93 -139q-51 -55 -102 -53h-4q-23 0 -35 28
q-14 31 -12 70q1 26 11 51q9 25 27 42q20 -2 37 8q18 11 32 29q27 35 44 93q16 58 23 124q7 67 4 133q-4 67 -17 115q-31 108 -89 136q-58 27 -94 -16q17 -103 22 -232q5 -128 0 -252q-3 -66 -8 -128t-13 -114q-6 -17 -18 -27q-11 -11 -26 -16q-26 -10 -55 -2q-28 8 -40 31
q13 14 13 89q1 74 -4 180q-3 56 -7 119q-4 62 -8 126q-5 97 -9 190q-3 64 -3 117q0 25 1 48z" />
    <glyph glyph-name="E" unicode="E" horiz-adv-x="543" 
d="M225 788q-1 -12 -2 -36q-1 -25 -2 -56q-2 -46 -5 -96q-3 -49 -6 -75q38 6 83 11q45 4 70 14q38 -24 33 -59q-6 -34 -35 -42q-36 -9 -75 -7q-40 1 -71 -4q2 -21 0 -61q-1 -39 -2 -83q-1 -66 2 -125q4 -60 23 -70q18 -9 46 1q29 9 59 29q45 30 81 72t32 68q9 4 17 3
q8 0 14 -4q20 -10 23 -41q1 -5 1 -11q0 -24 -14 -43q-5 -7 -18 -24q-13 -18 -32 -40q-35 -42 -87 -89q-51 -48 -106 -69q-28 -11 -55 -13h-5q-25 0 -49 12q-35 18 -58 53q-22 34 -34 80q-17 64 -17 145v1q0 81 9 165q10 102 26 199q17 97 25 165q5 37 5 63q1 26 -5 37
q25 18 91 19h131q44 1 81 5t56 16q2 1 4 1q13 0 22 -4q10 -4 16 -12q18 -22 0 -58q-18 -37 -56 -43q-17 -6 -39 -7q-21 -1 -44 1q-43 3 -81 10q-39 7 -52 2z" />
    <glyph glyph-name="F" unicode="F" horiz-adv-x="496" 
d="M74 405q-16 4 -18 26v3q0 20 22 30q4 0 9 -1q-1 20 -1 39q-2 55 -4 106q-4 95 -9 164q-5 68 -7 79q-1 13 14 34q14 21 24 14q16 -11 80 -12t131 4q45 3 82 8q38 5 55 11q14 -7 25 -29q8 -17 8 -34q0 -6 -1 -12q-2 -12 -10 -23t-23 -18q-20 -8 -51 -9q-32 -2 -66 -1
q-52 3 -99 8q-47 6 -60 5q0 -8 8 -77q9 -69 20 -166q5 -45 10 -92q4 1 9 1q73 1 123 4q28 -7 30 -32v-4q0 -22 -20 -26q-6 5 -21 8q-16 2 -40 2q-33 0 -76 -3q4 -40 7 -78q9 -106 11 -197q1 -90 -11 -129q-11 -18 -26 -28t-32 -13q-8 -1 -17 -1q-30 0 -59 18q-37 23 -40 56
q9 6 15 23q6 18 10 45q8 49 11 124q2 76 1 159v14h-14z" />
    <glyph glyph-name="G" unicode="G" horiz-adv-x="628" 
d="M378 -32q-36 -6 -69 -6q-49 0 -89 14q-67 24 -111 76q-29 34 -49 78q-19 45 -30 97q-12 62 -12 133q0 39 4 81q11 117 50 236q24 76 63 124q39 47 85 70q29 15 59 20q18 3 35 3q13 0 25 -2q55 -7 100 -42t66 -92q15 -40 -11 -57q-27 -17 -51 8q4 25 -11 54q-15 28 -40 44
q-14 9 -29 12q-16 3 -33 -2q-26 -8 -51 -40q-26 -31 -47 -96q-22 -70 -23 -160q-2 -90 12 -178q13 -85 37 -160q24 -74 52 -117q15 -23 31 -35q15 -11 31 -9q26 4 39 72q14 67 19 141q3 51 3 94t-2 63q-11 0 -23 -1q-11 -1 -24 -2q-7 3 -10 14q-2 11 18 26q19 2 57 0
q38 -1 75 -2h44q20 1 30 4q6 -3 10 -20q1 -5 1 -8q1 -10 -7 -13q-7 -2 -17 -1l-22 2q1 -20 -1 -45q-2 -26 -6 -55q-8 -54 -25 -114q-17 -59 -43 -108q-22 -40 -49 -67q-28 -28 -61 -34z" />
    <glyph glyph-name="H" unicode="H" 
d="M522 491q18 -2 18 -18q0 -4 -1 -8q-6 -22 -24 -28q1 -12 3 -24q6 -58 11 -113q11 -101 18 -176q4 -47 4 -71q0 -15 -1 -21q-3 -13 -13 -26q-9 -13 -23 -25q-24 -22 -56 -35q-20 -8 -36 -8q-10 0 -19 3q-8 3 -15 9q-6 7 -10 18q-6 131 -9 296q-1 71 -1 139v20
q-49 -2 -105 -5q-45 -2 -85 -5q-2 -75 -9 -146q-13 -123 -41 -204q-1 -1 -1 -2q-7 -19 -32 -31q-15 -6 -29 -6q-11 0 -21 3q-10 4 -18 13q-9 8 -14 22q10 37 16 96t9 131q4 87 3 185q0 98 -5 193q-2 50 -5 98q-4 48 -8 91q11 30 37 30q9 0 19 -3q42 -14 64 -75
q15 -67 23 -139q9 -72 11 -145q1 -33 1 -65l23 1q42 2 84 3q43 1 83 2q0 60 2 118q2 84 6 159t11 136q7 37 43 55q20 9 36 9q14 0 26 -7q9 -5 15 -14q7 -8 9 -22q-16 -11 -20 -64q-4 -52 -1 -127q1 -40 5 -86q3 -45 7 -92q2 -22 3 -45q7 3 12 6z" />
    <glyph glyph-name="I" unicode="I" horiz-adv-x="299" 
d="M251 38q-10 -31 -27 -50t-37 -29q-27 -14 -55 -14q-21 0 -43 8q-50 17 -58 48q0 7 1 27q2 19 4 48q5 53 12 132q7 78 15 166q5 57 9 115q5 58 8 111q7 100 9 173q2 72 -6 87q-1 14 4 27q5 12 15 21q17 17 43 22q9 2 17 2q16 0 29 -7q10 -6 18 -16q7 -10 9 -25
q7 -69 3 -180q-5 -110 -11 -226q-7 -113 -9 -216q-3 -103 7 -163q5 -33 16 -49q10 -17 27 -12z" />
    <glyph glyph-name="J" unicode="J" horiz-adv-x="619" 
d="M563 900h3q35 -1 35 -38v-3q-1 -41 -35 -63q-30 -5 -72 -3t-62 3q14 -132 22 -246t8 -208q-2 -176 -39 -275q-38 -99 -129 -105q-14 -1 -26 -1q-53 0 -91 14q-49 18 -81 50q-59 59 -71 152q-8 61 -8 118q0 29 2 56q3 17 13 29t23 18q26 13 60 9q33 -4 58 -23
q13 -10 23 -24q9 -13 12 -31q-13 -2 -13 -36q-1 -34 7 -77q10 -52 30 -99t41 -46q15 1 24 18q8 17 12 48q8 56 4 147q-5 92 -14 193q-8 85 -16 168q-8 84 -13 153q-27 2 -58 3q-30 1 -53 4q-33 0 -41 19q-9 20 15 34q13 1 40 2q27 2 64 5q67 6 156 15q89 8 170 20z" />
    <glyph glyph-name="K" unicode="K" horiz-adv-x="665" 
d="M73 789q13 49 51 75t64 10q8 -6 14 -17q5 -11 7 -28q-7 -20 -11 -47q-4 -26 -7 -57q-5 -57 -5 -121q0 -65 2 -121q8 1 45 45t80 104q18 26 36 53t34 53q29 49 46 89q18 40 11 58q9 20 26 20q8 0 18 -5q31 -15 54 -49q19 -28 26 -61t-12 -56q-21 -26 -50 -58
q-29 -31 -59 -64q-58 -60 -109 -112t-60 -64q8 -20 46 -79q37 -58 83 -119q19 -26 39 -50q19 -24 37 -44q34 -36 58 -50t28 12q50 0 63 -37q5 -14 5 -26q0 -23 -16 -44q-8 -10 -20 -19q-13 -8 -30 -12q-6 -1 -13 -1q-30 0 -59 13q-35 16 -67 45q-34 31 -64 71q-29 41 -55 84
q-47 80 -77 148t-38 74q-4 -18 5 -84q9 -65 19 -143q6 -42 10 -83q4 -42 5 -78q-11 -20 -43 -35q-33 -16 -70 -9q-21 4 -40 16q-19 13 -35 36q-11 67 -16 140q-5 72 -5 144v2q0 136 14 264q15 127 35 217z" />
    <glyph glyph-name="L" unicode="L" horiz-adv-x="424" 
d="M80 885q13 28 48 29h2q33 0 63 -29q16 -16 29 -41q13 -26 17 -61q11 -63 15 -143q4 -79 5 -160q1 -98 -1 -188t-2 -148q-1 -31 0 -50q0 -19 2 -23q27 0 61 -1q33 -2 42 9q16 -6 16 -20q0 -3 -1 -7q-5 -19 -25 -28q-22 -9 -52 -21t-63 -22q-61 -18 -120 -23q-9 -1 -17 -1
q-46 0 -68 26q-3 10 -4 33v10q0 19 2 45q3 59 12 143t19 176q7 61 14 121q6 60 11 115q9 103 10 175q1 73 -15 84z" />
    <glyph glyph-name="M" unicode="M" horiz-adv-x="931" 
d="M40 728q8 42 35 83q28 41 55 39q9 -1 17 -8q8 -6 15 -21q11 -27 22 -73q10 -47 14 -90q2 8 16 44q13 39 37 82q12 23 28 45q15 22 33 38q17 15 36 23q15 6 30 6q5 0 10 -1q23 -3 40 -16q17 -12 30 -31q14 -19 23 -44q10 -25 16 -50q11 -47 13 -88t1 -50q8 15 26 55
q18 39 46 79q16 21 34 40t39 31q25 15 55 17q30 3 64 -14q38 -19 48 -86t8 -155q-2 -48 -5 -98q-4 -51 -7 -101q-6 -75 -8 -143q-2 -67 6 -111q4 -24 13 -39q8 -16 22 -20q16 -6 24 0q7 6 13 13q7 -15 7 -35q0 -14 -4 -31q-8 -39 -35 -65q-15 -14 -35 -21q-11 -4 -25 -5
q-8 0 -18 2q-42 8 -70 34t-45 65q-28 63 -33 150t0 176q4 48 8 93q5 45 10 85q10 74 15 123t-4 52q-24 8 -53 -46q-29 -53 -49 -126q-11 -39 -19 -78q-7 -40 -9 -74q0 -14 -6 -26q-5 -12 -13 -22q-25 -30 -62 -35q-38 -6 -47 28q4 40 5 96t-1 113q-3 85 -15 153
q-12 69 -38 73q-21 3 -51 -38q-30 -42 -53 -92q-16 -32 -25 -62q-10 -30 -9 -45q3 -34 7 -75q3 -41 6 -85q5 -80 6 -161q2 -80 -7 -134q-14 -22 -60 -32q-46 -11 -83 12q-15 10 -26 27q-11 18 -15 45q-1 10 0 32t3 52q4 56 10 131q5 75 9 149q4 92 0 163t-25 78z" />
    <glyph glyph-name="N" unicode="N" horiz-adv-x="616" 
d="M14 814v3q0 12 5 20q4 9 13 14q10 4 22 4t26 -4q25 -6 49 -23q23 -17 31 -38q11 -26 19 -58t9 -76q2 8 18 44q16 38 44 80q14 23 32 44q17 21 37 37q19 14 40 22q15 6 31 6q6 0 11 -1q50 -6 79 -46t44 -101q15 -63 17 -143q3 -79 0 -160q-2 -53 -4 -103q-3 -51 -4 -95
q-3 -83 3 -136q6 -52 34 -49q6 -11 6 -22q0 -19 -16 -40q-24 -32 -69 -32h-4q-25 0 -55 16q-30 15 -62 51q-35 39 -36 142q-1 102 10 218q9 92 21 178q11 86 13 140q2 30 -1 48q-2 17 -10 19q-20 5 -44 -13t-47 -47q-34 -45 -59 -98q-24 -54 -22 -76q3 -34 4 -79
q2 -44 2 -93q0 -91 -3 -183q-4 -92 -13 -146q-7 -20 -38 -29q-32 -9 -60 9q-16 9 -27 28q-12 19 -16 50q-1 11 0 35q0 25 1 60q1 65 3 155t2 178q-1 112 -8 198q-7 85 -28 92z" />
    <glyph glyph-name="O" unicode="O" horiz-adv-x="685" 
d="M440 890q15 -13 12 -27q64 -7 108 -53q49 -51 75 -130q14 -43 22 -91q7 -48 9 -99v-20q0 -105 -27 -208q-28 -113 -86 -184q-32 -39 -71 -61t-86 -22h-1q-54 0 -103 12q-50 12 -92 35q-79 42 -128 114q-49 73 -53 165v21q0 34 4 70q5 47 16 95q21 90 62 173q41 84 99 140
q49 47 110 67q32 11 67 11q30 0 63 -8zM362 814q-33 -29 -62 -88q-15 -31 -28 -68q-13 -38 -24 -78q-16 -62 -25 -128q-9 -65 -8 -122q0 -31 9 -64q8 -32 23 -63q27 -56 69 -96q43 -40 86 -38q36 0 69 63t55 154q12 48 19 101q8 54 10 106q2 43 0 83q-1 41 -8 76
q-12 65 -40 106q-29 40 -79 38q-13 18 -13 35q-27 7 -53 -17z" />
    <glyph glyph-name="P" unicode="P" horiz-adv-x="484" 
d="M152 875q4 -13 8 -31q3 -19 4 -33q9 20 58 52q48 33 101 38q6 1 12 1q16 0 31 -4q21 -6 37 -23q39 -39 50 -84q7 -26 7 -53q0 -19 -4 -38q-6 -38 -24 -75q-18 -38 -42 -72q-46 -64 -106 -113q-50 -40 -93 -59q2 -30 3 -58q3 -50 6 -94q5 -81 11 -133q7 -53 18 -60
q-4 -17 -29 -32q-24 -14 -53 -19q-13 -3 -26 -3q-3 0 -6 1q-16 0 -29 5t-23 14t-15 24q-5 14 -7 64q-2 51 -2 122v81q1 42 2 86q0 54 1 108q1 53 2 103q1 91 1 156q-1 64 -6 72q1 21 9 36t18 25q21 17 46 16q25 -2 40 -20zM230 497q25 33 40 76q23 64 24 132q2 67 -20 92
q-18 21 -60 2q-41 -19 -47 -42q8 -79 13 -164q4 -68 7 -132q24 11 43 36z" />
    <glyph glyph-name="Q" unicode="Q" horiz-adv-x="700" 
d="M567 -43q4 -10 4 -17q0 -15 -22 -15h-1q-34 0 -53 16q-19 41 -40 69q-24 -9 -51 -10q-15 -1 -29 -1q-135 0 -225 79q-98 87 -112 228q-4 35 -4 73v17q1 47 8 96q12 90 42 176q31 85 82 144q42 50 99 74q36 15 78 15q24 0 49 -5q14 -11 14 -26q64 -2 111 -46
q52 -48 84 -125q16 -42 27 -90q10 -47 15 -98q3 -36 3 -72q0 -26 -2 -53q-4 -63 -17 -121q-24 -108 -80 -184q-13 -18 -28 -32l2 -2q29 -37 46 -90zM320 803q-29 -30 -51 -87q-12 -31 -22 -68q-9 -36 -16 -76q-10 -62 -14 -126q-3 -64 1 -121q3 -31 12 -65q9 -33 24 -65
q27 -58 68 -100t84 -39h7q-22 28 -35 60q-1 4 -1 8q1 23 35 38q20 9 33 9q14 0 21 -9q-6 -11 -2 -23q3 -13 12 -27v-1q27 46 42 119q16 74 19 156q2 54 -1 108q-2 54 -11 103q-15 91 -49 151q-35 60 -89 53q-8 9 -12 19q-30 9 -55 -17z" />
    <glyph glyph-name="R" unicode="R" horiz-adv-x="603" 
d="M235 876l2 -24v-39q12 19 60 45t99 26q22 0 42 -6q20 -7 36 -23q35 -35 44 -73q9 -37 1 -75q-6 -31 -22 -61q-16 -29 -36 -56q-39 -50 -83 -85q-45 -36 -67 -46q32 -5 57 -25q25 -21 45 -52q22 -31 38 -70t30 -79q25 -74 46 -132q20 -59 47 -60q1 -5 1 -10q0 -9 -3 -17
q-4 -12 -12 -21q-25 -27 -73 -27t-76 27q-16 20 -29 94q-14 74 -34 150q-11 41 -24 76q-14 36 -31 59q-16 21 -37 27q-14 4 -31 -3q-4 -100 -4 -174q0 -53 3 -87q2 -34 11 -40q-8 -21 -35 -28q-28 -8 -57 -3q-20 3 -38 12t-29 23q-16 54 -9 157t19 224q7 65 13 133
q5 67 8 132q-15 -15 -47 -8q-31 6 -42 19q-4 5 -5 10q0 2 1 4q3 7 10 10q17 0 49 24q33 24 44 67q3 21 12 32q10 11 21 14q8 2 15 2q16 0 33 -10q26 -13 37 -33zM277 523q26 27 44 64q26 55 32 116q6 60 -12 87q-14 23 -56 8t-51 -37q2 -133 -4 -268q26 8 47 30z" />
    <glyph glyph-name="S" unicode="S" 
d="M446 767q1 -42 -30 -45t-46 33q6 16 5 30q-2 14 -8 24q-13 21 -39 28t-50 -2q-12 -5 -23 -16q-10 -10 -15 -27q-8 -24 1 -55q8 -30 28 -64q37 -64 98 -138q62 -74 110 -148q32 -49 53 -96q17 -42 18 -81q0 -5 -1 -10q-3 -60 -22 -102t-49 -69q-56 -49 -137 -50h-9
q-77 0 -149 27q-34 12 -58 35q-24 22 -41 50q-30 51 -38 110q-7 44 -7 74q0 10 1 19q2 17 8 30q7 13 15 22q27 28 62 23t34 -41q-29 -18 -28 -57q2 -39 26 -76q16 -25 40 -44q24 -20 53 -28q24 -7 51 -3t54 22q18 12 24 29q6 18 2 40q-5 41 -36 96q-30 55 -68 116
q-31 51 -63 104q-31 53 -53 103q-22 49 -30 93q-9 44 3 81q11 31 30 53q19 21 43 34q26 13 55 17q13 2 26 2q16 0 31 -3q53 -9 92 -45q39 -37 37 -95z" />
    <glyph glyph-name="T" unicode="T" horiz-adv-x="511" 
d="M486 890q19 -10 20 -24q0 -4 -2 -9q-7 -20 -40 -22q-22 -5 -67 -8q-45 -2 -73 -6q4 -67 9 -165t11 -200q3 -53 7 -105q3 -52 7 -99q8 -87 18 -146t22 -66q-1 -21 -8 -34q-7 -14 -19 -21t-27 -8h-6q-13 0 -26 3q-31 7 -58 28q-27 20 -34 43q-9 32 -14 84q-5 51 -8 116
q-5 120 -4 271q1 150 5 291q-20 -2 -65 -8q-44 -5 -76 -2q-35 19 -39 56v7q0 30 36 32q80 -5 175 -10q94 -4 163 -5q37 0 62 2q24 1 31 5z" />
    <glyph glyph-name="U" unicode="U" 
d="M542 59q3 -21 -2 -35q-4 -15 -14 -23q-16 -13 -39 -13q-9 0 -19 2q-35 8 -43 24q-11 27 -20 80q-8 52 -8 97q-2 -6 -17 -34t-41 -62q-14 -18 -31 -35q-17 -18 -36 -32q-24 -18 -50 -28q-27 -10 -56 -9q-50 3 -78 41q-28 37 -39 97q-15 72 -12 164q3 93 11 186q4 48 8 94
q5 46 7 86q5 74 1 121q-5 46 -31 44q-5 10 -5 21q0 20 17 41q24 29 65 30q4 0 9 -1q26 -2 55 -18q30 -16 60 -54q14 -17 21 -47t9 -69q3 -73 -9 -166q-11 -93 -25 -182q-11 -73 -21 -135q-9 -61 -11 -98q-1 -20 2 -31q2 -12 8 -12q23 -1 48 13q25 15 48 37q35 33 60 74
t25 64q1 32 1 79t1 100q1 99 5 201t15 155q8 20 39 27t58 -12q15 -11 25 -30q11 -20 14 -51v-6q0 -22 -4 -78q-5 -65 -11 -150q-3 -45 -7 -93q-3 -49 -5 -96q-5 -109 -2 -191q3 -83 24 -87z" />
    <glyph glyph-name="V" unicode="V" horiz-adv-x="704" 
d="M20 858q4 16 15 27q10 12 24 18q19 8 41 8q9 0 19 -1q33 -5 59 -29q33 -32 62 -99q29 -68 55 -155q14 -46 28 -96q14 -51 27 -102q21 -79 41 -157q21 -77 42 -144q7 13 25 100q19 86 39 196q16 86 30 173q15 87 24 149q5 33 7 56q3 23 2 31q11 17 24 24q13 8 26 9
q26 1 48 -13q23 -14 31 -25q-12 -16 -27 -85q-14 -68 -32 -162l-21 -105q-12 -55 -25 -111q-25 -106 -58 -203t-76 -157q-16 -22 -48 -24h-8q-27 0 -53 13q-17 9 -31 23q-13 13 -22 32q-1 7 -5 27q-4 19 -11 47q-14 53 -37 129q-22 77 -48 161q-32 103 -66 202
q-33 99 -59 163q-14 35 -25 56t-17 24z" />
    <glyph glyph-name="W" unicode="W" horiz-adv-x="834" 
d="M14 908q7 17 20 25q12 8 27 9h6q33 0 70 -24q41 -25 61 -56q13 -55 16 -134q4 -80 4 -163q0 -43 -1 -85q-1 -43 -1 -80q-1 -71 1 -119t12 -54q6 7 15 25q9 17 21 41q21 45 46 102q26 57 47 100q12 14 48 8q37 -5 49 -17q11 -31 22 -69t21 -77q19 -73 33 -131
q14 -59 19 -62q3 2 6 20q3 17 7 47q7 56 18 143q10 87 27 180q17 96 42 185q25 88 61 142q8 6 17 8t18 -1q27 -6 46 -38q14 -22 14 -41q0 -8 -3 -16q-13 8 -27 -42q-14 -51 -29 -135q-8 -45 -16 -97q-9 -51 -17 -106q-17 -103 -36 -205q-19 -103 -41 -175q-20 -38 -66 -56
q-22 -9 -38 -9q-17 0 -28 10q-16 34 -31 78q-16 43 -30 88q-27 85 -47 156q-20 72 -27 83q-10 -13 -37 -69q-27 -55 -57 -121q-17 -35 -33 -69t-30 -62q-9 -13 -23 -19q-13 -5 -29 -5q-28 0 -55 16q-28 15 -40 35q-28 64 -34 165q-5 100 -1 208q4 106 10 205q6 100 2 167
q-2 36 -9 60t-20 31z" />
    <glyph glyph-name="X" unicode="X" horiz-adv-x="673" 
d="M144 32q-14 -10 -29 -14q-15 -5 -30 -5h-4q-24 0 -40 10q-13 8 -14 20q0 5 2 10q10 11 27 37q18 26 42 65q43 71 101 173q29 51 57 104l-18 34q-32 60 -61 113q-55 100 -96 166t-54 66q-1 3 -1 6q0 6 2 12q3 8 10 15q17 16 49 23q23 5 44 5q9 0 17 -1q20 -2 36 -8t22 -17
q7 -10 32 -62q26 -52 62 -128q16 -34 34 -72q33 67 63 133q40 87 64 158q38 21 70 22q12 0 23 -3q34 -9 34 -33q0 -5 -2 -12q-36 -75 -89 -174t-109 -200q27 -55 55 -111q29 -57 57 -109q51 -98 91 -164q41 -66 58 -68q5 -12 5 -22v-2q-1 -11 -6 -20q-14 -26 -54 -30
q-5 -1 -10 -1q-33 0 -56 25q-43 55 -102 157q-57 97 -116 204q-21 -38 -40 -73q-42 -76 -76 -137q-33 -60 -50 -92z" />
    <glyph glyph-name="Y" unicode="Y" 
d="M202 805q4 -45 4 -109q-1 -64 -2 -130q-1 -35 -1 -69q0 -33 2 -62q2 -55 10 -90q7 -36 26 -35q44 0 79 70q35 71 54 162q11 49 16 99t5 92q12 46 51 53t64 -22q8 -9 14 -23q5 -14 5 -31q-5 -2 -9 -24q-3 -22 -4 -58q-4 -68 -6 -171q-2 -75 -8 -150l8 2q15 -3 17 -20
q2 -16 -13 -30q-8 0 -16 -1l-1 -10q-5 -46 -12 -90q-7 -43 -17 -82q-19 -72 -51 -118q-31 -46 -80 -47h-5q-40 0 -63 15q-25 15 -33 41q-16 50 20 126q37 75 100 133q13 12 26 22q2 49 3 92q1 55 1 82q-4 -22 -23 -62q-21 -40 -56 -71q-18 -17 -40 -28q-22 -10 -47 -11
q-49 -1 -80 24q-32 25 -51 67q-19 44 -28 101q-8 56 -11 115q-1 39 -2 76v71q0 62 -5 103q-4 41 -21 42q16 22 36 33q20 12 41 15q6 1 13 1q30 -1 56 -20q31 -24 34 -73zM360 135q-15 -22 -28 -43q-13 -22 -22 -42q-17 -38 -19 -63q-3 -26 17 -26q12 0 22 12q9 11 17 31
q14 37 22 97q3 27 6 55q-8 -10 -15 -21z" />
    <glyph glyph-name="Z" unicode="Z" horiz-adv-x="643" 
d="M104 858q75 -14 151 -5q76 10 153 17q38 3 77 3h6q42 0 84 -9q20 -25 20 -48v-9q-5 -27 -17 -53q-43 -45 -89 -108q-46 -62 -88 -130q-52 -83 -96 -163q-43 -80 -70 -136q-15 -30 -24 -51q-9 -20 -10 -28q33 -4 76 -14q44 -10 87 -21q66 -15 116 -21q50 -7 49 16
q14 -5 25 -12q10 -8 16 -17q18 -29 1 -61q-16 -32 -57 -32h-4q-93 12 -155 18q-62 7 -125 20q-34 6 -71 16q-38 10 -84 25q-25 9 -25 34q-1 5 0 10q5 34 20 58q25 38 66 105q41 66 85 139q24 38 47 77q23 38 44 73q39 65 67 111q27 47 31 55q-78 -3 -154 3q-76 7 -140 28
q-46 25 -48 64q-2 38 36 46z" />
    <glyph glyph-name="bracketleft" unicode="[" horiz-adv-x="2902" 
d="M2845 306q25 -21 31 -54q2 -10 2 -18q0 -19 -10 -28q-53 -47 -117 -51t-135 18q-58 18 -119 49q-61 30 -122 65q-40 22 -79 45q-39 22 -78 42q-70 37 -136 61q-65 23 -119 16q-45 -5 -82 -20q-36 -16 -65 -38q48 -45 84 -91q41 -52 49 -106q6 -40 -1 -70q-8 -30 -24 -50
q-31 -40 -85 -44h-11q-47 0 -87 30q-23 17 -41 45q-17 29 -22 68q-5 34 -1 79q3 44 17 89q6 20 14 39q-52 53 -110 110q-18 17 -34 33l-64 -62q-11 -10 -21 -19q6 -7 11 -13q62 -78 65 -161q1 -40 -10 -70t-30 -49q-38 -39 -93 -41t-96 29q-22 17 -36 43q-15 27 -16 62
q-2 43 22 89q21 40 51 82q-31 30 -73 53q-64 33 -145 33q-82 0 -159 -37q-77 -38 -153 -93q-91 -67 -180 -143q-90 -77 -180 -128q-49 -28 -99 -45t-100 -17t-101 24q-51 23 -84 63q-18 21 -29 47q-11 25 -11 54q-1 3 -1 7q1 87 50 132q52 47 110 45q45 -1 77 -39t31 -87
q0 -22 -8 -40t-21 -31q-23 -24 -53 -27q-31 -4 -49 18q-16 7 -19 44q-2 36 21 43q14 -20 47 -29q34 -8 39 23q4 21 -19 42q-22 20 -49 21q-39 2 -66 -27q-27 -30 -21 -93q4 -48 47 -86q44 -38 107 -37q44 0 90 19q46 18 94 49q87 57 179 142q92 84 188 158q78 61 159 102
t163 41q53 0 107 -15t102 -42q43 -24 80 -54q19 25 39 51q20 27 39 54l-8 11q-24 36 -40 72q-15 36 -17 72q-2 38 10 68q13 31 35 53q40 41 99 51q14 2 26 2q43 0 75 -24q22 -16 35 -44q14 -27 15 -67q0 -50 -23 -99q-24 -49 -62 -96q-16 -20 -34 -39q28 -25 60 -50
q41 -33 80 -66q17 24 38 48q64 74 176 88q51 6 108 -14q56 -20 115 -56q71 -43 144 -98q74 -56 144 -103q38 -26 75 -47t72 -34q66 -24 124 -13q57 12 102 81zM1742 295q-23 -57 -13 -111q6 -31 17 -51q10 -21 23 -31q29 -25 57 0q28 24 19 86q-6 41 -41 86q-21 27 -46 55
q-9 -17 -16 -34zM1379 345q-54 -54 -54 -96q0 -57 29 -75t50 9q9 11 14 31t4 49q-2 32 -14 63q-6 17 -16 33q-7 -7 -13 -14zM1539 680q34 63 32 126q-1 49 -27 58q-26 8 -45 -22q-8 -13 -13 -32q-5 -20 -3 -46q1 -33 18 -65q10 -21 25 -42q7 12 13 23z" />
    <glyph glyph-name="backslash" unicode="\" 
d="M12 815q-6 18 -6 30q0 13 5 21q8 14 27 14q5 1 11 0q27 -5 47 -29q-1 -12 6 -32q6 -20 20 -46q24 -50 66 -117q43 -68 92 -141q32 -48 65 -95q33 -48 64 -92q58 -81 101 -141t51 -75q2 -9 2 -20q0 -20 -9 -43q-14 -35 -46 -42q-5 -1 -11 -1q-13 0 -28 6q-23 8 -49 34
q13 16 -15 77q-29 61 -79 146q-27 46 -57 96q-31 51 -63 102q-59 98 -113 190q-55 93 -81 158z" />
    <glyph glyph-name="bracketright" unicode="]" horiz-adv-x="2902" 
d="M937 590q112 -14 176 -88q21 -24 38 -49q8 6 16 13q39 32 75 63q25 21 47 41q-16 19 -32 39q-37 47 -61 96t-23 99q0 40 14 67q13 28 35 44q32 24 75 24q12 0 26 -2q59 -9 99 -51q22 -22 35 -52q12 -31 10 -69q-3 -56 -36 -111q-14 -23 -30 -45q21 -31 47 -62
q17 -21 33 -41q36 30 79 53q49 27 102 42q54 15 107 15q99 0 196 -58q97 -59 191 -138q51 -42 101 -86q49 -44 98 -84q75 -61 147 -103q72 -41 141 -42q62 -1 106 37q43 38 47 86q6 63 -21 93q-26 29 -66 27q-27 -1 -49 -21q-23 -21 -19 -42q6 -31 39 -22q33 8 47 28
q23 -7 21 -43t-19 -44q-18 -22 -49 -18q-30 4 -53 27q-13 13 -21 31t-8 40q-1 49 31 87t77 39q58 2 110 -45q50 -45 50 -132v-7q-1 -29 -12 -54q-11 -26 -29 -47q-33 -40 -84 -63q-51 -24 -100 -24q-79 1 -154 38q-76 38 -150 93q-49 36 -97 76t-97 79q-90 71 -183 124
t-191 53q-44 0 -83 -10t-72 -28q-36 -20 -64 -47q30 -42 52 -83q24 -46 22 -89q-1 -35 -16 -61q-14 -27 -36 -44q-41 -31 -96 -29t-93 41q-19 19 -30 49t-10 70q3 83 65 161l11 14q-15 14 -31 28q-29 26 -56 52q-22 -24 -46 -48q-35 -34 -68 -67q-15 -14 -29 -28
q9 -19 15 -39q14 -45 18 -89q3 -44 -2 -79q-5 -39 -22 -68q-17 -28 -41 -45q-40 -30 -87 -30h-11q-53 4 -85 44q-16 21 -24 50q-7 30 -1 70q8 54 49 106q36 46 84 91l-9 7q-55 41 -137 51q-46 6 -98 -10q-53 -15 -110 -43q-37 -17 -76 -39q-38 -21 -78 -43q-73 -42 -147 -82
q-75 -39 -145 -61q-71 -22 -135 -18t-116 51q-11 9 -11 28q0 8 2 18q6 33 32 55q44 -70 101 -81q58 -12 124 12q54 20 112 58t118 81q39 28 78 57t78 55q72 48 141 78q69 31 131 23zM1108 293q-48 -56 -55 -105q-9 -61 19 -86q28 -24 57 0q13 11 23 31q11 20 17 51
q5 29 1 60q-4 30 -17 60q-6 12 -14 25q-16 -18 -31 -36zM1416 764q1 26 -4 46q-5 19 -13 32q-19 30 -45 22q-26 -9 -27 -58q-1 -34 9 -68t28 -68q4 -7 7 -14q42 53 45 108zM1476 263q-1 -29 4 -49t14 -31q21 -27 50 -9t29 76q0 22 -17 48t-44 55l-7 7q-27 -47 -29 -97z" />
    <glyph glyph-name="asciicircum" unicode="^" 
d="M299 885q11 -4 39 -50q29 -46 62 -104q14 -24 28 -49q15 -24 28 -47q25 -42 45 -70q20 -29 28 -30q10 -9 14 -19q3 -7 3 -14v-3q-2 -20 -21 -30q-20 -10 -37 2q-21 18 -45 52q-23 34 -46 72q-35 57 -63 106t-37 52q-7 -5 -29 -37q-21 -33 -46 -75q-30 -51 -55 -102
q-25 -50 -24 -66q-17 -15 -33 -19q-9 -3 -18 -3q-6 0 -12 2q-25 5 -41 27q-14 19 -13 30v2q-1 18 19 55t50 81q16 23 34 48q19 24 37 48q44 55 82 96t51 45z" />
    <glyph glyph-name="underscore" unicode="_" 
d="M508 70q12 -14 16 -42q1 -6 1 -11q0 -19 -10 -30q-6 4 -21 6q-14 2 -36 3q-40 1 -96 -1q-56 -3 -113 -6q-57 -4 -106 -7q-49 -4 -71 -5q-30 0 -38 26q-2 8 -2 15q0 17 12 31q5 7 13 12q8 4 19 6q28 2 78 2h106q83 -1 159 -2q75 0 89 3z" />
    <glyph glyph-name="grave" unicode="`" horiz-adv-x="255" 
d="M29 903q8 26 40 48q21 15 51 15q15 0 32 -5q33 -40 45 -71q11 -30 18 -69q-4 -23 -19 -32q-7 -4 -16 -5h-5q-7 0 -13 1q-14 7 -27 19q-13 13 -25 27q-22 27 -42 51q-21 24 -39 21z" />
    <glyph glyph-name="a" unicode="a" horiz-adv-x="730" 
d="M381 489q6 29 39 29h11q42 -5 60 -38q5 -11 6 -25q1 -13 -5 -29q-17 -18 -34 -87q-16 -70 -27 -152q-5 -36 -9 -71q-3 -35 -5 -68q-3 -59 0 -101q3 -41 15 -45q22 -7 64 56q41 63 84 145q28 55 54 109q25 54 42 92q10 4 21 4t20 -2q-18 -41 -46 -105q-27 -64 -61 -129
q-33 -64 -70 -120t-75 -85q-20 -16 -40 -23q-10 -3 -20 -3t-19 3q-34 11 -55 37q-21 25 -32 57q-20 61 -16 129q4 69 10 101q-3 -1 -18 -30q-15 -28 -40 -59q-14 -17 -30 -31q-17 -15 -35 -24q-23 -11 -49 -10q-26 0 -54 20q-20 14 -32 36q-11 22 -15 49q-3 16 -3 34
q0 36 10 78q15 61 45 117q30 57 72 98q42 42 87 49q11 2 27 2t33 -2q31 -3 60 -14q15 -6 24 -14q4 14 6 22zM335 436q-18 0 -36 -9q-29 -14 -54 -46q-25 -33 -43 -71q-27 -57 -33 -113q-7 -55 20 -69q18 -9 45 29t54 94q34 69 61 142q8 21 13 37q-13 6 -27 6z" />
    <glyph glyph-name="b" unicode="b" horiz-adv-x="598" 
d="M17 706q6 22 16 38q11 15 24 24q19 14 39 14q6 0 11 -1q26 -5 36 -28q7 -83 8 -169q1 -87 -4 -172q16 33 61 58q45 26 91 22q25 -3 47 -17q23 -15 38 -45q23 -44 25 -107t-11 -128q-7 -32 -17 -64q28 18 56 40q68 50 108 125q17 6 23 5q6 -2 16 -8q-44 -94 -121 -151
q-55 -42 -104 -69q-2 -4 -3 -7q-25 -55 -58 -92t-69 -41q-32 -4 -53 19t-14 50q3 11 12 21t26 18q18 7 46 19q11 60 13 130q1 47 -3 90q-4 42 -15 66q-17 39 -47 38q-31 -2 -46 -45q0 -67 1 -144q1 -78 0 -142q-1 -34 -3 -61q-2 -28 -5 -44q-2 -11 -7 -19q-5 -7 -12 -11
q-13 -8 -29 -7q-12 0 -27 4q-34 10 -47 26q-5 89 -5 175v27q1 98 4 185q6 162 11 267t-12 111zM219 11q-25 -9 -21 -16t21 -3q9 3 17 25q-10 -4 -17 -6z" />
    <glyph glyph-name="c" unicode="c" horiz-adv-x="558" 
d="M182 516q17 11 39 11q15 0 32 -6q42 -12 51 -40q3 -9 1 -19q-3 -11 -12 -22q-30 13 -50 -38q-21 -51 -30 -124q-4 -32 -6 -65q-1 -33 0 -63q1 -58 12 -100q11 -43 32 -50q38 -13 88 40q51 53 96 124q24 39 45 77q20 38 34 68q10 2 19 2q10 0 19 -6q-17 -41 -46 -99
q-30 -58 -70 -114q-21 -30 -45 -57t-50 -49q-41 -33 -85 -48q-23 -7 -47 -7q-22 0 -46 7q-55 17 -89 53t-49 83q-13 39 -14 83q-1 7 -1 14q0 37 7 75q15 82 59 157t106 113z" />
    <glyph glyph-name="d" unicode="d" horiz-adv-x="754" 
d="M345 548q11 85 17 147q6 63 7 74q10 28 23 40t27 12h3q25 0 50 -22q27 -24 43 -40q-4 -3 -10 -25q-7 -23 -15 -60q-14 -70 -31 -177q-16 -108 -27 -218q-5 -48 -8 -94q-3 -47 -5 -88q-2 -76 4 -128t24 -59q22 -8 66 53t91 141q30 54 58 107t46 91q11 5 21 5q11 -1 20 -5
q-19 -41 -50 -103q-30 -62 -67 -126q-35 -63 -75 -117q-39 -54 -78 -82q-21 -15 -42 -21q-8 -2 -17 -2q-11 0 -22 4q-33 12 -52 39q-19 26 -29 60q-17 61 -11 130t5 100q-2 -6 -7 -18q-4 -13 -11 -29q-12 -30 -34 -65q-21 -34 -53 -54q-21 -13 -46 -17q-26 -4 -57 7
q-55 20 -71 85q-10 39 -10 81q0 30 5 61q5 32 14 65q10 32 22 62q25 54 59 93q35 38 75 42q21 3 56 -1q34 -4 62 -16q10 -4 19 -10q6 40 11 78zM262 409q-31 -32 -53 -85q-9 -22 -17 -46q-7 -24 -11 -48q-8 -42 -4 -76q3 -33 23 -41q13 -5 25 2t23 24q20 32 37 92
q17 59 31 129q5 31 10 63q-1 1 -2 1q-31 18 -62 -15z" />
    <glyph glyph-name="e" unicode="e" horiz-adv-x="565" 
d="M248 532q24 0 44 -8q19 -9 32 -23q26 -27 29 -69q3 -41 -22 -82q-20 -35 -60 -64q-28 -21 -68 -34q0 -21 1 -42q0 -31 3 -60q5 -54 18 -93q12 -40 31 -46q38 -14 85 37q47 50 89 118q22 37 42 74q19 37 33 67q10 3 19 3t19 -6q-17 -41 -46 -99q-29 -57 -68 -111
q-21 -30 -45 -56q-23 -27 -49 -48q-40 -31 -84 -45q-21 -7 -43 -7q-24 0 -49 8q-38 12 -65 36t-44 56q-24 45 -30 101q-3 24 -3 48q0 33 5 66q6 38 17 74q12 36 28 68q31 60 77 98q47 39 104 39zM227 300q27 17 44 38q32 40 31 80q0 40 -23 38q-34 -2 -52 -57
q-16 -49 -21 -110q11 5 21 11z" />
    <glyph glyph-name="f" unicode="f" horiz-adv-x="548" 
d="M48 358q-13 13 -13 28v2q1 15 17 21h13q13 120 42 222q33 118 86 166q21 16 48 22q15 3 30 3q12 0 24 -2q58 -12 71 -82q12 -70 -18 -152q-16 -43 -44 -85q-28 -41 -68 -74q-8 -7 -17 -13q-3 -57 -5 -117q-3 -77 -3 -155v-35q12 2 26 5q31 7 63 21q61 26 117 73t82 109
q14 5 21 4q8 -1 18 -5q-20 -47 -48 -84q-29 -37 -60 -64q-60 -51 -121 -73q-60 -22 -91 -23q25 -8 50 -30q24 -23 45 -55q39 -59 59 -135q19 -76 1 -132q-9 -29 -29 -48q-21 -20 -56 -26q-11 -2 -23 -2q-10 0 -22 2q-24 3 -41 12q-33 22 -58 66q-25 43 -43 102
q-33 109 -42 255q-10 141 1 279h-12zM214 -6q7 -131 25 -219t49 -81q32 8 34 50q1 42 -14 95q-20 65 -55 127q-21 36 -41 56zM243 535q17 30 29 61q23 55 28 100q5 44 -5 46q-11 3 -21 -14t-19 -50q-16 -60 -27 -162q0 -3 -1 -5q9 12 16 24z" />
    <glyph glyph-name="g" unicode="g" horiz-adv-x="612" 
d="M328 490q1 12 6 20t12 12q21 12 51 -6q31 -18 34 -51q-1 -139 -3 -248q-1 -57 -3 -106q18 20 38 42q66 73 103 148q11 3 20 3q9 -1 19 -5q-21 -46 -52 -91q-32 -45 -67 -87q-32 -39 -64 -74q-1 -12 -1 -23q-8 -156 -31 -235q-23 -78 -71 -106q-29 -16 -52 -16
q-19 0 -33 12q-32 27 -33 83q0 30 9 65q10 36 31 73q14 24 39 54q18 21 40 45q-1 51 -3 95q-2 45 -2 67q-4 -19 -30 -58q-27 -39 -65 -63q-16 -10 -34 -15q-17 -5 -35 -1q-44 9 -73 33t-44 57q-17 34 -20 76q-1 14 -1 28q0 28 5 58q12 81 53 152q40 72 89 96q28 13 56 13
q25 0 50 -11q45 -21 62 -51v15zM298 453q-14 4 -27 -4q-23 -14 -43 -59q-20 -46 -33 -98q-16 -65 -18 -121t16 -62q22 -6 54 44q33 50 55 133q13 45 20 97q3 22 4 44q-14 21 -28 26zM274 -129q-12 -24 -17 -46q-5 -23 -5 -41q0 -36 12 -54t24 -6q24 27 29 107q3 52 3 105
q-32 -37 -46 -65z" />
    <glyph glyph-name="h" unicode="h" horiz-adv-x="698" 
d="M32 761q13 16 27 23q13 5 25 5h5q28 -3 52 -25t31 -47q4 -110 -1 -195q-4 -86 -5 -179q4 10 19 40q16 31 46 54q16 12 36 20q20 7 45 5q31 -3 50 -24q20 -22 31 -55q12 -35 17 -79t6 -90q2 -85 0 -155q-2 -71 15 -77q21 -8 60 45q38 54 75 120q25 44 45 85t30 63
q10 4 19 5q10 0 20 -8q-11 -25 -35 -75q-23 -50 -55 -104q-16 -28 -34 -56t-36 -51q-36 -45 -72 -71q-25 -18 -49 -18q-10 0 -19 3q-34 11 -54 38q-20 26 -31 62q-12 37 -15 81t-2 88q2 81 7 145t-14 67q-23 3 -44 -23q-21 -27 -35 -62q-10 -23 -15 -46q-6 -23 -6 -39
q-1 -53 -2 -158q-7 -28 -32 -50t-49 -17q-11 2 -20 10t-15 23q-10 61 -9 149q0 89 3 182q2 49 4 96q2 48 3 91q2 80 -2 137q-4 56 -20 67z" />
    <glyph glyph-name="i" unicode="i" horiz-adv-x="449" 
d="M195 424q1 -20 -3 -63q-5 -43 -11 -93q-3 -26 -6 -53q-2 -26 -4 -51q-2 -45 2 -78q3 -33 19 -39q15 -5 34 6q18 10 38 31q36 40 73 104t64 120q9 2 19 3q9 0 18 -6q-13 -34 -35 -77q-21 -43 -48 -86q-17 -28 -37 -54q-19 -26 -40 -49q-39 -41 -82 -63q-26 -13 -53 -13
q-17 0 -33 5q-29 9 -44 34q-15 24 -21 58q-5 29 -5 62q0 9 1 18q1 43 6 87q10 82 20 150q11 67 -6 78q7 29 48 35q9 1 16 1q31 0 52 -20q9 -7 14 -19q4 -12 4 -28zM213 668v-3q0 -16 -17 -31q-18 -15 -35 -15h-2q-28 1 -60 15q-33 13 -35 41v3q0 24 28 42q29 17 54 17h3
q24 -1 43 -23q19 -23 21 -46z" />
    <glyph glyph-name="j" unicode="j" horiz-adv-x="439" 
d="M103 465q0 10 5 18q4 7 11 13q11 9 27 12q12 3 25 3h7q25 -1 45 -13q21 -12 23 -33q0 -149 -1 -261q-1 -48 -2 -91q12 14 25 29q34 39 64 79q29 40 49 80q11 3 20 3q9 -1 19 -5q-40 -86 -109 -166q-37 -42 -70 -81q-1 -24 -2 -45q-9 -155 -33 -226q-24 -70 -72 -98
q-29 -16 -52 -16q-19 0 -34 12q-31 26 -32 82v3q0 29 9 63q10 36 31 72q22 40 73 94q0 26 1 53q1 94 -2 186t-9 153q-3 34 -7 55t-9 25zM95 693q0 19 21 35q18 13 35 13h6q29 -4 63 -21q33 -17 34 -47q0 -28 -34 -45q-29 -15 -53 -15q-5 0 -10 1q-25 3 -43 28q-19 26 -19 51
zM126 -77q-25 -30 -37 -52q-12 -24 -17 -46q-6 -23 -6 -41q1 -36 13 -54t23 -6q5 5 9 21t7 41q5 45 8 114q0 12 1 25z" />
    <glyph glyph-name="k" unicode="k" horiz-adv-x="646" 
d="M26 748q6 50 49 73q24 13 44 13q15 0 27 -8q10 -6 15 -17q6 -11 7 -28q0 -21 1 -56t1 -78q1 -80 0 -169q0 -89 -2 -144q7 1 33 31q25 29 53 69q34 49 60 98q25 49 15 66q26 23 52 12q26 -12 37 -42q6 -16 5 -36q0 -21 -10 -43q-36 -61 -86 -102t-75 -55q25 -8 42 -28
q18 -19 30 -46q13 -29 20 -63q8 -34 12 -68q9 -64 15 -114q5 -51 21 -55q6 -1 15 6q10 8 21 22q20 27 45 70q24 44 48 90q24 47 43 90q20 42 29 63q10 3 21 4q10 0 18 -8q-9 -25 -31 -75q-21 -49 -48 -104q-15 -28 -31 -56q-15 -28 -32 -54q-30 -46 -61 -75q-25 -24 -48 -24
q-5 0 -9 1q-36 7 -59 29q-22 23 -36 53q-15 33 -22 71t-12 76q-9 70 -20 120q-11 51 -55 38q-2 -18 -1 -84q1 -67 -3 -167q-5 -36 -44 -45t-66 20q0 46 1 132t1 183v101q-1 51 -2 98q-3 85 -9 146q-7 61 -19 69z" />
    <glyph glyph-name="l" unicode="l" horiz-adv-x="454" 
d="M226 750q1 -9 -1 -27q-2 -19 -5 -45q-7 -49 -18 -119q-11 -71 -22 -148q-7 -50 -13 -101t-9 -97q-7 -86 -2 -147q4 -60 29 -68q29 -9 67 44q38 54 74 124q19 38 37 75q17 37 31 67q10 2 19 3q9 0 19 -6q-23 -58 -68 -147t-101 -155q-37 -44 -78 -68q-27 -15 -53 -15
q-15 0 -29 4q-23 7 -39 26t-26 47q-16 49 -16 121v7q1 77 11 162q12 102 31 202t27 166q4 35 3 57q0 22 -9 25q7 29 50 53q26 15 46 15q13 0 25 -7q9 -6 14 -18q6 -11 6 -30z" />
    <glyph glyph-name="m" unicode="m" horiz-adv-x="990" 
d="M17 526q5 21 16 33q10 11 24 14q5 1 11 1q26 0 55 -24q36 -29 47 -69q3 -31 10 -93q4 14 25 48q21 33 52 57q17 13 37 20t41 4q17 -2 30 -13q12 -10 22 -25q23 -35 32 -83q8 -48 8 -69q6 16 16 39q9 22 22 45q24 44 63 76t99 19q35 -8 54 -37q20 -29 28 -72q9 -44 7 -98
q-1 -54 -7 -109q-5 -36 -10 -70q-5 -35 -10 -66q-10 -57 -14 -95q-5 -39 3 -42q19 -7 47 21t59 74q16 24 33 52q17 27 32 56q30 53 54 101q24 49 35 73q10 3 19 2q10 -1 20 -6q-14 -31 -40 -86q-25 -55 -58 -114q-33 -58 -70 -109q-37 -52 -76 -80q-21 -15 -42 -20
q-10 -3 -20 -3q-11 0 -21 3q-30 9 -47 37t-25 68q-8 42 -8 93q-1 50 2 102q3 62 7 118q4 57 1 92q-2 20 -7 31q-5 12 -14 14q-18 3 -39 -48q-22 -52 -41 -114q-12 -42 -22 -80q-10 -39 -15 -61q-12 -13 -42 -17q-29 -4 -45 29q5 37 6 74q1 36 -1 69q-4 61 -18 102t-33 45
q-25 5 -54 -20q-30 -25 -49 -63q-11 -20 -17 -42q-7 -22 -7 -43l3 -219q-36 -34 -79 -35t-70 41q-1 41 -1 93q1 51 2 104q1 35 1 68q1 34 0 64q0 57 -5 96q-4 40 -16 47z" />
    <glyph glyph-name="n" unicode="n" horiz-adv-x="698" 
d="M11 496q11 10 27 12t34 -1q25 -5 48 -19q22 -14 26 -31q0 -19 2 -58q6 10 32 44q25 34 62 59q20 14 43 21q14 4 28 4q9 0 19 -1q47 -9 65 -79t22 -157q3 -70 2 -138t2 -113q1 -25 4 -40q4 -15 10 -17q22 -8 60 45q39 54 75 120q25 44 45 85t30 64q10 3 20 4q9 0 19 -8
q-11 -25 -35 -75q-23 -50 -54 -104q-17 -28 -35 -56t-36 -52q-35 -45 -71 -70q-25 -18 -49 -18q-10 0 -20 3q-38 13 -60 42q-23 29 -35 68q-13 41 -16 88q-3 48 -1 96q4 88 14 157t-2 72q-22 6 -51 -26t-51 -75q-15 -29 -24 -58q-9 -28 -9 -48q1 -57 3 -170q-12 -25 -41 -38
q-29 -12 -56 -5q-15 3 -27 14q-13 10 -20 28q0 38 3 84q2 46 5 94q5 88 6 163q2 75 -13 90z" />
    <glyph glyph-name="o" unicode="o" horiz-adv-x="607" 
d="M183 552q17 5 31 5q28 0 44 -17q19 -21 14 -39q8 4 18 7q26 8 48 4t39 -18q31 -25 47 -77t16 -114q0 -41 -6 -84q-2 -9 -3 -18q12 3 24 7q38 14 65 39q27 24 36 43q13 3 21 4t19 -5q-7 -17 -20 -36t-30 -35q-34 -32 -85 -49q-18 -6 -39 -8q-3 -12 -7 -24
q-23 -74 -68 -125q-44 -52 -109 -52q-51 0 -92 24q-42 24 -71 63q-55 72 -66 178q-3 23 -3 45q0 80 33 148q21 46 57 81q35 35 87 53zM206 488q-25 -10 -42 -32q-26 -34 -32 -90q-7 -56 0 -116q4 -32 11 -63q7 -30 16 -58q17 -51 38 -84q22 -34 43 -33q34 0 53 59
q16 50 23 113q-28 16 -51 48q-34 45 -47 99q-8 29 -8 57q0 29 9 53q9 23 26 41q6 6 14 12q-30 3 -53 -6zM323 271q2 32 1 62q-1 55 -8 91q-6 36 -16 32q-7 -3 -8 -34t4 -72q7 -49 24 -96l2 -6z" />
    <glyph glyph-name="p" unicode="p" horiz-adv-x="636" 
d="M562 292q12 3 24 3t17 -3q-23 -56 -64 -96q-42 -41 -89 -70q-27 -16 -53 -30q-14 -46 -35 -84q-31 -55 -74 -72q-11 -5 -36 -5t-46 11q-11 6 -20 16q-8 10 -11 26q-2 10 7 22q9 11 26 24q30 21 76 45q8 22 16 47q12 42 17 88q5 45 -4 83q-6 24 -18 44t-32 32
q-62 39 -89 -138q-27 -176 -2 -535q-5 -15 -29 -22q-16 -5 -33 -5q-9 0 -18 1q-14 2 -27 7q-13 6 -22 15t-13 21q-3 13 0 29q20 -7 31 31q10 39 14 104q2 35 2 76t-1 84q-3 99 -11 200q-9 100 -18 168l-10 60q-5 23 -10 27q25 24 47 24q8 0 15 -3q29 -11 51 -47
q8 -36 10 -84q1 -49 2 -67q2 2 10 29q9 28 27 59q10 17 22 32q13 16 28 27q20 13 44 16q25 4 55 -8q22 -9 38 -30q16 -20 26 -48q19 -52 20 -122q1 -65 -11 -126q45 29 86 61q46 38 65 83zM248 29q-17 -9 -25 -17t-3 -15q10 -17 36 24q5 8 9 16q-9 -4 -17 -8z" />
    <glyph glyph-name="q" unicode="q" horiz-adv-x="656" 
d="M323 467q6 -12 3 -20q-3 -9 -14 -14q-20 19 -51 -19q-31 -37 -59 -95q-12 -24 -22 -50t-18 -52q-13 -46 -14 -81q0 -35 19 -42q24 -7 59 51q34 59 66 132q25 60 44 115t23 78q5 26 26 27q21 0 39 -20q8 -8 14 -20t9 -27q-4 1 -10 -12q-6 -12 -13 -34q-12 -42 -27 -111
q-14 -70 -27 -149q-8 -50 -15 -100q20 11 45 32q53 45 102 100q33 37 60 73q26 36 40 62q10 3 21 5t20 -3q-13 -27 -34 -59q-22 -33 -49 -66q-50 -62 -107 -113t-96 -55q35 -57 53 -108q18 -50 23 -92q9 -77 -20 -121q-27 -40 -67 -40h-5q-23 1 -39 15q-17 14 -27 36
q-18 37 -24 90q-5 53 -4 110q2 84 13 157q11 72 15 86q-5 -7 -24 -40t-57 -51q-20 -10 -46 -11q-27 0 -60 14q-24 11 -40 30t-24 43q-9 28 -9 61v14q3 41 15 83q22 79 69 144q47 66 95 77q22 5 49 5q13 0 27 -1q43 -4 53 -34zM343 -83q-9 -90 -7 -153q2 -62 20 -64
q21 -2 25 44q4 47 -11 114q-8 36 -23 74l-2 6z" />
    <glyph glyph-name="r" unicode="r" horiz-adv-x="533" 
d="M125 467q13 0 28 4q28 6 60 15q32 10 57 9q13 0 23 -4q10 -5 16 -15q5 -15 -2 -79q-8 -64 -16 -140q-7 -61 -10 -118q-4 -57 2 -93q2 -20 9 -31q6 -11 16 -11q26 0 66 54t78 118q25 43 45 83t30 63q10 2 19 2q10 0 19 -3q-17 -45 -59 -126q-41 -81 -92 -147
q-34 -45 -70 -74t-69 -29h-1q-100 1 -143 112q-42 112 10 361q-19 1 -35 4q-11 -24 -23 -48q-32 -63 -41 -85q-12 -2 -21 -3q-9 0 -19 4q10 19 26 53q15 34 32 72q5 11 9 21q-17 11 -29 23q-33 33 -34 76q-1 44 26 72q14 15 36 22q15 5 32 5q10 0 20 -1q34 -5 34 -44
q-1 -39 -18 -90l-12 -32h1zM109 569q-22 3 -24 -44q-1 -26 4 -40q7 18 13 35q17 48 7 49z" />
    <glyph glyph-name="s" unicode="s" horiz-adv-x="557" 
d="M263 450q-8 -25 -26 -26t-37 6q2 24 -3 39q-5 16 -15 25q-18 16 -42 11q-25 -4 -35 -24q-8 -15 0 -31q8 -15 28 -33q36 -32 96 -71q61 -39 110 -90q32 -34 52 -72q13 8 25 16q73 48 91 93q11 4 19 4q9 1 22 -3q-18 -45 -69 -88q-35 -30 -73 -58q8 -26 8 -55
q0 -47 -16 -85q-15 -37 -40 -64q-21 -22 -46 -38t-51 -25q-35 -12 -67 -12q-13 0 -27 3q-45 7 -64 38q-14 22 -6 44q8 23 31 47q24 25 60 51q15 11 32 22v1q2 15 2 29t-2 27q-5 19 -16 39q-12 19 -28 39q-29 36 -66 73q-36 37 -59 76q-19 33 -23 69q-1 5 -1 10q0 31 20 64
q10 17 25 27q15 11 32 16q18 5 37 5q16 0 33 -4q36 -8 60 -32q13 -12 21 -28q7 -16 8 -35zM163 -10q-17 -14 -25 -26q-8 -11 -4 -19q12 -21 30 -4t33 51q6 14 11 30q-27 -18 -45 -32z" />
    <glyph glyph-name="t" unicode="t" horiz-adv-x="469" 
d="M301 668q11 -8 11 -21q0 -2 -1 -3q-1 -16 -14 -23h-79q-7 -51 -16 -118q-13 -94 -22 -188q-8 -78 -11 -147q-2 -69 4 -113q4 -24 11 -39t18 -18q29 -9 67 44q38 54 73 124q20 38 37 75q18 37 32 67q9 2 19 3q9 0 19 -6q-24 -58 -68 -147q-45 -89 -101 -155
q-37 -44 -78 -68q-27 -15 -54 -15q-14 0 -28 4q-24 7 -40 27q-16 19 -27 48q-18 54 -19 133v14q0 73 8 153q11 108 30 212q11 62 20 111q-28 1 -65 2q-18 -2 -18 19v2q1 22 16 23q22 1 43 1q16 0 32 -1q1 9 3 17q6 37 9 61t0 28q2 8 6 13t10 9q10 5 23 5q17 0 38 -10
q37 -17 43 -50q1 -4 -1 -26q-3 -22 -7 -54h12q23 0 40 1t25 6z" />
    <glyph glyph-name="u" unicode="u" horiz-adv-x="637" 
d="M593 296q11 6 22 5t15 -11q-6 -15 -30 -68q-24 -54 -57 -115q-14 -26 -30 -51q-15 -25 -31 -48q-30 -41 -60 -65q-23 -18 -44 -18q-7 0 -14 2q-27 7 -44 23q-16 16 -26 35q-17 37 -17 79v65q-5 -11 -24 -46q-19 -37 -53 -62q-18 -13 -40 -20q-22 -6 -48 1q-34 8 -55 35
q-20 27 -31 66q-9 31 -12 68q-3 34 -3 69v8q1 72 8 143q8 71 9 117q8 20 34 25q9 2 19 2q17 0 33 -5q14 -4 27 -12t22 -20q0 -42 -4 -92t-8 -99q-9 -92 -12 -165q-3 -72 20 -76q31 -4 57 28t44 76q11 28 18 57t9 51q2 60 7 180q10 17 37 25q27 7 53 -4q15 -5 26 -18
q12 -12 18 -31q-10 -4 -22 -62q-11 -59 -18 -133q-4 -32 -6 -65q-3 -32 -4 -61q-2 -55 0 -94q3 -38 13 -40q22 -5 58 48t70 116q27 52 48 98q21 45 26 59z" />
    <glyph glyph-name="v" unicode="v" horiz-adv-x="605" 
d="M157 504q-18 -6 -9 -56t32 -115q18 -51 40 -103q23 -53 42 -90q11 -21 20 -36q9 -14 15 -21q5 7 20 49q8 26 17 55q-25 18 -42 61q-22 56 -22 117q-1 32 6 62q6 30 21 51q10 15 25 24t34 11q44 2 67 -16q23 -19 31 -52q8 -34 2 -80q-6 -47 -21 -97q-9 -33 -21 -66l-1 -2
q2 1 4 1q20 3 39 11q36 16 64 46q28 29 38 50q12 3 20 4q9 1 19 -5q-13 -32 -45 -71t-80 -58q-26 -10 -56 -11h-15l-12 -29q-24 -57 -48 -103t-38 -65q-5 -3 -16 -3q-7 0 -17 1q-24 4 -49 13q-14 4 -26 10t-20 13q-30 46 -55 98t-45 104q-38 96 -57 179q-16 72 -16 105v9
q0 25 33 41q21 10 42 10q14 0 28 -4q15 -4 29 -15q13 -10 23 -27zM374 344q10 55 -2 53q-10 -1 -16 -34q-6 -34 -5 -71q0 -18 3 -35q12 46 20 87z" />
    <glyph glyph-name="w" unicode="w" horiz-adv-x="798" 
d="M194 489q-3 -32 -10 -87t-13 -115q-5 -59 -8 -115q-3 -55 0 -90q2 -19 7 -30q4 -11 12 -11q14 -1 32 30q17 31 31 72q9 28 16 55q6 28 7 49q3 25 40 28q36 3 57 -16q6 -4 10 -10q3 -6 4 -13q2 -25 5 -70q4 -45 16 -81q7 -20 17 -33q11 -14 26 -18q19 -5 41 46
q23 50 41 119q0 1 1 3q-7 7 -12 14q-19 23 -33 53q-24 54 -26 118q-1 63 25 99q11 14 25 22q15 8 35 8q49 -1 75 -35t34 -86q4 -28 3 -60t-6 -65q-5 -31 -13 -61q17 3 32 12q33 19 56 51q23 31 32 49q10 4 20 4t20 -6q-12 -26 -43 -70q-30 -44 -77 -67q-23 -12 -52 -14
q-10 -29 -23 -57q-31 -67 -76 -110q-44 -42 -94 -31q-20 4 -35 16q-14 12 -25 29q-21 31 -30 68q-10 36 -14 54q-5 -20 -25 -61q-20 -42 -49 -77q-19 -23 -41 -38q-19 -13 -39 -13h-5q-43 3 -71 27q-27 23 -44 60q-17 39 -24 89q-6 49 -8 101v68q1 34 2 65q2 59 2 103
t-11 60q29 25 68 28h14q30 0 55 -11q17 -8 29 -20q12 -13 17 -29zM548 306q9 54 9 89q0 19 -3 30t-10 11q-9 0 -12 -26q-3 -27 0 -63q3 -33 11 -66q3 12 5 25z" />
    <glyph glyph-name="x" unicode="x" horiz-adv-x="688" 
d="M514 510q-11 -21 -56 -92q-46 -71 -104 -156l-14 -21q7 -16 13 -32q23 -63 43 -110q19 -46 35 -51q29 -10 66 31q38 41 74 100q20 32 37 66q18 33 32 63q9 3 19 3q9 0 18 -6q-8 -22 -21 -48q-12 -27 -27 -56q-29 -52 -65 -105q-37 -54 -79 -91q-34 -30 -70 -44
q-20 -8 -40 -8q-16 0 -32 5q-23 7 -42 25q-18 18 -34 44q-18 28 -32 64q-32 -44 -59 -78q-35 -45 -50 -54t-27 -9q-14 0 -25 12q-14 16 -14 31q0 8 4 16q12 -2 28 9q17 11 37 32q37 40 83 106l1 1q-7 24 -13 49q-15 60 -25 115q-11 55 -19 90q-5 19 -9 30t-9 12
q-11 2 -28 -25t-33 -61q-11 -23 -20 -45l-15 -35q-9 -3 -20 -2q-10 0 -19 4q7 15 19 43q13 28 29 59q23 47 53 86q28 37 55 37q2 0 5 -1q37 -4 71 -52q33 -48 62 -113l17 -40q34 53 67 104q37 58 67 102q11 11 32 11h3q23 -1 31 -15z" />
    <glyph glyph-name="y" unicode="y" horiz-adv-x="586" 
d="M167 475q-5 -40 -9 -83q-3 -43 -4 -84q-3 -76 2 -132q5 -55 20 -55q22 -1 46 51t40 123q8 40 13 81t5 79q2 15 7 24q6 10 15 15q26 15 62 -5q36 -19 39 -59q-5 -2 -7 -16t-4 -36q-2 -43 -1 -110q0 -68 -2 -145q0 -8 -1 -15q16 18 33 37q35 40 66 82t52 84q11 3 20 4
q10 1 21 -3q-23 -49 -56 -96t-69 -91q-35 -41 -69 -79v-26q-3 -52 -8 -102q-10 -91 -33 -161t-66 -91q-28 -13 -51 -13h-5q-24 2 -40 17q-30 27 -28 89t42 133q25 45 84 105q1 53 0 100v70q-4 -18 -21 -50q-19 -33 -47 -58q-15 -13 -33 -21q-17 -8 -36 -8q-40 0 -66 19
q-26 20 -40 53q-16 33 -21 77t-5 88v3q0 30 1 59q2 30 4 56q4 50 6 86q2 35 -6 42q13 25 56 26h1q42 0 70 -23q9 -8 16 -18q6 -10 7 -23zM232 -138q-31 -62 -14 -92q17 -31 31 -25q12 5 19 42q6 36 9 88q2 27 3 57q-34 -40 -48 -70z" />
    <glyph glyph-name="z" unicode="z" horiz-adv-x="420" 
d="M53 539q2 -19 51 -23q50 -3 109 -1q48 2 91 5q44 4 61 4q40 3 45 -36q1 -8 1 -15q0 -29 -15 -50q-67 -72 -141 -161q-74 -88 -103 -190q10 -4 49 -2t85 2q25 0 49 -1q25 -1 45 -4q18 -30 13 -63q-6 -34 -51 -36q-9 6 -61 10q-53 4 -117 5q-34 1 -68 1t-63 -1
q-20 -1 -20 28v3q1 33 16 50q22 30 49 67q28 36 57 74q53 69 97 128q43 59 45 71q-70 -12 -121 -2t-87 28q-30 16 -32 62q-2 45 16 47z" />
    <glyph glyph-name="braceleft" unicode="{" horiz-adv-x="321" 
d="M282 -198q-20 0 -43 8t-45 22q-42 26 -73 67q-32 42 -33 84q0 34 5 65t13 60q15 54 31 100q15 46 10 86q-7 41 -48 88q-41 46 -87 63q35 29 68 71q34 43 37 82q-2 29 -22 67t-33 82q-7 24 -9 50t5 53q8 32 45 73q36 41 78 67q23 14 45 22q16 5 29 5q6 0 12 -1
q17 -2 23 -13t-1 -29q-21 3 -38 -3q-18 -6 -33 -18q-27 -22 -45 -55q-17 -33 -23 -54q-10 -38 7 -77t35 -78q9 -20 16 -41q6 -21 5 -42q-1 -24 -9 -44q-8 -19 -20 -36q-21 -30 -47 -48t-33 -26l21 -9q14 -7 31 -17q31 -19 63 -50q32 -32 39 -76q4 -24 0 -52t-12 -57
q-15 -54 -35 -106q-19 -51 -18 -81q2 -57 23 -107q21 -49 79 -48q9 -13 9 -25q0 -3 -1 -7q-3 -15 -19 -15h-2z" />
    <glyph glyph-name="bar" unicode="|" horiz-adv-x="896" 
d="M421 582q77 -11 154 -3q77 9 136 37q31 16 56 37q24 22 39 49q12 23 15 48q3 24 -1 47q-8 43 -39 76q-30 33 -71 42q-17 4 -29 3q-11 -2 -17 -8q-18 -16 1 -46t44 -15q13 -9 12 -35q-1 -27 -31 -40q-30 1 -50 11t-32 25q-22 30 -15 71q7 40 38 65q18 13 41 19q12 3 24 3
q14 0 29 -3q25 -6 50 -20q25 -15 46 -37q39 -40 55 -101q5 -19 5 -39q0 -44 -24 -91q-35 -72 -116 -119q-81 -46 -181 -65q-53 -10 -109 -11q-56 -2 -111 6q-20 3 -40 7q-7 -19 -15 -38q-42 -100 -79 -181q-12 -1 -22 -1h-6l-13 1q22 46 45 98q23 51 42 103q5 14 9 28
q-40 12 -77 30q-72 34 -119 93q-29 36 -40 71q-11 31 -11 59q0 4 1 8q3 61 46 101t98 40q30 -1 60 -15t56 -46q35 -42 48 -91t10 -101q-2 -25 -5 -50q44 -15 93 -22zM245 822q-31 37 -66 14t-37 -66q0 -14 4 -29q5 -15 16 -30q41 -52 111 -85q7 -4 15 -7q4 24 6 48
q6 92 -49 155z" />
    <glyph glyph-name="braceright" unicode="}" horiz-adv-x="327" 
d="M55 1027q21 1 44 -7t45 -22q42 -26 73 -68q31 -41 32 -84q1 -33 -4 -64q-6 -31 -14 -61q-14 -53 -30 -99q-16 -47 -10 -87q7 -40 48 -87t86 -63q-34 -29 -67 -72q-34 -43 -38 -81q2 -16 9 -34q7 -19 17 -39q17 -38 31 -84q15 -45 2 -96q-8 -31 -44 -72t-79 -68
q-22 -14 -45 -21q-15 -5 -28 -5q-7 0 -13 1q-16 2 -22 13t1 29q20 -3 38 3t32 18q28 22 46 55q17 32 23 53q10 39 -7 78q-18 38 -35 77q-10 21 -16 42t-5 41q1 24 9 44t20 36q21 30 47 48q25 18 33 27q-13 5 -47 23q-34 17 -64 48q-15 16 -27 37q-12 20 -16 44q-4 23 0 51
t12 58q15 54 35 105q19 52 18 82q-2 57 -23 106q-22 50 -79 49q-9 12 -9 25q0 3 1 6q3 15 19 15h1z" />
    <glyph glyph-name="asciitilde" unicode="~" horiz-adv-x="530" 
d="M18 304q2 33 17 78q14 44 47 75q17 17 40 27q23 11 53 11h1q26 0 49 -13q24 -13 44 -32q38 -37 68 -78t55 -42q39 -2 55 24t13 47q5 16 26 14q20 -2 26 -18v-5q0 -15 -14 -44q-16 -36 -45 -64q-12 -12 -26 -20q-14 -9 -28 -11q-16 -2 -30 -2q-41 0 -72 21q-42 29 -74 57
q-17 15 -33 26q-16 10 -31 10q-30 -1 -52 -26q-23 -25 -32 -50q-13 -10 -31 -7q-19 3 -26 22z" />
    <glyph glyph-name="exclamdown" unicode="&#xa1;" horiz-adv-x="238" 
d="M31 592q4 12 12 20q7 8 17 13q20 10 42 10q12 0 24 -2q37 -8 44 -31q-5 -10 -1 -40q3 -30 10 -75q11 -82 20 -202t-18 -245q-22 -60 -65 -65q-4 -1 -9 -1q-34 0 -47 36q18 187 8 331t-37 251zM173 846q1 -19 -18 -36q-14 -12 -28 -15q-4 -1 -8 -1h-2q-29 2 -63 16t-36 42
v4q0 25 29 43q30 18 56 18h4q24 -1 44 -24t22 -47z" />
    <glyph glyph-name="cent" unicode="&#xa2;" horiz-adv-x="354" 
d="M166 775q17 15 42 16h2q23 0 34 -18q-5 -15 -14 -103q-4 -29 -7 -61q34 -6 58 -35q31 -39 21 -79q-4 -16 -28 -13q-23 4 -26 26q7 18 -11 33q-10 7 -20 11q-3 -37 -6 -77q-4 -46 -7 -92t-6 -88q-2 -26 -3 -50q19 -2 37 8q32 18 37 71q12 9 21 10q10 2 16 -2q11 -8 14 -27
q1 -7 1 -13q0 -12 -3 -22q-7 -20 -20 -35q-14 -15 -32 -24q-28 -15 -65 -15h-7v-34q0 -54 7 -59q-6 -35 -32 -35h-1q-25 0 -35 25q-3 12 -3 45q0 24 1 59v13q-12 6 -24 15q-25 17 -45 45q-19 27 -29 66q-9 37 -9 70v12q2 38 14 69q22 57 69 90q23 16 47 24q3 48 6 88
q3 31 4 54q1 22 2 32zM121 503q-36 -54 -12 -154q9 -35 24 -58l2 -4q3 47 6 98q3 76 9 152q-15 -13 -29 -34z" />
    <glyph glyph-name="sterling" unicode="&#xa3;" horiz-adv-x="476" 
d="M321 481q12 -14 16 -41q1 -7 1 -12q0 -19 -10 -30q-17 12 -69 14h-40q5 -82 11 -161q6 -100 7 -171q24 8 46 10q23 3 44 2q40 -1 69 -7q30 -6 42 -1q15 -16 15 -28q0 -5 -3 -10q-11 -15 -29 -21q-26 9 -60 11q-33 2 -69 0q-66 -2 -124 -7q-58 -4 -70 12q1 9 1 30v51
q-2 55 -5 136q-2 56 -2 116v34q-25 -1 -42 -1q-17 4 -28 22q-8 10 -8 20q0 6 3 11q3 7 10 11q8 5 20 7q22 1 46 2q4 77 13 152q11 101 43 164q17 34 41 53q23 19 54 19h2q22 0 43 -9t38 -24q33 -28 49 -71q17 -44 6 -86q-16 -13 -37 -19q-20 -6 -34 23q12 10 8 57
q-5 48 -29 79q-8 10 -19 17q-10 6 -24 6q-12 1 -20 -15t-12 -45q-8 -54 -6 -142q1 -74 6 -155h27h8q24 0 43 -1q18 0 28 -2z" />
    <glyph glyph-name="currency" unicode="&#xa4;" 
d="M454 583q23 15 46 16q9 0 19 -3q27 -6 27 -22q0 -3 -2 -7q-11 -13 -41 -39l-14 -12q10 -14 17 -31q12 -30 16 -64q1 -14 1 -29q0 -50 -17 -104q-13 -38 -32 -69q7 -7 14 -13q36 -35 48 -35q1 -4 1 -8q0 -5 -2 -10q-3 -9 -8 -16q-17 -20 -49 -25q-6 -1 -12 -1
q-23 1 -32 16q-5 6 -20 26q-12 -8 -25 -14q-28 -13 -61 -14h-5q-90 0 -151 31q-10 -22 -18 -43q-29 -18 -55 -18q-9 0 -18 2q-26 7 -26 27q0 4 1 9q19 39 46 77q-48 55 -50 132v9q0 44 12 82q13 42 36 75q4 7 9 13q-46 49 -62 51q-4 8 -4 16v2q1 9 5 16q11 20 42 24h8
q26 0 44 -19q12 -16 26 -35q20 13 43 23q42 18 84 18q25 0 50 -7q7 -3 11 -7q5 -4 6 -10q4 -12 -3 -25q36 4 64 -4q8 -3 15 -6q10 13 16 25zM462 329q10 39 9 77q-1 39 -18 66l-6 8q-7 -6 -15 -13q-25 -23 -54 -50q-22 -20 -44 -43q8 -8 16 -17q28 -33 54 -62q15 -18 29 -34
q18 32 29 68zM206 216q43 -41 115 -40q32 0 60 21q-26 33 -59 75q-18 23 -38 47q-32 -37 -60 -76q-10 -14 -19 -27h1zM293 551q-23 -4 -44 -17q-15 -9 -28 -23q35 -44 73 -88l4 -6q22 20 43 40q30 29 55 54q-21 5 -49 2q-14 14 -11 34v3q-21 5 -43 1zM161 324q1 -20 5 -37
q8 10 18 19q31 31 61 60q-11 14 -22 27q-23 27 -45 52q-20 -50 -17 -121z" />
    <glyph glyph-name="yen" unicode="&#xa5;" horiz-adv-x="549" 
d="M442 430q25 -9 26 -27q0 -2 -1 -4q-2 -20 -26 -30q-58 -5 -108 -7v-71q20 -1 43 -1q40 0 93 1q18 -8 28 -34q4 -11 4 -22q0 -15 -9 -29q-5 4 -19 7q-14 2 -34 4q-38 2 -89 2q-9 0 -18 -1q0 -77 -1 -174q-6 -14 -20 -15q-11 0 -29 10q-37 22 -47 42q12 14 10 70
q-2 31 -4 65h-86q-41 0 -56 4q-4 13 -5 33v4q0 17 10 29q52 10 92 10h8q13 -1 29 -1q-2 23 -3 46q-1 11 -2 21q-2 1 -4 1q-88 4 -146 0q-25 2 -25 20q0 6 2 13q10 29 30 42q74 -9 120 -18q2 -1 4 -1q-7 9 -16 24q-19 31 -40 69q-33 58 -67 113t-57 57v4q0 14 4 27
q4 15 12 28q19 28 49 37q30 8 51 -18q12 -24 27 -55q15 -32 30 -67q28 -63 53 -119q26 -56 38 -66q2 3 7 13q6 11 14 28q15 31 36 78q22 46 43 94q23 49 42 92q19 42 29 64q10 6 21 6q17 0 35 -15q23 -19 23 -34q0 -5 -2 -8q-16 -43 -37 -86t-44 -83q-43 -74 -81 -127
q-31 -43 -42 -60q15 2 32 4q32 3 73 11z" />
    <glyph glyph-name="section" unicode="&#xa7;" horiz-adv-x="376" 
d="M51 182q16 8 31 -1t22 -17q-16 -31 -2 -62q15 -31 42 -33q12 -1 25 6q12 7 25 24q17 22 17 51q-1 26 -10 56q-34 0 -64 15q-25 11 -43 29q-17 19 -20 45q15 18 25 17l10 -1q4 -25 29 -40q22 -13 46 -15q-16 42 -40 89q-38 72 -54 141q-10 45 -2 87q3 22 15 41
q-17 45 -20 90q-2 46 22 88q13 24 32 41q20 16 41 26q29 12 58 12q12 0 24 -2q41 -8 61 -41q12 -22 12 -54v-2q0 -33 -20 -78q-14 -1 -23 2q-10 4 -17 13q17 51 2 85q-16 35 -45 27q-12 -4 -26 -17q-13 -12 -27 -37q-26 -48 -8 -102q8 1 18 1h4q40 -1 70 -13q7 -17 -5 -33
t-19 -25q-13 20 -42 19h-4q20 -42 46 -86q20 -34 39 -69q19 -34 31 -68q14 -41 10 -81q-3 -37 -31 -71q4 -15 7 -30q4 -21 4 -42q0 -17 -3 -33q-6 -37 -34 -68q-29 -32 -57 -45q-26 -12 -49 -12h-6q-39 3 -69 31q-29 28 -38 64q-4 14 -4 27q0 7 1 13q2 20 13 38zM252 358
q-27 51 -68 113q-21 31 -41 64q9 -29 29 -66q25 -44 52 -93q20 -39 38 -78q8 25 -10 60z" />
    <glyph glyph-name="dieresis" unicode="&#xa8;" horiz-adv-x="392" 
d="M88 926h4q26 0 55 -18q32 -19 30 -47q-3 -28 -37 -42q-18 -8 -35 -12q-14 -3 -27 -3h-2q-18 0 -36 15q-17 15 -17 33v2q2 25 21 48q20 23 44 24zM209 877v3q0 18 18 33q18 16 37 16h2q29 -1 63 -15q34 -15 37 -44v-4q0 -25 -30 -43t-56 -18h-4q-25 1 -45 24
q-20 24 -22 48z" />
    <glyph glyph-name="copyright" unicode="&#xa9;" horiz-adv-x="622" 
d="M383 775q9 -4 15 -10q5 -5 7 -11q4 -15 -3 -30q42 4 76 -6q36 -11 61 -35q26 -25 41 -61q14 -36 18 -78q2 -18 2 -36q0 -61 -20 -126q-27 -83 -81 -137q-28 -28 -62 -44t-74 -17h-5q-152 0 -239 74q-88 74 -92 189v14q0 102 50 177q53 81 131 117q42 20 87 25q14 2 28 2
q31 0 60 -7zM320 702q-28 -5 -53 -21q-47 -29 -79 -93q-32 -65 -28 -162q4 -82 55 -132t140 -48q58 0 105 57q46 57 66 129q13 48 11 94q-1 47 -22 80q-17 28 -48 42q-32 14 -80 8q-18 17 -14 42v3q-26 6 -53 1zM421 542q-7 -11 -27 -8q-21 3 -23 20q11 8 4 25t-25 16
q-32 -1 -59 -46q-28 -46 -3 -123q9 -29 21 -45q11 -16 22 -22q22 -12 40 4q19 17 24 44q27 20 41 -7q7 -16 8 -29q0 -9 -4 -17q-18 -37 -66 -53q-23 -9 -45 -9q-23 0 -45 9q-24 9 -42 30t-27 55q-12 50 -12 91q1 55 21 94q36 67 122 67h5q31 -1 60 -33q29 -33 10 -63z" />
    <glyph glyph-name="" unicode="&#xad;" horiz-adv-x="377" 
d="M67 447q47 3 103 5q50 1 92 1h8h43q18 -1 28 -2q12 -15 16 -42q1 -6 1 -12q0 -19 -10 -30q-17 12 -71 9q-53 -3 -109 -9q-30 -3 -57 -6q-28 -3 -47 -4q-31 0 -38 27q-2 7 -2 15q0 17 11 31q6 6 14 11t18 6z" />
    <glyph glyph-name="registered" unicode="&#xae;" horiz-adv-x="528" 
d="M304 858q8 -3 12 -8q4 -4 6 -9q4 -12 -2 -24q35 3 63 -6q29 -9 50 -28q21 -21 33 -51t16 -65q1 -14 1 -28q0 -51 -17 -105q-22 -68 -66 -113q-23 -23 -51 -36q-29 -14 -62 -14h-5q-125 0 -196 61q-72 61 -75 156v11q0 85 41 147q44 66 108 96q34 16 71 21q13 1 25 1
q24 0 48 -6zM252 798q-23 -4 -44 -17q-38 -24 -65 -77q-26 -53 -23 -134q3 -67 45 -108q43 -41 116 -40q32 0 60 22q28 23 49 57q31 50 40 114q9 63 -17 104q-14 23 -40 35q-26 11 -66 6q-15 14 -11 35v2q-21 5 -44 1zM234 738v-7q0 -4 1 -12q5 8 31 19t43 -6q11 -11 15 -23
q3 -12 2 -24q-2 -27 -23 -50q-20 -22 -31 -27q10 -2 17 -8q8 -7 13 -16q16 -29 21 -68q4 -39 17 -39v-3q0 -17 -27 -23q-10 -2 -19 -2q-14 0 -21 7q-8 10 -9 52q-2 43 -14 61q-4 7 -10 8q-3 1 -8 -1v-17q0 -60 8 -66q-4 -10 -26 -10q-22 1 -30 12q-2 8 -3 38v67q1 44 2 85
q2 40 4 47q3 17 20 17h2q19 -1 25 -11zM263 656q10 25 1 39q-5 7 -17 4q-12 -4 -15 -11v-60q23 6 31 28z" />
    <glyph glyph-name="macron" unicode="&#xaf;" 
d="M510 887q13 -15 16 -42q1 -6 1 -12q0 -19 -10 -30q-10 7 -51 9q-40 1 -93 -1q-29 -1 -60 -2q-31 -2 -61 -4q-58 -3 -107 -7t-70 -5q-31 1 -38 27q-3 8 -3 15q0 17 12 31q5 6 13 11t19 6q28 2 78 4q49 1 104 2q63 1 121 1q19 0 37 -1q76 0 92 -2z" />
    <glyph glyph-name="degree" unicode="&#xb0;" horiz-adv-x="276" 
d="M172 908q6 -6 5 -25q25 -3 43 -17q21 -17 32 -43q10 -26 10 -56q0 -14 -2 -29q-8 -46 -39 -74q-13 -11 -30 -18q-17 -6 -38 -6h-1q-59 0 -100 30q-41 29 -44 88v9q0 66 43 111q32 35 80 35q19 0 41 -5zM118 835q-18 -20 -18 -61q0 -29 12 -47q11 -18 36 -17q22 1 36 42
q14 40 -2 61q-4 5 -10 8q-7 3 -15 2q-5 6 -3 22q-22 5 -36 -10z" />
    <glyph glyph-name="acute" unicode="&#xb4;" horiz-adv-x="231" 
d="M84 773q-6 -1 -13 -1q-12 0 -21 6q-15 8 -19 32q7 38 18 69q12 30 45 71q17 4 32 4q30 0 51 -14q32 -23 40 -49q-19 4 -39 -20t-42 -51q-12 -15 -25 -27q-13 -13 -27 -20z" />
    <glyph glyph-name="mu" unicode="&#xb5;" horiz-adv-x="487" 
d="M69 -286q-3 36 -3 100q0 17 1 37q1 91 3 193q1 54 3 107q1 54 2 103q2 90 1 152t-8 65q9 19 22 29q13 11 27 15q28 7 54 -4t33 -30q-5 -59 -16 -179q-2 -32 6 -81q8 -48 26 -86q13 -26 30 -43q16 -16 37 -16q23 0 30 72q6 72 10 165q1 50 4 100t8 92q11 10 25 16
q13 6 28 9q10 1 19 1q17 1 34 -5q24 -8 30 -29q-5 -12 -8 -54l-7 -98q-3 -30 -6 -62q-4 -32 -9 -63q-8 -50 -21 -94t-33 -74q-15 -22 -34 -34q-20 -13 -44 -13q-27 1 -47 11t-35 26q-27 29 -39 65q-11 36 -14 47q-1 -8 -3 -61q-3 -53 -4 -121q-2 -55 -2 -110q0 -54 3 -95
q1 -21 3 -37t5 -23q-18 -24 -51 -24h-3q-36 1 -57 31z" />
    <glyph glyph-name="paragraph" unicode="&#xb6;" horiz-adv-x="459" 
d="M428 755q7 -8 7 -16q0 -5 -4 -11q-9 -13 -17 -23q-30 9 -72 7t-84 -12q-16 -4 -30 -8q13 -4 26 -13q3 -70 8 -135q11 7 17 17q14 -25 14 -54q1 -29 -8 -42q-6 -5 -15 -9q5 -41 11 -80q19 -138 19 -234q-9 -24 -31 -33q-4 -2 -9 -2q-18 0 -37 22q0 8 -1 25q-1 18 -2 43
q-3 47 -9 114q-5 61 -11 126q-17 -3 -34 -3q-39 0 -75 16q-27 12 -48 36q-20 25 -27 65q-3 13 -3 26q0 25 10 46q15 31 45 55q23 19 55 32q31 14 66 24q65 18 131 22q30 2 54 2q31 0 54 -3zM320 640q16 25 37 39q9 6 17 6q10 0 18 -13q4 -8 6 -51q1 -44 2 -104q1 -32 2 -67
t3 -70q3 -81 12 -148q8 -66 27 -79q-2 -10 -6 -17q-5 -7 -11 -11q-10 -5 -21 -5q-12 0 -26 6q-28 12 -34 41q-12 84 -16 153t-5 142q-1 40 -2 84q-1 43 -3 94zM179 673q-16 -7 -31 -16q-47 -30 -42 -65q1 -9 6 -17t12 -15q11 -9 26 -15t31 -9q5 -1 11 -2l-3 35
q-5 57 -10 104z" />
    <glyph glyph-name="questiondown" unicode="&#xbf;" horiz-adv-x="407" 
d="M390 168v6q0 20 -25 39q-29 21 -49 -9q1 -15 -16 -40t-42 -45q-13 -10 -27 -18q-15 -8 -28 -9q-14 -2 -26 3q-12 4 -21 17q-12 16 -9 36q3 19 15 42q23 42 64 96q40 53 64 118q20 53 17 113q-3 61 -48 128q-11 16 -22 23q-9 6 -19 6h-2q-24 -1 -43 -32t-22 -62
q3 -11 7 -28q3 -17 5 -36q4 -35 0 -73q-4 -37 -23 -59q-37 -43 -78 -103q-42 -59 -47 -120q-1 -6 -1 -12q0 -27 10 -53q13 -32 47 -61q32 -27 69 -35q20 -5 41 -5q16 0 32 3q67 12 119 62t58 108zM224 892q21 -16 34 -49q5 -14 5 -25q0 -17 -11 -28q-13 -14 -33 -14
q-9 0 -20 4q-34 9 -56 26q-15 10 -20 34q-1 7 -1 13q0 15 9 25q16 17 45 22q8 2 16 2q18 0 32 -10z" />
    <glyph glyph-name="Agrave" unicode="&#xc0;" horiz-adv-x="589" 
d="M68 385q-21 5 -21 19q0 5 4 10q11 22 27 22q7 -2 16 -4q0 2 1 3q15 56 32 111q30 100 63 188q33 87 64 138q9 17 22 25q14 8 30 10h7q27 0 57 -18q33 -19 54 -53q8 -77 19 -186q10 -108 22 -220q7 -58 13 -114q6 -57 12 -107q12 -92 21 -153q10 -61 16 -63q9 -3 15 2
q5 5 5 17q14 -11 15 -43v-2q0 -30 -20 -50q-9 -8 -22 -13q-9 -2 -19 -2q-7 0 -14 1q-55 7 -90 60t-55 132q-11 42 -19 90q-7 47 -11 97q-5 50 -8 100q-29 -1 -58 -1h-36q-13 -59 -25 -118q-20 -97 -33 -165q-7 -36 -12 -60q-4 -25 -5 -32q-8 -13 -19 -18q-11 -6 -24 -6
q-28 -1 -54 20q-26 20 -28 40q7 52 22 126t35 157q7 29 14 59q-6 0 -13 1zM199 1037q8 26 40 49q21 14 50 14q16 0 33 -4q33 -41 45 -71q11 -30 18 -69q-5 -24 -19 -32q-9 -6 -22 -6q-6 0 -13 2q-13 6 -26 19q-13 12 -25 27q-23 27 -43 51t-38 20zM303 520q0 104 3 175
q4 71 0 73q-2 -2 -7 -15q-4 -14 -11 -37q-11 -43 -28 -112q-16 -69 -33 -148l-7 -29q32 1 67 3h16q-1 47 0 90z" />
    <glyph glyph-name="Aacute" unicode="&#xc1;" horiz-adv-x="589" 
d="M68 385q-21 5 -21 19q0 5 4 10q11 22 27 22q7 -2 16 -4q0 2 1 3q15 56 32 111q30 100 63 188q33 87 64 138q9 17 22 25q14 8 30 10h7q27 0 57 -18q33 -19 54 -53q8 -77 19 -186q10 -108 22 -220q7 -58 13 -114q6 -57 12 -107q12 -92 21 -153q10 -61 16 -63q9 -3 15 2
q5 5 5 17q14 -11 15 -43v-2q0 -30 -20 -50q-9 -8 -22 -13q-9 -2 -19 -2q-7 0 -14 1q-55 7 -90 60t-55 132q-11 42 -19 90q-7 47 -11 97q-5 50 -8 100q-29 -1 -58 -1h-36q-13 -59 -25 -118q-20 -97 -33 -165q-7 -36 -12 -60q-4 -25 -5 -32q-8 -13 -19 -18q-11 -6 -24 -6
q-28 -1 -54 20q-26 20 -28 40q7 52 22 126t35 157q7 29 14 59q-6 0 -13 1zM308 924q-7 -1 -13 -1q-12 0 -22 6q-14 8 -19 32q7 38 19 69q11 30 44 71q17 4 33 4q29 0 50 -15q32 -22 40 -48q-18 3 -38 -21t-43 -51q-12 -14 -25 -26q-12 -13 -26 -20zM303 520q0 104 3 175
q4 71 0 73q-2 -2 -7 -15q-4 -14 -11 -37q-11 -43 -28 -112q-16 -69 -33 -148l-7 -29q32 1 67 3h16q-1 47 0 90z" />
    <glyph glyph-name="Acircumflex" unicode="&#xc2;" horiz-adv-x="589" 
d="M68 385q-21 5 -21 19q0 5 4 10q11 22 27 22q7 -2 16 -4q0 2 1 3q15 56 32 111q30 100 63 188q33 87 64 138q9 17 22 25q14 8 30 10h7q27 0 57 -18q33 -19 54 -53q8 -77 19 -186q10 -108 22 -220q7 -58 13 -114q6 -57 12 -107q12 -92 21 -153q10 -61 16 -63q9 -3 15 2
q5 5 5 17q14 -11 15 -43v-2q0 -30 -20 -50q-9 -8 -22 -13q-9 -2 -19 -2q-7 0 -14 1q-55 7 -90 60t-55 132q-11 42 -19 90q-7 47 -11 97q-5 50 -8 100q-29 -1 -58 -1h-36q-13 -59 -25 -118q-20 -97 -33 -165q-7 -36 -12 -60q-4 -25 -5 -32q-8 -13 -19 -18q-11 -6 -24 -6
q-28 -1 -54 20q-26 20 -28 40q7 52 22 126t35 157q7 29 14 59q-6 0 -13 1zM334 1094q6 -2 16 -12q10 -9 21 -20q18 -18 36 -35t27 -20v-7q0 -18 -13 -26q-16 -10 -31 3q-14 15 -26 41q-13 26 -20 33q-8 -6 -19 -47t-9 -56q-18 -7 -36 -7q-17 0 -35 7q-36 15 -37 33
q0 11 11 24q11 14 27 29q24 21 52 39q27 18 36 21zM303 520q0 104 3 175q4 71 0 73q-2 -2 -7 -15q-4 -14 -11 -37q-11 -43 -28 -112q-16 -69 -33 -148l-7 -29q32 1 67 3h16q-1 47 0 90z" />
    <glyph glyph-name="Atilde" unicode="&#xc3;" horiz-adv-x="589" 
d="M68 385q-21 5 -21 19q0 5 4 10q11 22 27 22q7 -2 16 -4q0 2 1 3q15 56 32 111q30 100 63 188q33 87 64 138q9 17 22 25q14 8 30 10h7q27 0 57 -18q33 -19 54 -53q8 -77 19 -186q10 -108 22 -220q7 -58 13 -114q6 -57 12 -107q12 -92 21 -153q10 -61 16 -63q9 -3 15 2
q5 5 5 17q14 -11 15 -43v-2q0 -30 -20 -50q-9 -8 -22 -13q-9 -2 -19 -2q-7 0 -14 1q-55 7 -90 60t-55 132q-11 42 -19 90q-7 47 -11 97q-5 50 -8 100q-29 -1 -58 -1h-36q-13 -59 -25 -118q-20 -97 -33 -165q-7 -36 -12 -60q-4 -25 -5 -32q-8 -13 -19 -18q-11 -6 -24 -6
q-28 -1 -54 20q-26 20 -28 40q7 52 22 126t35 157q7 29 14 59q-6 0 -13 1zM278 1072h5q14 0 26 -7q15 -7 27 -19q23 -22 39 -47q17 -25 30 -24q15 1 17 12q3 10 0 15q2 9 26 10q23 0 27 -9v-4q0 -12 -15 -41q-18 -34 -48 -40q-11 -3 -20 -3q-20 0 -36 10q-23 14 -42 28
q-10 7 -18 12q-9 5 -17 4q-17 -1 -24 -15t-6 -28q-11 -12 -45 -7q-33 4 -43 18q0 9 4 23q3 14 11 30q13 28 39 54q25 25 63 28zM303 520q0 104 3 175q4 71 0 73q-2 -2 -7 -15q-4 -14 -11 -37q-11 -43 -28 -112q-16 -69 -33 -148l-7 -29q32 1 67 3h16q-1 47 0 90z" />
    <glyph glyph-name="Adieresis" unicode="&#xc4;" horiz-adv-x="589" 
d="M68 385q-21 5 -21 19q0 5 4 10q11 22 27 22q7 -2 16 -4q0 2 1 3q15 56 32 111q30 100 63 188q33 87 64 138q9 17 22 25q14 8 30 10h7q27 0 57 -18q33 -19 54 -53q8 -77 19 -186q10 -108 22 -220q7 -58 13 -114q6 -57 12 -107q12 -92 21 -153q10 -61 16 -63q9 -3 15 2
q5 5 5 17q14 -11 15 -43v-2q0 -30 -20 -50q-9 -8 -22 -13q-9 -2 -19 -2q-7 0 -14 1q-55 7 -90 60t-55 132q-11 42 -19 90q-7 47 -11 97q-5 50 -8 100q-29 -1 -58 -1h-36q-13 -59 -25 -118q-20 -97 -33 -165q-7 -36 -12 -60q-4 -25 -5 -32q-8 -13 -19 -18q-11 -6 -24 -6
q-28 -1 -54 20q-26 20 -28 40q7 52 22 126t35 157q7 29 14 59q-6 0 -13 1zM303 520q0 104 3 175q4 71 0 73q-2 -2 -7 -15q-4 -14 -11 -37q-11 -43 -28 -112q-16 -69 -33 -148l-7 -29q32 1 67 3h16q-1 47 0 90zM325 1019v3q0 17 18 33q19 16 37 16q1 0 2 -1q29 -1 63 -15
t37 -43v-4q0 -25 -30 -44q-30 -18 -56 -18h-4q-25 1 -45 25q-20 23 -22 48zM204 1067h4q26 0 55 -18q30 -18 30 -42v-4q-3 -29 -36 -43q-34 -14 -63 -15h-2q-18 0 -36 16q-17 15 -17 32v3q2 24 22 47q19 23 43 24z" />
    <glyph glyph-name="Aring" unicode="&#xc5;" horiz-adv-x="589" 
d="M68 385q-21 5 -21 19q0 5 4 10q11 22 27 22q7 -2 16 -4q0 2 1 3q15 56 32 111q30 100 63 188q33 87 64 138q9 17 22 25q14 8 30 10h7q27 0 57 -18q33 -19 54 -53q8 -77 19 -186q10 -108 22 -220q7 -58 13 -114q6 -57 12 -107q12 -92 21 -153q10 -61 16 -63q9 -3 15 2
q5 5 5 17q14 -11 15 -43v-2q0 -30 -20 -50q-9 -8 -22 -13q-9 -2 -19 -2q-7 0 -14 1q-55 7 -90 60t-55 132q-11 42 -19 90q-7 47 -11 97q-5 50 -8 100q-29 -1 -58 -1h-36q-13 -59 -25 -118q-20 -97 -33 -165q-7 -36 -12 -60q-4 -25 -5 -32q-8 -13 -19 -18q-11 -6 -24 -6
q-28 -1 -54 20q-26 20 -28 40q7 52 22 126t35 157q7 29 14 59q-6 0 -13 1zM337 1108q2 0 2 -11q6 -1 11 -3q13 -4 21 -12q25 -22 25 -61q0 -38 -22 -63q-10 -11 -23 -17t-30 -6h-1q-55 0 -78 27q-24 26 -26 65v5q0 44 34 68q21 15 47 15q19 0 40 -7zM303 520q0 104 3 175
q4 71 0 73q-2 -2 -7 -15q-4 -14 -11 -37q-11 -43 -28 -112q-16 -69 -33 -148l-7 -29q32 1 67 3h16q-1 47 0 90zM302 1056q-12 -11 -10 -31q2 -19 9 -27q8 -7 24 -6q19 0 22 28t-31 27q-2 4 -1 14q-7 0 -13 -5z" />
    <glyph glyph-name="AE" unicode="&#xc6;" horiz-adv-x="917" 
d="M95 385q-22 5 -21 19q0 5 3 10q11 22 27 22q7 -2 16 -4q0 2 1 3q16 56 32 111q30 100 63 188q33 87 64 138q17 31 48 34q5 1 10 1q27 0 53 -15l16 -10q24 9 64 12q65 4 131 9q44 4 81 10t55 21h9q9 0 17 -2q10 -4 17 -11q19 -21 3 -58q-16 -38 -53 -47q-16 -7 -38 -9
q-21 -3 -44 -2q-43 0 -82 5q-39 4 -52 -3q0 -11 1 -36t2 -56q1 -46 1 -95q1 -49 -1 -76q38 9 83 17q44 7 69 19q39 -22 36 -57t-32 -44q-35 -11 -74 -13q-40 -1 -70 -8q2 -21 4 -60q1 -39 3 -84q3 -66 10 -125q8 -59 28 -68q18 -8 46 4t57 34q43 33 76 77t27 69q9 5 17 5
t14 -3q20 -9 26 -40q1 -8 1 -15q1 -21 -11 -39q-4 -8 -16 -26t-29 -42q-33 -44 -81 -94q-48 -51 -101 -77q-27 -13 -55 -16h-12h-7h-4h-12q-68 9 -106 80q-37 71 -55 170q-9 53 -14 110q-3 32 -5 64q-30 -1 -59 -1h-36q-12 -59 -25 -118q-20 -97 -33 -165q-7 -36 -12 -60
q-4 -25 -5 -32q-8 -13 -19 -18q-11 -6 -24 -6q-28 -1 -53 20q-26 20 -29 40q7 52 22 126t35 157q7 29 14 59q-6 0 -12 1zM329 432q-1 46 -1 89q0 44 1 83q2 71 4 116q2 46 -1 48q-2 -2 -7 -15q-4 -14 -11 -37q-11 -43 -28 -112q-16 -69 -33 -148q-3 -15 -7 -29q33 1 67 3h16
v2z" />
    <glyph glyph-name="Ccedilla" unicode="&#xc7;" horiz-adv-x="589" 
d="M220 -172q-1 5 -1 9q0 27 31 35q35 10 51 -10q2 -14 19 -25q18 -11 33 -6q7 3 12 9q6 6 9 18q4 18 1 30q-3 13 -10 22q-15 18 -42 37q-17 12 -32 33q-27 4 -54 14q-50 20 -94 65t-73 121q-24 63 -35 125q-12 62 -12 121v2q0 108 34 201q35 93 95 157q49 53 113 82
q56 25 119 25h16q28 -2 51 -13q24 -11 41 -29q31 -34 37 -83q5 -49 -22 -94q-11 -19 -38 -21q-27 -3 -47 11q-8 7 -14 16t-7 22q20 12 28 54q9 41 -5 69q-4 9 -12 15q-7 5 -18 7q-16 1 -34 -10q-18 -12 -35 -33q-32 -41 -60 -111q-27 -70 -40 -152q-11 -67 -9 -138
q1 -70 22 -133q21 -65 49 -105q29 -41 59 -59q56 -34 106 -6t61 90q26 21 47 -2q11 -12 11 -28t-11 -37q-14 -30 -37 -55q-22 -25 -49 -43q-40 -27 -88 -39q8 -8 18 -17q38 -34 52 -81q6 -16 6 -33q0 -10 -2 -20q-5 -28 -30 -57q-20 -22 -43 -32q-22 -10 -45 -11h-1
q-41 0 -76 27q-35 28 -45 66z" />
    <glyph glyph-name="Egrave" unicode="&#xc8;" horiz-adv-x="543" 
d="M225 788q-1 -12 -2 -36q-1 -25 -2 -56q-2 -46 -5 -96q-3 -49 -6 -75q38 6 83 11q45 4 70 14q38 -24 33 -59q-6 -34 -35 -42q-36 -9 -75 -7q-40 1 -71 -4q2 -21 0 -61q-1 -39 -2 -83q-1 -66 2 -125q4 -60 23 -70q18 -9 46 1q29 9 59 29q45 30 81 72t32 68q9 4 17 3
q8 0 14 -4q20 -10 23 -41q1 -5 1 -11q0 -24 -14 -43q-5 -7 -18 -24q-13 -18 -32 -40q-35 -42 -87 -89q-51 -48 -106 -69q-28 -11 -55 -13h-5q-25 0 -49 12q-35 18 -58 53q-22 34 -34 80q-17 64 -17 145v1q0 81 9 165q10 102 26 199q17 97 25 165q5 37 5 63q1 26 -5 37
q25 18 91 19h131q44 1 81 5t56 16q2 1 4 1q13 0 22 -4q10 -4 16 -12q18 -22 0 -58q-18 -37 -56 -43q-17 -6 -39 -7q-21 -1 -44 1q-43 3 -81 10q-39 7 -52 2zM171 1031q8 26 40 49q21 14 50 14q16 0 33 -4q33 -41 44 -71q12 -30 19 -69q-5 -23 -19 -32q-10 -5 -22 -6
q-6 0 -13 2q-13 6 -26 19q-13 12 -25 27q-23 27 -43 51t-38 20z" />
    <glyph glyph-name="Eacute" unicode="&#xc9;" horiz-adv-x="543" 
d="M225 788q-1 -12 -2 -36q-1 -25 -2 -56q-2 -46 -5 -96q-3 -49 -6 -75q38 6 83 11q45 4 70 14q38 -24 33 -59q-6 -34 -35 -42q-36 -9 -75 -7q-40 1 -71 -4q2 -21 0 -61q-1 -39 -2 -83q-1 -66 2 -125q4 -60 23 -70q18 -9 46 1q29 9 59 29q45 30 81 72t32 68q9 4 17 3
q8 0 14 -4q20 -10 23 -41q1 -5 1 -11q0 -24 -14 -43q-5 -7 -18 -24q-13 -18 -32 -40q-35 -42 -87 -89q-51 -48 -106 -69q-28 -11 -55 -13h-5q-25 0 -49 12q-35 18 -58 53q-22 34 -34 80q-17 64 -17 145v1q0 81 9 165q10 102 26 199q17 97 25 165q5 37 5 63q1 26 -5 37
q25 18 91 19h131q44 1 81 5t56 16q2 1 4 1q13 0 22 -4q10 -4 16 -12q18 -22 0 -58q-18 -37 -56 -43q-17 -6 -39 -7q-21 -1 -44 1q-43 3 -81 10q-39 7 -52 2zM253 916q-7 -1 -13 -1q-12 0 -22 6q-14 8 -19 31q8 39 19 70q11 30 44 71q18 4 33 4q29 0 50 -15q32 -22 40 -48
q-18 3 -38 -21t-43 -51q-12 -14 -24 -27q-13 -12 -27 -19z" />
    <glyph glyph-name="Ecircumflex" unicode="&#xca;" horiz-adv-x="543" 
d="M225 788q-1 -12 -2 -36q-1 -25 -2 -56q-2 -46 -5 -96q-3 -49 -6 -75q38 6 83 11q45 4 70 14q38 -24 33 -59q-6 -34 -35 -42q-36 -9 -75 -7q-40 1 -71 -4q2 -21 0 -61q-1 -39 -2 -83q-1 -66 2 -125q4 -60 23 -70q18 -9 46 1q29 9 59 29q45 30 81 72t32 68q9 4 17 3
q8 0 14 -4q20 -10 23 -41q1 -5 1 -11q0 -24 -14 -43q-5 -7 -18 -24q-13 -18 -32 -40q-35 -42 -87 -89q-51 -48 -106 -69q-28 -11 -55 -13h-5q-25 0 -49 12q-35 18 -58 53q-22 34 -34 80q-17 64 -17 145v1q0 81 9 165q10 102 26 199q17 97 25 165q5 37 5 63q1 26 -5 37
q25 18 91 19h131q44 1 81 5t56 16q2 1 4 1q13 0 22 -4q10 -4 16 -12q18 -22 0 -58q-18 -37 -56 -43q-17 -6 -39 -7q-21 -1 -44 1q-43 3 -81 10q-39 7 -52 2zM324 1061q6 -2 16 -11q10 -10 22 -21q17 -18 35 -35t27 -19v-8q0 -18 -13 -26q-16 -10 -31 3q-14 15 -26 41
q-13 26 -20 33q-7 -6 -19 -47q-11 -40 -9 -55q-18 -8 -36 -8q-17 0 -35 8q-35 14 -37 32v1q0 10 11 24t27 28q24 22 52 39q27 18 36 21z" />
    <glyph glyph-name="Edieresis" unicode="&#xcb;" horiz-adv-x="543" 
d="M225 788q-1 -12 -2 -36q-1 -25 -2 -56q-2 -46 -5 -96q-3 -49 -6 -75q38 6 83 11q45 4 70 14q38 -24 33 -59q-6 -34 -35 -42q-36 -9 -75 -7q-40 1 -71 -4q2 -21 0 -61q-1 -39 -2 -83q-1 -66 2 -125q4 -60 23 -70q18 -9 46 1q29 9 59 29q45 30 81 72t32 68q9 4 17 3
q8 0 14 -4q20 -10 23 -41q1 -5 1 -11q0 -24 -14 -43q-5 -7 -18 -24q-13 -18 -32 -40q-35 -42 -87 -89q-51 -48 -106 -69q-28 -11 -55 -13h-5q-25 0 -49 12q-35 18 -58 53q-22 34 -34 80q-17 64 -17 145v1q0 81 9 165q10 102 26 199q17 97 25 165q5 37 5 63q1 26 -5 37
q25 18 91 19h131q44 1 81 5t56 16q2 1 4 1q13 0 22 -4q10 -4 16 -12q18 -22 0 -58q-18 -37 -56 -43q-17 -6 -39 -7q-21 -1 -44 1q-43 3 -81 10q-39 7 -52 2zM299 1014q-1 1 -1 3q0 17 18 33q19 16 37 16h2q29 -2 63 -16q35 -14 37 -43v-4q0 -25 -30 -43q-30 -19 -56 -19h-4
q-24 1 -44 25q-20 23 -22 48zM178 1062q2 1 4 1q25 -1 55 -19q31 -19 29 -46q-2 -28 -36 -43q-28 -11 -52 -14q-5 -1 -10 -1h-2q-18 0 -36 16q-18 15 -18 32v3q2 24 22 47t44 24z" />
    <glyph glyph-name="Igrave" unicode="&#xcc;" horiz-adv-x="299" 
d="M251 38q-10 -31 -27 -50t-37 -29q-27 -14 -55 -14q-21 0 -43 8q-50 17 -58 48q0 7 1 27q2 19 4 48q5 53 12 132q7 78 15 166q5 57 9 115q5 58 8 111q7 100 9 173q2 72 -6 87q-1 14 4 27q5 12 15 21q17 17 43 22q9 2 17 2q16 0 29 -7q10 -6 18 -16q7 -10 9 -25
q7 -69 3 -180q-5 -110 -11 -226q-7 -113 -9 -216q-3 -103 7 -163q5 -33 16 -49q10 -17 27 -12zM32 1052q1 27 26 57q26 30 78 31q42 -31 61 -58q18 -26 35 -62v-5q0 -20 -10 -30q-12 -12 -33 -13q-15 3 -30 12q-16 8 -31 19q-29 21 -54 39q-26 18 -42 10z" />
    <glyph glyph-name="Iacute" unicode="&#xcd;" horiz-adv-x="299" 
d="M251 38q-10 -31 -27 -50t-37 -29q-27 -14 -55 -14q-21 0 -43 8q-50 17 -58 48q0 7 1 27q2 19 4 48q5 53 12 132q7 78 15 166q5 57 9 115q5 58 8 111q7 100 9 173q2 72 -6 87q-1 14 4 27q5 12 15 21q17 17 43 22q9 2 17 2q16 0 29 -7q10 -6 18 -16q7 -10 9 -25
q7 -69 3 -180q-5 -110 -11 -226q-7 -113 -9 -216q-3 -103 7 -163q5 -33 16 -49q10 -17 27 -12zM114 962h-1q-20 1 -33 11q-12 11 -12 35q14 37 30 64q17 28 57 62h9q46 0 71 -25q27 -28 30 -55q-17 7 -41 -13t-51 -43q-15 -12 -30 -22t-29 -14z" />
    <glyph glyph-name="Icircumflex" unicode="&#xce;" horiz-adv-x="299" 
d="M251 38q-10 -31 -27 -50t-37 -29q-27 -14 -55 -14q-21 0 -43 8q-50 17 -58 48q0 7 1 27q2 19 4 48q5 53 12 132q7 78 15 166q5 57 9 115q5 58 8 111q7 100 9 173q2 72 -6 87q-1 14 4 27q5 12 15 21q17 17 43 22q9 2 17 2q16 0 29 -7q10 -6 18 -16q7 -10 9 -25
q7 -69 3 -180q-5 -110 -11 -226q-7 -113 -9 -216q-3 -103 7 -163q5 -33 16 -49q10 -17 27 -12zM147 1100q6 -2 16 -11l21 -21q18 -18 36 -35t27 -19v-8q0 -18 -13 -26q-16 -10 -31 3q-14 15 -26 41q-13 26 -20 33q-8 -6 -19 -47q-11 -40 -9 -55q-18 -8 -36 -8t-35 8
q-36 14 -37 32v1q0 10 11 24t27 28q24 22 52 39q27 18 36 21z" />
    <glyph glyph-name="Idieresis" unicode="&#xcf;" horiz-adv-x="299" 
d="M251 38q-10 -31 -27 -50t-37 -29q-27 -14 -55 -14q-21 0 -43 8q-50 17 -58 48q0 7 1 27q2 19 4 48q5 53 12 132q7 78 15 166q5 57 9 115q5 58 8 111q7 100 9 173q2 72 -6 87q-1 14 4 27q5 12 15 21q17 17 43 22q9 2 17 2q16 0 29 -7q10 -6 18 -16q7 -10 9 -25
q7 -69 3 -180q-5 -110 -11 -226q-7 -113 -9 -216q-3 -103 7 -163q5 -33 16 -49q10 -17 27 -12zM46 1090h3q26 -1 56 -18q31 -20 29 -47q-2 -28 -36 -42q-30 -13 -55 -15q-4 -1 -8 -1h-1q-18 0 -36 16q-18 15 -18 32v3q2 24 22 47q19 23 44 25zM166 1041v3q0 17 18 33
q19 16 37 16h2q29 -1 63 -16q35 -14 37 -43v-4q0 -25 -30 -43q-30 -19 -56 -19h-4q-24 2 -45 25q-20 23 -22 48z" />
    <glyph glyph-name="Eth" unicode="&#xd0;" horiz-adv-x="629" 
d="M328 452q20 -12 31 -41q6 -14 6 -26t-6 -21q-4 -6 -11 -10q-7 -3 -17 -3q-19 1 -45 2q-19 0 -39 1q0 -48 -2 -94q-3 -66 -8 -128t-13 -114q-6 -17 -18 -27q-11 -11 -26 -16q-26 -10 -55 -2q-28 8 -40 31q13 14 13 89q1 74 -4 180q-2 37 -5 77q-23 -5 -36 -12q-7 3 -13 23
t-6 42q-1 2 -1 3q0 13 3 26t10 21q4 5 11 8q3 1 8 1q3 0 6 -1h11q-1 28 -3 57q-5 97 -9 190q-3 64 -3 117q0 25 1 48q10 18 36 20h9q21 0 43 -7q17 -6 31 -15q15 -9 22 -21q2 -14 4 -26t3 -23q45 41 122 44q77 2 143 -31q35 -18 62 -47q28 -28 40 -67q18 -54 18 -127
q0 -21 -1 -43q-7 -100 -34 -203q-14 -54 -33 -106t-42 -98q-42 -85 -93 -139q-51 -55 -102 -53h-4q-23 0 -35 28q-14 31 -12 70q1 26 11 51q9 25 27 42q20 -2 37 8q18 11 32 29q27 35 44 93q16 58 23 124q7 67 4 133q-4 67 -17 115q-31 108 -89 136q-58 27 -94 -16
q17 -103 22 -232q1 -28 1 -56q44 -2 82 -4z" />
    <glyph glyph-name="Ntilde" unicode="&#xd1;" horiz-adv-x="616" 
d="M14 814v3q0 12 5 20q4 9 13 14q10 4 22 4t26 -4q25 -6 49 -23q23 -17 31 -38q11 -26 19 -58t9 -76q2 8 18 44q16 38 44 80q14 23 32 44q17 21 37 37q19 14 40 22q15 6 31 6q6 0 11 -1q50 -6 79 -46t44 -101q15 -63 17 -143q3 -79 0 -160q-2 -53 -4 -103q-3 -51 -4 -95
q-3 -83 3 -136q6 -52 34 -49q6 -11 6 -22q0 -19 -16 -40q-24 -32 -69 -32h-4q-25 0 -55 16q-30 15 -62 51q-35 39 -36 142q-1 102 10 218q9 92 21 178q11 86 13 140q2 30 -1 48q-2 17 -10 19q-20 5 -44 -13t-47 -47q-34 -45 -59 -98q-24 -54 -22 -76q3 -34 4 -79
q2 -44 2 -93q0 -91 -3 -183q-4 -92 -13 -146q-7 -20 -38 -29q-32 -9 -60 9q-16 9 -27 28q-12 19 -16 50q-1 11 0 35q0 25 1 60q1 65 3 155t2 178q-1 112 -8 198q-7 85 -28 92zM299 1072q2 1 5 1q14 0 27 -7q14 -8 26 -19q23 -22 39 -47q17 -25 31 -24t17 12q2 10 -1 15
q3 10 26 10t27 -9v-4q0 -12 -15 -41q-17 -34 -48 -40q-9 -2 -18 -2q-7 0 -14 1q-15 3 -27 10q-24 12 -42 28q-17 16 -32 14q-17 -1 -24 -15t-5 -28q-12 -12 -45 -7q-34 4 -44 18q0 9 4 23t11 30q13 28 39 54q25 25 63 27z" />
    <glyph glyph-name="Ograve" unicode="&#xd2;" horiz-adv-x="685" 
d="M440 890q15 -13 12 -27q64 -7 108 -53q49 -51 75 -130q14 -43 22 -91q7 -48 9 -99v-20q0 -105 -27 -208q-28 -113 -86 -184q-32 -39 -71 -61t-86 -22h-1q-54 0 -103 12q-50 12 -92 35q-79 42 -128 114q-49 73 -53 165v21q0 34 4 70q5 47 16 95q21 90 62 173q41 84 99 140
q49 47 110 67q32 11 67 11q30 0 63 -8zM362 814q-33 -29 -62 -88q-15 -31 -28 -68q-13 -38 -24 -78q-16 -62 -25 -128q-9 -65 -8 -122q0 -31 9 -64q8 -32 23 -63q27 -56 69 -96q43 -40 86 -38q36 0 69 63t55 154q12 48 19 101q8 54 10 106q2 43 0 83q-1 41 -8 76
q-12 65 -40 106q-29 40 -79 38q-13 18 -13 35q-27 7 -53 -17zM274 1035q8 26 40 48q21 15 51 15q15 0 32 -4q33 -41 45 -72q11 -30 18 -69q-4 -23 -19 -32q-9 -5 -22 -5q-6 0 -12 1q-14 7 -27 19q-13 13 -25 27q-22 27 -42 51q-21 24 -39 21z" />
    <glyph glyph-name="Oacute" unicode="&#xd3;" horiz-adv-x="685" 
d="M440 890q15 -13 12 -27q64 -7 108 -53q49 -51 75 -130q14 -43 22 -91q7 -48 9 -99v-20q0 -105 -27 -208q-28 -113 -86 -184q-32 -39 -71 -61t-86 -22h-1q-54 0 -103 12q-50 12 -92 35q-79 42 -128 114q-49 73 -53 165v21q0 34 4 70q5 47 16 95q21 90 62 173q41 84 99 140
q49 47 110 67q32 11 67 11q30 0 63 -8zM362 814q-33 -29 -62 -88q-15 -31 -28 -68q-13 -38 -24 -78q-16 -62 -25 -128q-9 -65 -8 -122q0 -31 9 -64q8 -32 23 -63q27 -56 69 -96q43 -40 86 -38q36 0 69 63t55 154q12 48 19 101q8 54 10 106q2 43 0 83q-1 41 -8 76
q-12 65 -40 106q-29 40 -79 38q-13 18 -13 35q-27 7 -53 -17zM344 919q-6 -1 -13 -1q-12 0 -21 6q-15 8 -19 32q7 38 18 69q12 30 45 71q17 4 32 4q30 0 51 -15q32 -22 40 -48q-19 4 -39 -21q-20 -24 -42 -51q-12 -14 -25 -26q-13 -13 -27 -20z" />
    <glyph glyph-name="Ocircumflex" unicode="&#xd4;" horiz-adv-x="685" 
d="M440 890q15 -13 12 -27q64 -7 108 -53q49 -51 75 -130q14 -43 22 -91q7 -48 9 -99v-20q0 -105 -27 -208q-28 -113 -86 -184q-32 -39 -71 -61t-86 -22h-1q-54 0 -103 12q-50 12 -92 35q-79 42 -128 114q-49 73 -53 165v21q0 34 4 70q5 47 16 95q21 90 62 173q41 84 99 140
q49 47 110 67q32 11 67 11q30 0 63 -8zM362 814q-33 -29 -62 -88q-15 -31 -28 -68q-13 -38 -24 -78q-16 -62 -25 -128q-9 -65 -8 -122q0 -31 9 -64q8 -32 23 -63q27 -56 69 -96q43 -40 86 -38q36 0 69 63t55 154q12 48 19 101q8 54 10 106q2 43 0 83q-1 41 -8 76
q-12 65 -40 106q-29 40 -79 38q-13 18 -13 35q-27 7 -53 -17zM391 1084q6 -2 16 -12q10 -9 22 -20l35 -35q18 -17 27 -20q1 -4 1 -7q0 -19 -14 -27q-16 -9 -30 4q-15 15 -27 41q-12 25 -20 32q-7 -5 -18 -46t-10 -56q-18 -7 -35 -7q-18 0 -36 7q-35 15 -37 32v1q0 11 11 24
q11 14 27 29q25 21 52 39t36 21z" />
    <glyph glyph-name="Otilde" unicode="&#xd5;" horiz-adv-x="685" 
d="M440 890q15 -13 12 -27q64 -7 108 -53q49 -51 75 -130q14 -43 22 -91q7 -48 9 -99v-20q0 -105 -27 -208q-28 -113 -86 -184q-32 -39 -71 -61t-86 -22h-1q-54 0 -103 12q-50 12 -92 35q-79 42 -128 114q-49 73 -53 165v21q0 34 4 70q5 47 16 95q21 90 62 173q41 84 99 140
q49 47 110 67q32 11 67 11q30 0 63 -8zM362 814q-33 -29 -62 -88q-15 -31 -28 -68q-13 -38 -24 -78q-16 -62 -25 -128q-9 -65 -8 -122q0 -31 9 -64q8 -32 23 -63q27 -56 69 -96q43 -40 86 -38q36 0 69 63t55 154q12 48 19 101q8 54 10 106q2 43 0 83q-1 41 -8 76
q-12 65 -40 106q-29 40 -79 38q-13 18 -13 35q-27 7 -53 -17zM325 1076q3 1 6 1q14 0 26 -7q15 -7 27 -19q23 -21 40 -46q16 -25 30 -23q15 1 17 12q2 10 0 15q2 9 25 10q23 0 27 -8q1 -2 1 -4q0 -12 -15 -41q-17 -35 -48 -42q-32 -7 -56 7q-23 14 -42 27q-10 7 -19 12
q-8 5 -17 4q-16 -2 -23 -16q-6 -14 -5 -27q-9 -9 -30 -9h-15q-33 4 -43 18q0 18 11 49q12 31 36 55q13 13 30 22t37 10z" />
    <glyph glyph-name="Odieresis" unicode="&#xd6;" horiz-adv-x="685" 
d="M440 890q15 -13 12 -27q64 -7 108 -53q49 -51 75 -130q14 -43 22 -91q7 -48 9 -99v-20q0 -105 -27 -208q-28 -113 -86 -184q-32 -39 -71 -61t-86 -22h-1q-54 0 -103 12q-50 12 -92 35q-79 42 -128 114q-49 73 -53 165v21q0 34 4 70q5 47 16 95q21 90 62 173q41 84 99 140
q49 47 110 67q32 11 67 11q30 0 63 -8zM362 814q-33 -29 -62 -88q-15 -31 -28 -68q-13 -38 -24 -78q-16 -62 -25 -128q-9 -65 -8 -122q0 -31 9 -64q8 -32 23 -63q27 -56 69 -96q43 -40 86 -38q36 0 69 63t55 154q12 48 19 101q8 54 10 106q2 43 0 83q-1 41 -8 76
q-12 65 -40 106q-29 40 -79 38q-13 18 -13 35q-27 7 -53 -17zM408 1025q-1 2 -1 3q0 18 18 33q19 16 37 16h2q29 -1 63 -15q35 -14 37 -43v-4q0 -26 -30 -44t-56 -18h-4q-24 1 -44 24q-20 24 -22 48zM287 1074h3q26 0 56 -18q31 -19 29 -46q-2 -29 -36 -43q-25 -10 -46 -14
q-9 -1 -16 -1h-2q-18 0 -36 16q-18 15 -18 32v3q2 24 22 47t44 24z" />
    <glyph glyph-name="multiply" unicode="&#xd7;" horiz-adv-x="614" 
d="M92 598q-3 7 -3 13q1 20 29 28q10 2 21 2q30 0 65 -20q22 -63 57 -121q23 -38 48 -74l1 1q46 62 77 106q17 24 28 41q12 16 16 23q6 9 20 14q14 6 32 7q7 1 15 1q20 0 40 -4q29 -6 44 -21q6 -6 9 -13q2 -5 2 -11q0 -3 -1 -6q-7 1 -23 -12q-15 -12 -38 -34
q-41 -40 -99 -106q-29 -33 -58 -67q57 -67 115 -117q77 -67 101 -95q2 -5 2 -9q0 -18 -31 -25q-10 -3 -20 -3q-28 0 -54 18q-16 29 -45 63q-30 34 -68 72l-45 44q-7 -8 -14 -17q-49 -59 -94 -116q-46 -56 -80 -99q-20 -22 -50 -22h-8q-36 4 -50 28q-4 7 -5 17v2q0 9 5 20
q19 2 71 61t112 136l46 60l-40 44q-81 88 -130 191z" />
    <glyph glyph-name="Oslash" unicode="&#xd8;" horiz-adv-x="685" 
d="M138 22q-24 -26 -44 -36q-18 -9 -32 -9h-4q-29 3 -40 34q-6 17 -5 33q0 15 4 28q9 12 45 57q7 9 16 19l-6 8q-49 73 -53 165v21q0 34 4 70q5 47 16 95q21 90 62 173q41 84 99 140q49 47 110 67q32 11 67 11q30 0 63 -8q15 -13 12 -27q64 -7 107 -53q10 25 9 38
q20 23 47 28q6 1 11 1q19 -1 27 -15q5 -8 5 -20q0 -13 -6 -30q-14 -35 -39 -78q12 -25 22 -54q14 -43 22 -91q7 -48 9 -99v-20q0 -105 -27 -208q-28 -113 -86 -184q-32 -39 -71 -61t-86 -22h-1q-54 0 -103 12q-50 12 -92 35q-26 14 -49 31q-22 -40 -13 -51zM247 203
q27 -56 69 -96q43 -40 86 -38q36 0 69 63t55 154q12 48 19 101q8 54 10 106q2 43 0 83q-1 31 -5 59q-60 -87 -127 -180l-78 -104q-39 -52 -74 -100q-15 -20 -29 -39q3 -5 5 -9zM362 814q-33 -29 -62 -88q-15 -31 -28 -68q-13 -38 -24 -78q-16 -62 -25 -128q-9 -65 -8 -122
v-11q27 35 55 72q39 50 78 101q38 51 73 99q57 81 98 146q-6 11 -12 21q-29 40 -79 38q-13 18 -13 35q-27 7 -53 -17z" />
    <glyph glyph-name="Ugrave" unicode="&#xd9;" 
d="M542 59q3 -21 -2 -35q-4 -15 -14 -23q-16 -13 -39 -13q-9 0 -19 2q-35 8 -43 24q-11 27 -20 80q-8 52 -8 97q-2 -6 -17 -34t-41 -62q-14 -18 -31 -35q-17 -18 -36 -32q-24 -18 -50 -28q-27 -10 -56 -9q-50 3 -78 41q-28 37 -39 97q-15 72 -12 164q3 93 11 186q4 48 8 94
q5 46 7 86q5 74 1 121q-5 46 -31 44q-5 10 -5 21q0 20 17 41q24 29 65 30q4 0 9 -1q26 -2 55 -18q30 -16 60 -54q14 -17 21 -47t9 -69q3 -73 -9 -166q-11 -93 -25 -182q-11 -73 -21 -135q-9 -61 -11 -98q-1 -20 2 -31q2 -12 8 -12q23 -1 48 13q25 15 48 37q35 33 60 74
t25 64q1 32 1 79t1 100q1 99 5 201t15 155q8 20 39 27t58 -12q15 -11 25 -30q11 -20 14 -51v-6q0 -22 -4 -78q-5 -65 -11 -150q-3 -45 -7 -93q-3 -49 -5 -96q-5 -109 -2 -191q3 -83 24 -87zM210 1033q8 26 40 49q21 15 50 15q16 -1 33 -5q33 -40 44 -71q12 -30 19 -69
q-5 -23 -19 -32q-10 -5 -22 -5q-6 0 -13 1q-13 7 -26 19q-13 13 -25 27q-23 27 -43 51t-38 20z" />
    <glyph glyph-name="Uacute" unicode="&#xda;" 
d="M542 59q3 -21 -2 -35q-4 -15 -14 -23q-16 -13 -39 -13q-9 0 -19 2q-35 8 -43 24q-11 27 -20 80q-8 52 -8 97q-2 -6 -17 -34t-41 -62q-14 -18 -31 -35q-17 -18 -36 -32q-24 -18 -50 -28q-27 -10 -56 -9q-50 3 -78 41q-28 37 -39 97q-15 72 -12 164q3 93 11 186q4 48 8 94
q5 46 7 86q5 74 1 121q-5 46 -31 44q-5 10 -5 21q0 20 17 41q24 29 65 30q4 0 9 -1q26 -2 55 -18q30 -16 60 -54q14 -17 21 -47t9 -69q3 -73 -9 -166q-11 -93 -25 -182q-11 -73 -21 -135q-9 -61 -11 -98q-1 -20 2 -31q2 -12 8 -12q23 -1 48 13q25 15 48 37q35 33 60 74
t25 64q1 32 1 79t1 100q1 99 5 201t15 155q8 20 39 27t58 -12q15 -11 25 -30q11 -20 14 -51v-6q0 -22 -4 -78q-5 -65 -11 -150q-3 -45 -7 -93q-3 -49 -5 -96q-5 -109 -2 -191q3 -83 24 -87zM293 907q-7 -2 -13 -2q-12 1 -22 6q-14 9 -18 32q7 39 18 69t44 71q18 4 33 4
q29 0 50 -14q33 -23 40 -49q-18 4 -38 -20t-42 -51q-12 -15 -25 -27q-13 -13 -27 -19z" />
    <glyph glyph-name="Ucircumflex" unicode="&#xdb;" 
d="M542 59q3 -21 -2 -35q-4 -15 -14 -23q-16 -13 -39 -13q-9 0 -19 2q-35 8 -43 24q-11 27 -20 80q-8 52 -8 97q-2 -6 -17 -34t-41 -62q-14 -18 -31 -35q-17 -18 -36 -32q-24 -18 -50 -28q-27 -10 -56 -9q-50 3 -78 41q-28 37 -39 97q-15 72 -12 164q3 93 11 186q4 48 8 94
q5 46 7 86q5 74 1 121q-5 46 -31 44q-5 10 -5 21q0 20 17 41q24 29 65 30q4 0 9 -1q26 -2 55 -18q30 -16 60 -54q14 -17 21 -47t9 -69q3 -73 -9 -166q-11 -93 -25 -182q-11 -73 -21 -135q-9 -61 -11 -98q-1 -20 2 -31q2 -12 8 -12q23 -1 48 13q25 15 48 37q35 33 60 74
t25 64q1 32 1 79t1 100q1 99 5 201t15 155q8 20 39 27t58 -12q15 -11 25 -30q11 -20 14 -51v-6q0 -22 -4 -78q-5 -65 -11 -150q-3 -45 -7 -93q-3 -49 -5 -96q-5 -109 -2 -191q3 -83 24 -87zM335 1064q6 -3 16 -12t22 -21q17 -17 35 -34t27 -20v-7q0 -19 -13 -27
q-16 -9 -31 4q-14 15 -26 41q-13 25 -20 32q-7 -5 -19 -46q-11 -41 -9 -56q-18 -7 -36 -7q-17 0 -35 7q-35 15 -37 32v1q0 10 11 24t27 28q25 22 52 40t36 21z" />
    <glyph glyph-name="Udieresis" unicode="&#xdc;" 
d="M542 59q3 -21 -2 -35q-4 -15 -14 -23q-16 -13 -39 -13q-9 0 -19 2q-35 8 -43 24q-11 27 -20 80q-8 52 -8 97q-2 -6 -17 -34t-41 -62q-14 -18 -31 -35q-17 -18 -36 -32q-24 -18 -50 -28q-27 -10 -56 -9q-50 3 -78 41q-28 37 -39 97q-15 72 -12 164q3 93 11 186q4 48 8 94
q5 46 7 86q5 74 1 121q-5 46 -31 44q-5 10 -5 21q0 20 17 41q24 29 65 30q4 0 9 -1q26 -2 55 -18q30 -16 60 -54q14 -17 21 -47t9 -69q3 -73 -9 -166q-11 -93 -25 -182q-11 -73 -21 -135q-9 -61 -11 -98q-1 -20 2 -31q2 -12 8 -12q23 -1 48 13q25 15 48 37q35 33 60 74
t25 64q1 32 1 79t1 100q1 99 5 201t15 155q8 20 39 27t58 -12q15 -11 25 -30q11 -20 14 -51v-6q0 -22 -4 -78q-5 -65 -11 -150q-3 -45 -7 -93q-3 -49 -5 -96q-5 -109 -2 -191q3 -83 24 -87zM344 1016v2q0 18 18 33q18 16 36 16h2q29 -1 64 -15q34 -14 36 -43q1 -2 1 -4
q-1 -25 -30 -44q-31 -18 -57 -18h-3q-25 1 -45 25q-20 23 -22 48zM223 1064h4q25 0 55 -18q29 -18 29 -43v-3q-2 -29 -36 -43t-62 -15h-2q-18 0 -36 16q-18 15 -18 32v3q2 24 22 47t44 24z" />
    <glyph glyph-name="Yacute" unicode="&#xdd;" 
d="M202 805q4 -45 4 -109q-1 -64 -2 -130q-1 -35 -1 -69q0 -33 1 -62q3 -55 10 -90q8 -36 26 -35q45 0 80 70q35 71 54 162q11 49 16 99t5 92q12 46 51 53t64 -22q8 -9 13 -23q6 -14 6 -31q-9 -3 -11 -50q-3 -48 -5 -120q-2 -39 -3 -83q-2 -44 -4 -91l-4 -58q4 0 7 1
q16 -3 18 -20q2 -16 -14 -30q-7 0 -15 -1l-1 -6q-6 -57 -15 -109q-17 -97 -51 -164q-34 -66 -94 -68h-5q-40 0 -63 15q-25 15 -33 41q-16 50 20 126q37 75 100 133q12 11 25 21q3 49 4 93q1 55 1 82q-4 -22 -23 -62q-21 -40 -56 -71q-18 -17 -40 -28q-22 -10 -47 -11
q-49 -1 -81 24q-31 25 -50 67q-19 44 -28 101q-8 56 -11 115q-1 39 -2 76v71q0 62 -5 103q-4 41 -22 42q31 40 72 47q10 1 19 1q29 0 51 -16q16 -11 27 -30q10 -19 12 -46zM282 895q-7 -1 -13 -1q-13 0 -22 5q-14 9 -19 32q7 39 18 69q12 31 45 72q17 4 33 4q29 0 50 -15
q32 -22 40 -48q-18 3 -38 -21t-43 -51q-12 -14 -25 -27q-13 -12 -26 -19zM360 135q-15 -22 -28 -43q-13 -22 -22 -42q-17 -38 -20 -63q-2 -26 18 -26q12 0 22 12q9 11 17 31q14 37 22 97q3 27 6 55q-8 -10 -15 -21z" />
    <glyph glyph-name="germandbls" unicode="&#xdf;" horiz-adv-x="1930" 
d="M160 74q-17 1 -34 18t-3 35q34 -8 69 39q20 27 34 59q-21 4 -42 10q-61 18 -101 65q-19 21 -27 47q-6 22 -6 45v6q2 48 31 87q28 38 72 43q23 2 48 -7q26 -9 52 -33q30 -27 46 -65q16 -39 19 -82q2 -30 -3 -60q58 -6 113 29q37 24 74 63q-53 56 -91 123q-29 51 -46 105
q-16 54 -18 108q-1 66 16 113q18 47 47 75q23 24 53 35q28 11 58 11h1q57 0 108 -40t70 -116q15 -55 10 -110t-23 -108q-29 -84 -84 -155q16 -23 33 -43q54 -67 129 -85q28 -7 58 -4q-6 26 -10 53q-10 64 -1 129q9 64 40 121q19 34 42 54q24 20 48 26q27 7 52 1
q26 -6 49 -23q40 -30 58 -89q17 -60 -14 -132q-15 -36 -41 -67q-25 -30 -56 -54q-34 -25 -71 -42q5 -21 12 -41q11 -34 26 -63q24 -46 59 -79t79 -43q37 -9 73 0q35 8 67 28l6 4q-48 69 -71 145q-24 76 -7 145q10 43 31 71t47 42q49 26 103 6q55 -20 82 -78q14 -29 18 -68
q3 -39 -8 -85q-11 -44 -59 -111q-16 -22 -35 -42q2 -4 5 -8q33 -61 76 -111q45 -50 97 -79q51 -29 102 -19q62 11 101 61t59 121q11 38 17 80t8 86q1 52 -3 105q-5 52 -15 99q-19 86 -53 141q-35 54 -79 43q-19 15 -10 37q8 22 34 18q52 -6 91 -32q38 -25 63 -65
q22 -34 34 -76q13 -42 18 -89q4 -33 4 -68q0 -56 -9 -115q-16 -96 -50 -179q-36 -86 -89 -146q-52 -60 -117 -73q-15 -2 -30 -2q-44 0 -95 22q-69 30 -134 85q-35 29 -66 64q-18 20 -35 40l-10 -6q-38 -22 -82 -31q-43 -9 -90 2q-108 26 -181 124q-41 54 -64 114
q-54 -11 -97 -1q-102 23 -190 96q-8 6 -15 12q-48 -46 -96 -74q-29 -16 -63 -27q-33 -11 -68 -15q-5 -1 -9 -1q-7 -21 -17 -41q-40 -78 -124 -108zM629 591q15 47 19 93q3 47 -8 88q-20 69 -60 77t-63 -32q-10 -17 -15 -42t-1 -57q5 -48 17 -98q11 -50 29 -96q11 -30 25 -57
q37 59 57 124zM978 356q44 41 63 88q11 26 13 49q2 22 -3 38q-10 39 -44 41q-33 3 -61 -44q-29 -47 -36 -111q-6 -54 0 -109q36 18 68 48zM1334 156q41 59 52 101q9 28 7 51q-1 22 -8 37q-17 36 -51 30q-35 -5 -46 -61q-4 -24 -2 -52q3 -29 11 -60q9 -33 22 -66q8 10 15 20z
M261 373q1 48 -22 72q-19 19 -33 25q-15 5 -25 2q-25 -8 -28 -48q-3 -41 14 -61q33 -41 85 -64q9 38 9 74z" />
    <glyph glyph-name="agrave" unicode="&#xe0;" horiz-adv-x="730" 
d="M381 489q6 29 39 29h11q42 -6 60 -39q5 -10 6 -24t-5 -30q-17 -17 -34 -86q-16 -70 -27 -153q-5 -35 -9 -70q-3 -35 -5 -68q-3 -59 0 -101q3 -41 15 -45q22 -7 64 56q41 63 84 145q28 55 54 109q25 54 42 92q10 4 21 4t20 -2q-18 -41 -46 -105q-27 -64 -61 -129
q-18 -34 -37 -67q-19 -32 -39 -61q-37 -52 -75 -82q-27 -21 -53 -21q-10 0 -20 3q-34 11 -55 37q-21 25 -32 57q-20 60 -16 129t10 101q-3 -1 -18 -30q-15 -28 -40 -59q-14 -17 -30 -31q-17 -15 -35 -24q-23 -11 -49 -10q-26 0 -54 20q-38 26 -46 77q-4 21 -4 43q0 32 8 67
q7 32 19 65q12 32 28 62q30 57 72 98q42 42 87 49q11 2 27 2t33 -2q31 -3 60 -14q15 -6 24 -14q4 14 6 22zM335 436q-18 0 -36 -9q-29 -14 -54 -47q-25 -32 -43 -70q-27 -57 -33 -113q-7 -55 20 -69q22 -12 56 45q35 57 67 130q26 59 45 113q3 7 5 14q-13 6 -27 6zM216 662
q7 26 40 49q21 14 50 14q15 0 33 -4q33 -41 44 -71t18 -69q-4 -24 -18 -32q-5 -3 -10 -4q-6 -2 -12 -2t-13 2q-14 6 -27 19q-13 12 -25 27q-22 27 -42 51t-38 20z" />
    <glyph glyph-name="aacute" unicode="&#xe1;" horiz-adv-x="730" 
d="M381 489q6 29 39 29h11q42 -6 60 -39q5 -10 6 -24t-5 -30q-17 -17 -34 -86q-16 -70 -27 -153q-5 -35 -9 -70q-3 -35 -5 -68q-3 -59 0 -101q3 -41 15 -45q22 -7 64 56q41 63 84 145q28 55 54 109q25 54 42 92q10 4 21 4t20 -2q-18 -41 -46 -105q-27 -64 -61 -129
q-18 -34 -37 -67q-19 -32 -39 -61q-37 -52 -75 -82q-27 -21 -53 -21q-10 0 -20 3q-34 11 -55 37q-21 25 -32 57q-20 60 -16 129t10 101q-3 -1 -18 -30q-15 -28 -40 -59q-14 -17 -30 -31q-17 -15 -35 -24q-23 -11 -49 -10q-26 0 -54 20q-38 26 -46 77q-4 21 -4 43q0 32 8 67
q7 32 19 65q12 32 28 62q30 57 72 98q42 42 87 49q11 2 27 2t33 -2q31 -3 60 -14q15 -6 24 -14q4 14 6 22zM335 436q-18 0 -36 -9q-29 -14 -54 -47q-25 -32 -43 -70q-27 -57 -33 -113q-7 -55 20 -69q22 -12 56 45q35 57 67 130q26 59 45 113q3 7 5 14q-13 6 -27 6zM289 530
q-6 -1 -12 -1q-13 0 -22 5q-15 9 -19 32q7 39 18 69q12 31 45 71q17 5 32 5q30 0 51 -15q32 -22 40 -48q-18 3 -39 -21q-20 -24 -42 -51q-12 -14 -25 -27q-13 -12 -27 -19z" />
    <glyph glyph-name="acircumflex" unicode="&#xe2;" horiz-adv-x="730" 
d="M381 489q6 29 39 29h11q42 -6 60 -39q5 -10 6 -24t-5 -30q-17 -17 -34 -86q-16 -70 -27 -153q-5 -35 -9 -70q-3 -35 -5 -68q-3 -59 0 -101q3 -41 15 -45q22 -7 64 56q41 63 84 145q28 55 54 109q25 54 42 92q10 4 21 4t20 -2q-18 -41 -46 -105q-27 -64 -61 -129
q-18 -34 -37 -67q-19 -32 -39 -61q-37 -52 -75 -82q-27 -21 -53 -21q-10 0 -20 3q-34 11 -55 37q-21 25 -32 57q-20 60 -16 129t10 101q-3 -1 -18 -30q-15 -28 -40 -59q-14 -17 -30 -31q-17 -15 -35 -24q-23 -11 -49 -10q-26 0 -54 20q-38 26 -46 77q-4 21 -4 43q0 32 8 67
q7 32 19 65q12 32 28 62q30 57 72 98q42 42 87 49q11 2 27 2t33 -2q31 -3 60 -14q15 -6 24 -14q4 14 6 22zM335 436q-18 0 -36 -9q-29 -14 -54 -47q-25 -32 -43 -70q-27 -57 -33 -113q-7 -55 20 -69q22 -12 56 45q35 57 67 130q26 59 45 113q3 7 5 14q-13 6 -27 6zM347 709
q6 -2 16 -11l21 -21q18 -18 36 -35t27 -20q3 -24 -13 -33q-5 -3 -10 -4q-11 -2 -21 7q-14 15 -26 41q-13 26 -20 33q-8 -6 -19 -47t-9 -55q-18 -8 -36 -8q-17 0 -35 7q-36 15 -37 33q0 11 11 24q11 15 27 29q24 21 52 39q27 18 36 21z" />
    <glyph glyph-name="atilde" unicode="&#xe3;" horiz-adv-x="730" 
d="M381 489q6 29 39 29h11q42 -6 60 -39q5 -10 6 -24t-5 -30q-17 -17 -34 -86q-16 -70 -27 -153q-5 -35 -9 -70q-3 -35 -5 -68q-3 -59 0 -101q3 -41 15 -45q22 -7 64 56q41 63 84 145q28 55 54 109q25 54 42 92q10 4 21 4t20 -2q-18 -41 -46 -105q-27 -64 -61 -129
q-18 -34 -37 -67q-19 -32 -39 -61q-37 -52 -75 -82q-27 -21 -53 -21q-10 0 -20 3q-34 11 -55 37q-21 25 -32 57q-20 60 -16 129t10 101q-3 -1 -18 -30q-15 -28 -40 -59q-14 -17 -30 -31q-17 -15 -35 -24q-23 -11 -49 -10q-26 0 -54 20q-38 26 -46 77q-4 21 -4 43q0 32 8 67
q7 32 19 65q12 32 28 62q30 57 72 98q42 42 87 49q11 2 27 2t33 -2q31 -3 60 -14q15 -6 24 -14q4 14 6 22zM301 697h3q16 0 28 -7q15 -8 27 -19q22 -23 38 -48t30 -24q15 1 17 12q2 10 0 15q3 9 26 9t27 -8q3 -11 -15 -45t-49 -40h-2q-8 -2 -17 -2q-20 0 -37 10
q-23 14 -41 28q-10 7 -19 12q-8 6 -17 5q-16 -1 -23 -15t-7 -28q-11 -11 -44 -7q-34 5 -43 19q0 17 12 48q13 31 38 54q13 13 30 22q17 8 38 9zM335 436q-18 0 -36 -9q-29 -14 -54 -47q-25 -32 -43 -70q-27 -57 -33 -113q-7 -55 20 -69q22 -12 56 45q35 57 67 130
q26 59 45 113q3 7 5 14q-13 6 -27 6z" />
    <glyph glyph-name="adieresis" unicode="&#xe4;" horiz-adv-x="730" 
d="M381 489q6 29 39 29h11q42 -6 60 -39q5 -10 6 -24t-5 -30q-17 -17 -34 -86q-16 -70 -27 -153q-5 -35 -9 -70q-3 -35 -5 -68q-3 -59 0 -101q3 -41 15 -45q22 -7 64 56q41 63 84 145q28 55 54 109q25 54 42 92q10 4 21 4t20 -2q-18 -41 -46 -105q-27 -64 -61 -129
q-18 -34 -37 -67q-19 -32 -39 -61q-37 -52 -75 -82q-27 -21 -53 -21q-10 0 -20 3q-34 11 -55 37q-21 25 -32 57q-20 60 -16 129t10 101q-3 -1 -18 -30q-15 -28 -40 -59q-14 -17 -30 -31q-17 -15 -35 -24q-23 -11 -49 -10q-26 0 -54 20q-38 26 -46 77q-4 21 -4 43q0 32 8 67
q7 32 19 65q12 32 28 62q30 57 72 98q42 42 87 49q11 2 27 2t33 -2q31 -3 60 -14q15 -6 24 -14q4 14 6 22zM335 436q-18 0 -36 -9q-29 -14 -54 -47q-25 -32 -43 -70q-27 -57 -33 -113q-7 -55 20 -69q22 -12 56 45q35 57 67 130q26 59 45 113q3 7 5 14q-13 6 -27 6zM352 628
v3q0 17 18 33t37 16h2q29 -2 63 -16t37 -43q2 -28 -30 -47q-23 -14 -43 -18q-7 -1 -13 -1h-4q-25 1 -45 25q-20 23 -22 48zM231 676h4q26 0 55 -18q32 -19 30 -46q-3 -28 -35 -42q-1 0 -2 -1q-33 -14 -62 -15h-2q-18 0 -36 16q-17 15 -17 32v3q2 24 21 47q20 23 44 24z" />
    <glyph glyph-name="aring" unicode="&#xe5;" horiz-adv-x="730" 
d="M381 489q6 29 39 29h11q42 -6 60 -39q5 -10 6 -24t-5 -30q-17 -17 -34 -86q-16 -70 -27 -153q-5 -35 -9 -70q-3 -35 -5 -68q-3 -59 0 -101q3 -41 15 -45q22 -7 64 56q41 63 84 145q28 55 54 109q25 54 42 92q10 4 21 4t20 -2q-18 -41 -46 -105q-27 -64 -61 -129
q-18 -34 -37 -67q-19 -32 -39 -61q-37 -52 -75 -82q-27 -21 -53 -21q-10 0 -20 3q-34 11 -55 37q-21 25 -32 57q-20 60 -16 129t10 101q-3 -1 -18 -30q-15 -28 -40 -59q-14 -17 -30 -31q-17 -15 -35 -24q-23 -11 -49 -10q-26 0 -54 20q-38 26 -46 77q-4 21 -4 43q0 32 8 67
q7 32 19 65q12 32 28 62q30 57 72 98q42 42 87 49q11 2 27 2t33 -2q31 -3 60 -14q15 -6 24 -14q4 14 6 22zM335 436q-18 0 -36 -9q-29 -14 -54 -47q-25 -32 -43 -70q-27 -57 -33 -113q-7 -55 20 -69q22 -12 56 45q35 57 67 130q26 59 45 113q3 7 5 14q-13 6 -27 6zM350 708
q2 0 2 -11q8 -2 16 -5q13 -6 23 -17q21 -25 17 -63q-3 -38 -29 -61q-9 -7 -20 -12q-2 0 -3 -1q-10 -3 -22 -3h-1q-55 0 -79 27q-23 26 -25 66v4q0 44 34 68q20 15 47 15q18 0 40 -7zM315 656q-13 -11 -11 -31q3 -19 10 -26q7 -8 24 -7q18 1 22 28q3 28 -31 27q-2 4 -1 14
q-8 0 -13 -5z" />
    <glyph glyph-name="ae" unicode="&#xe6;" horiz-adv-x="900" 
d="M595 526q44 0 71 -27t31 -65q2 -21 -3 -44q-5 -22 -17 -44q-20 -33 -60 -62q-28 -20 -66 -33q-1 -46 3 -92q5 -57 16 -95q6 -20 15 -34q8 -13 17 -16q38 -13 84 36t87 116q22 37 41 73t33 66q10 3 19 2q9 0 18 -6q-16 -40 -45 -96q-28 -56 -67 -110q-20 -29 -44 -55
q-23 -26 -48 -46q-39 -32 -83 -45q-20 -6 -41 -7q-24 0 -48 8q-38 12 -64 36q-27 23 -43 54q-2 3 -4 7q-2 -52 14 -69q-22 -17 -52 -24q-9 -2 -19 -2q-20 0 -41 11q-7 51 -8 115q-2 64 3 90q-3 -2 -18 -31q-16 -29 -41 -60q-14 -17 -30 -31q-17 -15 -35 -24q-24 -11 -50 -10
t-54 20q-38 26 -46 78q-4 21 -4 43q0 32 8 68q6 33 19 65q12 33 28 63q31 57 73 99t87 49q12 2 28 2t33 -2q32 -3 61 -14q14 -6 23 -14q5 14 7 22q6 30 39 30q5 0 11 -1q40 -5 58 -34q22 17 46 28q27 12 58 12zM337 438q-19 0 -37 -9q-29 -15 -55 -47q-25 -33 -43 -71
q-27 -58 -34 -114q-6 -56 21 -70q22 -12 57 46q35 57 67 130q26 60 46 114q3 8 5 15q-13 6 -27 6zM574 297q27 17 44 38q31 39 30 78q0 40 -23 38q-33 -2 -51 -56q-16 -48 -21 -109q11 5 21 11z" />
    <glyph glyph-name="ccedilla" unicode="&#xe7;" horiz-adv-x="558" 
d="M120 -207q-1 5 -1 9q0 27 30 35q35 10 52 -11q2 -13 19 -24t33 -6q6 3 12 9q5 6 8 17q9 35 -7 50q-15 16 -40 36q-12 10 -25 23q-18 1 -38 7q-55 17 -89 53t-49 83q-13 39 -14 83q-1 7 -1 14q0 37 7 75q15 82 59 157t106 113q17 11 39 11q15 0 32 -6q42 -12 51 -40
q3 -9 1 -19q-3 -11 -12 -22q-30 13 -50 -38q-21 -51 -30 -124q-4 -32 -6 -65q-1 -33 0 -63q1 -58 12 -100q11 -43 32 -50q38 -13 88 40q51 53 96 124q24 39 45 77q20 38 34 68q10 2 19 2q10 0 19 -6q-17 -41 -46 -99q-30 -58 -70 -114q-21 -30 -45 -57t-50 -49
q-27 -22 -56 -35q8 -8 18 -17q38 -34 53 -81q5 -16 5 -33q0 -10 -2 -20q-4 -28 -30 -57q-20 -23 -42 -33q-23 -10 -45 -10h-1q-42 0 -76 27q-35 28 -45 66z" />
    <glyph glyph-name="egrave" unicode="&#xe8;" horiz-adv-x="565" 
d="M248 532q24 0 44 -8q19 -9 32 -23q26 -27 29 -69q3 -41 -22 -82q-20 -35 -60 -64q-28 -21 -68 -34q0 -21 1 -42q0 -31 3 -60q5 -54 18 -93q12 -40 31 -46q38 -14 85 37q47 50 89 118q22 37 42 74q19 37 33 67q10 3 19 3t19 -6q-17 -41 -46 -99q-29 -57 -68 -111
q-21 -30 -45 -56q-23 -27 -49 -48q-40 -31 -84 -45q-21 -7 -43 -7q-24 0 -49 8q-38 12 -65 36t-44 56q-24 45 -30 101q-3 24 -3 48q0 33 5 66q6 38 17 74q12 36 28 68q31 60 77 98q47 39 104 39zM133 675q7 26 39 48q21 15 51 15q15 0 33 -4q33 -41 44 -71q11 -31 18 -69
q-4 -24 -19 -32q-9 -6 -21 -6q-7 0 -13 1q-14 7 -27 19q-13 13 -25 27q-22 27 -42 51t-38 21zM227 300q27 17 44 38q32 40 31 80q0 40 -23 38q-34 -2 -52 -57q-16 -49 -21 -110q11 5 21 11z" />
    <glyph glyph-name="eacute" unicode="&#xe9;" horiz-adv-x="565" 
d="M248 532q24 0 44 -8q19 -9 32 -23q26 -27 29 -69q3 -41 -22 -82q-20 -35 -60 -64q-28 -21 -68 -34q0 -21 1 -42q0 -31 3 -60q5 -54 18 -93q12 -40 31 -46q38 -14 85 37q47 50 89 118q22 37 42 74q19 37 33 67q10 3 19 3t19 -6q-17 -41 -46 -99q-29 -57 -68 -111
q-21 -30 -45 -56q-23 -27 -49 -48q-40 -31 -84 -45q-21 -7 -43 -7q-24 0 -49 8q-38 12 -65 36t-44 56q-24 45 -30 101q-3 24 -3 48q0 33 5 66q6 38 17 74q12 36 28 68q31 60 77 98q47 39 104 39zM236 560q-6 -2 -13 -2q-12 0 -21 6q-15 8 -19 32q7 39 18 69t45 71q17 4 32 4
q30 0 51 -14q32 -23 40 -49q-19 4 -39 -20t-42 -51q-12 -15 -25 -27q-13 -13 -27 -19zM227 300q27 17 44 38q32 40 31 80q0 40 -23 38q-34 -2 -52 -57q-16 -49 -21 -110q11 5 21 11z" />
    <glyph glyph-name="ecircumflex" unicode="&#xea;" horiz-adv-x="565" 
d="M248 532q24 0 44 -8q19 -9 32 -23q26 -27 29 -69q3 -41 -22 -82q-20 -35 -60 -64q-28 -21 -68 -34q0 -21 1 -42q0 -31 3 -60q5 -54 18 -93q12 -40 31 -46q38 -14 85 37q47 50 89 118q22 37 42 74q19 37 33 67q10 3 19 3t19 -6q-17 -41 -46 -99q-29 -57 -68 -111
q-21 -30 -45 -56q-23 -27 -49 -48q-40 -31 -84 -45q-21 -7 -43 -7q-24 0 -49 8q-38 12 -65 36t-44 56q-24 45 -30 101q-3 24 -3 48q0 33 5 66q6 38 17 74q12 36 28 68q31 60 77 98q47 39 104 39zM251 700q5 -3 16 -12q10 -9 21 -21q18 -18 36 -35q17 -17 27 -19v-8
q0 -18 -13 -26q-16 -9 -31 3q-14 16 -27 41q-12 26 -19 33q-8 -6 -19 -46q-11 -41 -9 -56q-18 -7 -36 -7t-35 7q-36 14 -37 32v1q0 10 10 24q11 14 28 28q24 22 51 40q28 17 37 21zM227 300q27 17 44 38q32 40 31 80q0 40 -23 38q-34 -2 -52 -57q-16 -49 -21 -110
q11 5 21 11z" />
    <glyph glyph-name="edieresis" unicode="&#xeb;" horiz-adv-x="565" 
d="M248 532q24 0 44 -8q19 -9 32 -23q26 -27 29 -69q3 -41 -22 -82q-20 -35 -60 -64q-28 -21 -68 -34q0 -21 1 -42q0 -31 3 -60q5 -54 18 -93q12 -40 31 -46q38 -14 85 37q47 50 89 118q22 37 42 74q19 37 33 67q10 3 19 3t19 -6q-17 -41 -46 -99q-29 -57 -68 -111
q-21 -30 -45 -56q-23 -27 -49 -48q-40 -31 -84 -45q-21 -7 -43 -7q-24 0 -49 8q-38 12 -65 36t-44 56q-24 45 -30 101q-3 24 -3 48q0 33 5 66q6 38 17 74q12 36 28 68q31 60 77 98q47 39 104 39zM270 642v3q0 17 18 33t36 16h2q29 -2 64 -16q34 -14 36 -43q1 -2 1 -4
q-1 -25 -30 -43q-31 -19 -57 -19h-3q-25 1 -45 25q-20 23 -22 48zM149 690h4q25 0 55 -18q32 -19 29 -46q-2 -29 -36 -43q-24 -10 -46 -13q-8 -2 -16 -2h-2q-18 0 -36 16q-18 15 -18 32v3q2 24 22 47t44 24zM227 300q27 17 44 38q32 40 31 80q0 40 -23 38q-34 -2 -52 -57
q-16 -49 -21 -110q11 5 21 11z" />
    <glyph glyph-name="igrave" unicode="&#xec;" horiz-adv-x="449" 
d="M195 425q1 -21 -3 -64q-5 -43 -11 -93q-6 -49 -9 -97q-4 -48 0 -80q2 -18 7 -29q4 -12 13 -15q28 -10 66 32q38 41 74 100q19 32 37 66q18 33 32 63q9 2 19 3q9 0 18 -6q-16 -41 -44 -94q-27 -54 -62 -104q-19 -27 -39 -51q-21 -24 -42 -43q-34 -29 -70 -43
q-19 -7 -38 -7q-17 0 -33 5q-29 9 -44 34q-15 24 -21 58q-5 29 -5 62q0 9 1 18q1 43 6 87q10 82 20 150q11 67 -6 78q7 29 48 35q9 1 16 1q31 0 52 -19q9 -8 14 -20q4 -12 4 -27zM14 670q8 26 40 49q21 14 50 14q16 0 33 -4q33 -41 44 -71q12 -31 19 -69q-5 -24 -19 -32
q-10 -6 -22 -6q-6 0 -13 2q-13 6 -26 19q-13 12 -25 27q-23 27 -43 51t-38 20z" />
    <glyph glyph-name="iacute" unicode="&#xed;" horiz-adv-x="449" 
d="M195 425q1 -21 -3 -64q-5 -43 -11 -93q-6 -49 -9 -97q-4 -48 0 -80q2 -18 7 -29q4 -12 13 -15q28 -10 66 32q38 41 74 100q19 32 37 66q18 33 32 63q9 2 19 3q9 0 18 -6q-16 -41 -44 -94q-27 -54 -62 -104q-19 -27 -39 -51q-21 -24 -42 -43q-34 -29 -70 -43
q-19 -7 -38 -7q-17 0 -33 5q-29 9 -44 34q-15 24 -21 58q-5 29 -5 62q0 9 1 18q1 43 6 87q10 82 20 150q11 67 -6 78q7 29 48 35q9 1 16 1q31 0 52 -19q9 -8 14 -20q4 -12 4 -27zM119 549q-6 -2 -13 -2q-12 0 -21 6q-15 8 -19 32q7 39 18 69q12 30 45 71q17 4 32 4
q30 0 51 -14q32 -23 40 -49q-19 4 -39 -20t-42 -51q-12 -15 -25 -27q-13 -13 -27 -19z" />
    <glyph glyph-name="icircumflex" unicode="&#xee;" horiz-adv-x="449" 
d="M195 425q1 -21 -3 -64q-5 -43 -11 -93q-6 -49 -9 -97q-4 -48 0 -80q2 -18 7 -29q4 -12 13 -15q28 -10 66 32q38 41 74 100q19 32 37 66q18 33 32 63q9 2 19 3q9 0 18 -6q-16 -41 -44 -94q-27 -54 -62 -104q-19 -27 -39 -51q-21 -24 -42 -43q-34 -29 -70 -43
q-19 -7 -38 -7q-17 0 -33 5q-29 9 -44 34q-15 24 -21 58q-5 29 -5 62q0 9 1 18q1 43 6 87q10 82 20 150q11 67 -6 78q7 29 48 35q9 1 16 1q31 0 52 -19q9 -8 14 -20q4 -12 4 -27zM139 686q6 -3 16 -12q11 -9 22 -21l36 -34q17 -17 26 -20q1 -4 1 -7q0 -19 -14 -27
q-16 -9 -30 4q-14 15 -27 41q-12 25 -20 32q-7 -5 -18 -46t-10 -56q-17 -7 -35 -7t-36 7q-35 15 -37 32v1q0 10 11 24t27 28q25 22 52 40t36 21z" />
    <glyph glyph-name="idieresis" unicode="&#xef;" horiz-adv-x="449" 
d="M195 425q1 -21 -3 -64q-5 -43 -11 -93q-6 -49 -9 -97q-4 -48 0 -80q2 -18 7 -29q4 -12 13 -15q28 -10 66 32q38 41 74 100q19 32 37 66q18 33 32 63q9 2 19 3q9 0 18 -6q-16 -41 -44 -94q-27 -54 -62 -104q-19 -27 -39 -51q-21 -24 -42 -43q-34 -29 -70 -43
q-19 -7 -38 -7q-17 0 -33 5q-29 9 -44 34q-15 24 -21 58q-5 29 -5 62q0 9 1 18q1 43 6 87q10 82 20 150q11 67 -6 78q7 29 48 35q9 1 16 1q31 0 52 -19q9 -8 14 -20q4 -12 4 -27zM22 662h4q26 0 55 -18t30 -42q0 -2 -1 -4q-2 -29 -36 -43t-62 -15h-2q-18 0 -36 16
q-18 15 -18 32q0 1 1 3q2 24 21 47q20 23 44 24zM143 614v2q0 18 18 34t36 16q1 0 2 -1q29 -1 64 -15q34 -14 37 -43v-4q0 -25 -30 -44q-30 -18 -57 -18h-3q-25 1 -45 25q-20 23 -22 48z" />
    <glyph glyph-name="ntilde" unicode="&#xf1;" horiz-adv-x="698" 
d="M11 496q11 10 27 12t34 -1q25 -5 48 -19q22 -14 26 -31q0 -19 2 -58q6 10 32 44q25 34 62 59q20 14 43 21q14 4 28 4q9 0 19 -1q47 -9 65 -79t22 -157q3 -70 2 -138t2 -113q1 -25 4 -40q4 -15 10 -17q22 -8 60 45q39 54 75 120q25 44 45 85t30 64q10 3 20 4q9 0 19 -8
q-11 -25 -35 -75q-23 -50 -54 -104q-17 -28 -35 -56t-36 -52q-35 -45 -71 -70q-25 -18 -49 -18q-10 0 -20 3q-38 13 -60 42q-23 29 -35 68q-13 41 -16 88q-3 48 -1 96q4 88 14 157t-2 72q-22 6 -51 -26t-51 -75q-15 -29 -24 -58q-9 -28 -9 -48q1 -57 3 -170q-12 -25 -41 -38
q-29 -12 -56 -5q-15 3 -27 14q-13 10 -20 28q0 38 3 84q2 46 5 94q5 88 6 163q2 75 -13 90zM202 704h7q13 0 24 -5q15 -7 28 -18q24 -20 42 -44t31 -22q15 2 17 12q1 11 -2 16q2 9 26 10q23 2 27 -7q1 -2 1 -5q-1 -12 -13 -40q-16 -35 -46 -44q-32 -8 -56 5q-24 12 -44 25
q-10 7 -19 11q-9 5 -17 3q-16 -2 -22 -16q-7 -14 -5 -28q-9 -11 -34 -11q-5 0 -10 1q-34 2 -44 15v3q0 18 9 46q11 32 34 57q12 14 29 23q16 10 37 13z" />
    <glyph glyph-name="ograve" unicode="&#xf2;" horiz-adv-x="607" 
d="M183 552q17 5 31 5q28 0 44 -17q19 -21 14 -39q8 4 18 7q49 15 82 -10q33 -24 50 -73q9 -26 13 -57q5 -31 5 -65q0 -41 -6 -84q-2 -9 -3 -18q12 3 24 7q38 14 65 39q27 24 36 43q13 4 21 4q8 1 19 -5q-13 -32 -45 -66q-32 -35 -82 -52q-21 -7 -47 -9q-3 -13 -7 -25
q-23 -74 -68 -125q-44 -52 -109 -52q-95 1 -154 76t-73 174q-4 28 -4 56q0 25 3 51q7 54 29 101q21 46 57 81q35 35 87 53zM206 488q-25 -10 -42 -32q-26 -34 -32 -90q-7 -56 0 -116q7 -58 24 -112t38 -88q11 -18 23 -28t23 -10q34 0 53 59q16 51 23 113q-28 16 -51 48
q-34 45 -47 99q-8 29 -8 57q0 29 9 53q9 23 26 41q6 6 14 12q-30 3 -53 -6zM127 688q8 26 40 48q21 15 51 15q15 0 32 -4q33 -41 45 -71q11 -31 18 -69q-4 -24 -19 -32q-9 -6 -22 -6q-6 0 -12 1q-14 7 -27 20q-13 12 -25 27q-22 27 -43 51q-20 24 -38 20zM323 271q2 32 1 62
q-1 55 -8 91q-6 36 -16 32q-7 -3 -8 -34t4 -72q7 -49 24 -96l2 -6z" />
    <glyph glyph-name="oacute" unicode="&#xf3;" horiz-adv-x="607" 
d="M183 552q17 5 31 5q28 0 44 -17q19 -21 14 -39q8 4 18 7q49 15 82 -10q33 -24 50 -73q9 -26 13 -57q5 -31 5 -65q0 -41 -6 -84q-2 -9 -3 -18q12 3 24 7q38 14 65 39q27 24 36 43q13 4 21 4q8 1 19 -5q-13 -32 -45 -66q-32 -35 -82 -52q-21 -7 -47 -9q-3 -13 -7 -25
q-23 -74 -68 -125q-44 -52 -109 -52q-95 1 -154 76t-73 174q-4 28 -4 56q0 25 3 51q7 54 29 101q21 46 57 81q35 35 87 53zM206 488q-25 -10 -42 -32q-26 -34 -32 -90q-7 -56 0 -116q7 -58 24 -112t38 -88q11 -18 23 -28t23 -10q34 0 53 59q16 51 23 113q-28 16 -51 48
q-34 45 -47 99q-8 29 -8 57q0 29 9 53q9 23 26 41q6 6 14 12q-30 3 -53 -6zM224 593q-7 -1 -13 -1q-13 0 -22 6q-14 8 -19 31q7 39 18 69q12 31 45 72q17 4 33 4q29 0 50 -15q32 -22 40 -48q-18 3 -38 -21t-43 -51q-12 -14 -25 -27q-13 -12 -26 -19zM323 271q2 32 1 62
q-1 55 -8 91q-6 36 -16 32q-7 -3 -8 -34t4 -72q7 -49 24 -96l2 -6z" />
    <glyph glyph-name="ocircumflex" unicode="&#xf4;" horiz-adv-x="607" 
d="M183 552q17 5 31 5q28 0 44 -17q19 -21 14 -39q8 4 18 7q49 15 82 -10q33 -24 50 -73q9 -26 13 -57q5 -31 5 -65q0 -41 -6 -84q-2 -9 -3 -18q12 3 24 7q38 14 65 39q27 24 36 43q13 4 21 4q8 1 19 -5q-13 -32 -45 -66q-32 -35 -82 -52q-21 -7 -47 -9q-3 -13 -7 -25
q-23 -74 -68 -125q-44 -52 -109 -52q-95 1 -154 76t-73 174q-4 28 -4 56q0 25 3 51q7 54 29 101q21 46 57 81q35 35 87 53zM206 488q-25 -10 -42 -32q-26 -34 -32 -90q-7 -56 0 -116q7 -58 24 -112t38 -88q11 -18 23 -28t23 -10q34 0 53 59q16 51 23 113q-28 16 -51 48
q-34 45 -47 99q-8 29 -8 57q0 29 9 53q9 23 26 41q6 6 14 12q-30 3 -53 -6zM228 727q6 -2 16 -11q10 -10 22 -21q17 -18 35 -35t27 -19v-8q0 -18 -13 -26q-16 -10 -31 3q-14 15 -26 41q-13 26 -20 33q-7 -6 -19 -47q-11 -41 -9 -55q-18 -8 -36 -8q-17 0 -35 8q-35 14 -37 32
v1q0 10 11 24t27 28q24 22 52 39q27 18 36 21zM323 271q2 32 1 62q-1 55 -8 91q-6 36 -16 32q-7 -3 -8 -34t4 -72q7 -49 24 -96l2 -6z" />
    <glyph glyph-name="otilde" unicode="&#xf5;" horiz-adv-x="607" 
d="M183 552q17 5 31 5q28 0 44 -17q19 -21 14 -39q8 4 18 7q49 15 82 -10q33 -24 50 -73q9 -26 13 -57q5 -31 5 -65q0 -41 -6 -84q-2 -9 -3 -18q12 3 24 7q38 14 65 39q27 24 36 43q13 4 21 4q8 1 19 -5q-13 -32 -45 -66q-32 -35 -82 -52q-21 -7 -47 -9q-3 -13 -7 -25
q-23 -74 -68 -125q-44 -52 -109 -52q-95 1 -154 76t-73 174q-4 28 -4 56q0 25 3 51q7 54 29 101q21 46 57 81q35 35 87 53zM206 488q-25 -10 -42 -32q-26 -34 -32 -90q-7 -56 0 -116q7 -58 24 -112t38 -88q11 -18 23 -28t23 -10q34 0 53 59q16 51 23 113q-28 16 -51 48
q-34 45 -47 99q-8 29 -8 57q0 29 9 53q9 23 26 41q6 6 14 12q-30 3 -53 -6zM191 718h9q12 0 23 -5q15 -6 28 -17q24 -20 42 -44t31 -22q15 2 17 13q1 10 -1 15q1 9 25 11q23 1 27 -7q1 -2 1 -5q0 -12 -13 -40q-15 -36 -46 -44q-31 -9 -56 4q-24 12 -43 25q-10 6 -19 11
q-10 4 -18 3q-16 -3 -22 -17t-4 -28q-9 -11 -36 -11q-4 0 -8 1q-34 2 -45 15v3q0 9 2 21q3 14 9 30q12 29 36 56t61 32zM323 271q2 32 1 62q-1 55 -8 91q-6 36 -16 32q-7 -3 -8 -34t4 -72q7 -49 24 -96l2 -6z" />
    <glyph glyph-name="odieresis" unicode="&#xf6;" horiz-adv-x="607" 
d="M183 552q17 5 31 5q28 0 44 -17q19 -21 14 -39q8 4 18 7q49 15 82 -10q33 -24 50 -73q9 -26 13 -57q5 -31 5 -65q0 -41 -6 -84q-2 -9 -3 -18q12 3 24 7q38 14 65 39q27 24 36 43q13 4 21 4q8 1 19 -5q-13 -32 -45 -66q-32 -35 -82 -52q-21 -7 -47 -9q-3 -13 -7 -25
q-23 -74 -68 -125q-44 -52 -109 -52q-95 1 -154 76t-73 174q-4 28 -4 56q0 25 3 51q7 54 29 101q21 46 57 81q35 35 87 53zM206 488q-25 -10 -42 -32q-26 -34 -32 -90q-7 -56 0 -116q7 -58 24 -112t38 -88q11 -18 23 -28t23 -10q34 0 53 59q16 51 23 113q-28 16 -51 48
q-34 45 -47 99q-8 29 -8 57q0 29 9 53q9 23 26 41q6 6 14 12q-30 3 -53 -6zM241 648q-1 1 -1 3q0 17 18 33q19 16 37 16h2q29 -2 63 -16q35 -14 37 -43v-4q0 -25 -30 -43q-30 -19 -56 -19h-4q-24 1 -44 25q-20 23 -22 48zM120 696h3q26 0 56 -18q31 -19 29 -46
q-2 -29 -36 -43q-17 -7 -33 -10q-15 -4 -29 -5h-2q-18 0 -36 16q-18 15 -18 32v3q2 24 22 47t44 24zM323 271q2 32 1 62q-1 55 -8 91q-6 36 -16 32q-7 -3 -8 -34t4 -72q7 -49 24 -96l2 -6z" />
    <glyph glyph-name="divide" unicode="&#xf7;" 
d="M517 435q12 -14 16 -41q1 -6 1 -12q0 -19 -11 -30q-5 4 -20 6t-36 3q-40 1 -96 -1q-57 -2 -113 -6q-58 -4 -106 -7q-49 -4 -71 -5q-31 0 -38 27q-2 7 -2 15q0 17 11 31q6 6 14 11t18 6q29 2 78 3q49 2 105 3h120h38q75 0 92 -3zM269 634h4q26 0 55 -18t30 -42q0 -2 -1 -4
q-2 -29 -36 -43t-62 -15h-2q-18 0 -36 16q-18 15 -18 32q0 2 1 3q2 24 21 47q20 23 44 24zM221 255v3q0 17 18 33t36 16h2q29 -2 64 -16q34 -14 37 -43v-4q0 -25 -30 -43q-30 -19 -57 -19h-3q-25 1 -45 25q-20 23 -22 48z" />
    <glyph glyph-name="oslash" unicode="&#xf8;" horiz-adv-x="607" 
d="M193 -138q-21 -14 -40 -19q-15 -4 -27 -4h-5q-27 2 -42 17q-15 16 -15 29q7 16 38 79q8 17 18 36q-20 15 -36 36q-59 75 -73 174q-4 28 -4 56q0 25 3 51q7 54 29 101q21 46 57 81q35 35 87 53q17 5 31 5q28 0 44 -17q19 -21 14 -39q8 4 18 7q33 10 58 2q15 39 24 72
q13 50 7 70q14 29 40 40q10 5 18 5q13 0 23 -10q6 -7 9 -20q1 -6 1 -14t-1 -18q-11 -67 -48 -163q-5 -12 -9 -24q5 -11 10 -23q9 -26 13 -57q5 -31 5 -65q0 -41 -6 -84q-2 -9 -3 -18q12 3 24 7q38 14 65 39q27 24 36 43q13 4 21 4q8 1 19 -5q-13 -32 -45 -66
q-32 -35 -82 -52q-21 -7 -47 -9q-3 -13 -7 -25q-23 -74 -68 -125q-44 -52 -109 -52q-16 0 -30 2q-3 -10 -6 -19q-11 -32 -14 -53t5 -28zM206 488q-25 -10 -42 -32q-26 -34 -32 -90q-7 -56 0 -116q7 -58 24 -112q6 -21 13 -38l6 13q22 47 46 97l24 52q-18 32 -27 69
q-8 29 -8 57q0 29 9 53q9 23 26 41q6 6 14 12q-30 3 -53 -6zM240 12q34 0 53 59q16 51 23 113q-6 4 -11 7q-23 -51 -44 -99q-19 -42 -34 -78q7 -2 13 -2zM300 456q-7 -3 -8 -34q-1 -22 1 -50q4 8 8 17q7 18 15 35q-6 36 -16 32z" />
    <glyph glyph-name="ugrave" unicode="&#xf9;" horiz-adv-x="637" 
d="M593 296q11 6 22 5t15 -11q-6 -15 -30 -68q-24 -54 -57 -115q-14 -26 -30 -51q-15 -25 -31 -48q-30 -41 -60 -65q-23 -18 -44 -18q-7 0 -14 2q-27 7 -44 23q-16 16 -26 35q-17 37 -17 79v65q-5 -11 -24 -46q-19 -37 -53 -62q-18 -13 -40 -20q-22 -6 -48 1q-34 8 -55 35
q-20 27 -31 66q-9 31 -12 68q-3 34 -3 69v8q1 72 8 143q8 71 9 117q8 20 34 25q9 2 19 2q17 0 33 -5q14 -4 27 -12t22 -20q0 -42 -4 -92t-8 -99q-9 -92 -12 -165q-3 -72 20 -76q31 -4 57 28t44 76q11 28 18 57t9 51q2 60 7 180q10 17 37 25q27 7 53 -4q15 -5 26 -18
q12 -12 18 -31q-10 -4 -22 -62q-11 -59 -18 -133q-4 -32 -6 -65q-3 -32 -4 -61q-2 -55 0 -94q3 -38 13 -40q22 -5 58 48t70 116q27 52 48 98q21 45 26 59zM137 652q8 26 40 49q21 15 50 14q16 0 33 -4q33 -40 45 -71q11 -30 18 -69q-5 -23 -19 -32q-9 -5 -22 -5q-6 0 -13 1
q-13 7 -26 19q-13 13 -25 27q-22 27 -43 51q-20 24 -38 20z" />
    <glyph glyph-name="uacute" unicode="&#xfa;" horiz-adv-x="637" 
d="M593 296q11 6 22 5t15 -11q-6 -15 -30 -68q-24 -54 -57 -115q-14 -26 -30 -51q-15 -25 -31 -48q-30 -41 -60 -65q-23 -18 -44 -18q-7 0 -14 2q-27 7 -44 23q-16 16 -26 35q-17 37 -17 79v65q-5 -11 -24 -46q-19 -37 -53 -62q-18 -13 -40 -20q-22 -6 -48 1q-34 8 -55 35
q-20 27 -31 66q-9 31 -12 68q-3 34 -3 69v8q1 72 8 143q8 71 9 117q8 20 34 25q9 2 19 2q17 0 33 -5q14 -4 27 -12t22 -20q0 -42 -4 -92t-8 -99q-9 -92 -12 -165q-3 -72 20 -76q31 -4 57 28t44 76q11 28 18 57t9 51q2 60 7 180q10 17 37 25q27 7 53 -4q15 -5 26 -18
q12 -12 18 -31q-10 -4 -22 -62q-11 -59 -18 -133q-4 -32 -6 -65q-3 -32 -4 -61q-2 -55 0 -94q3 -38 13 -40q22 -5 58 48t70 116q27 52 48 98q21 45 26 59zM220 543q-7 -1 -13 -1q-13 0 -22 5q-14 9 -19 32q7 39 19 69q11 31 44 72q17 4 33 4q29 0 50 -15q32 -22 40 -48
q-18 3 -38 -21t-43 -51q-12 -14 -25 -27q-13 -12 -26 -19z" />
    <glyph glyph-name="ucircumflex" unicode="&#xfb;" horiz-adv-x="637" 
d="M593 296q11 6 22 5t15 -11q-6 -15 -30 -68q-24 -54 -57 -115q-14 -26 -30 -51q-15 -25 -31 -48q-30 -41 -60 -65q-23 -18 -44 -18q-7 0 -14 2q-27 7 -44 23q-16 16 -26 35q-17 37 -17 79v65q-5 -11 -24 -46q-19 -37 -53 -62q-18 -13 -40 -20q-22 -6 -48 1q-34 8 -55 35
q-20 27 -31 66q-9 31 -12 68q-3 34 -3 69v8q1 72 8 143q8 71 9 117q8 20 34 25q9 2 19 2q17 0 33 -5q14 -4 27 -12t22 -20q0 -42 -4 -92t-8 -99q-9 -92 -12 -165q-3 -72 20 -76q31 -4 57 28t44 76q11 28 18 57t9 51q2 60 7 180q10 17 37 25q27 7 53 -4q15 -5 26 -18
q12 -12 18 -31q-10 -4 -22 -62q-11 -59 -18 -133q-4 -32 -6 -65q-3 -32 -4 -61q-2 -55 0 -94q3 -38 13 -40q22 -5 58 48t70 116q27 52 48 98q21 45 26 59zM238 713q6 -2 16 -11q10 -10 22 -21l35 -35q18 -17 27 -19q1 -4 1 -8q-1 -18 -14 -26q-16 -10 -30 3q-15 15 -27 41
q-13 26 -20 33q-7 -6 -18 -47q-12 -40 -10 -55q-18 -8 -36 -8q-17 0 -35 8q-35 14 -37 32v1q0 10 11 24t27 28q25 22 52 39q27 18 36 21z" />
    <glyph glyph-name="udieresis" unicode="&#xfc;" horiz-adv-x="637" 
d="M593 296q11 6 22 5t15 -11q-6 -15 -30 -68q-24 -54 -57 -115q-14 -26 -30 -51q-15 -25 -31 -48q-30 -41 -60 -65q-23 -18 -44 -18q-7 0 -14 2q-27 7 -44 23q-16 16 -26 35q-17 37 -17 79v65q-5 -11 -24 -46q-19 -37 -53 -62q-18 -13 -40 -20q-22 -6 -48 1q-34 8 -55 35
q-20 27 -31 66q-9 31 -12 68q-3 34 -3 69v8q1 72 8 143q8 71 9 117q8 20 34 25q9 2 19 2q17 0 33 -5q14 -4 27 -12t22 -20q0 -42 -4 -92t-8 -99q-9 -92 -12 -165q-3 -72 20 -76q31 -4 57 28t44 76q11 28 18 57t9 51q2 60 7 180q10 17 37 25q27 7 53 -4q15 -5 26 -18
q12 -12 18 -31q-10 -4 -22 -62q-11 -59 -18 -133q-4 -32 -6 -65q-3 -32 -4 -61q-2 -55 0 -94q3 -38 13 -40q22 -5 58 48t70 116q27 52 48 98q21 45 26 59zM254 635v3q0 18 18 33q18 16 36 16h2q29 -1 64 -15q34 -14 37 -43v-4q0 -26 -30 -44t-57 -18h-3q-25 1 -45 24
q-20 24 -22 48zM133 684h4q26 0 55 -18q32 -19 29 -46q-2 -29 -36 -43q-15 -6 -29 -10q-17 -4 -33 -5h-2q-18 0 -36 15q-18 16 -18 33v3q2 24 22 47t44 24z" />
    <glyph glyph-name="yacute" unicode="&#xfd;" horiz-adv-x="586" 
d="M167 475q-5 -40 -9 -83q-3 -43 -4 -84q-3 -76 2 -132q5 -55 20 -55q22 -1 46 51t40 123q8 40 13 81t5 79q2 15 7 24q6 10 15 15q26 15 62 -5q36 -19 39 -59q-5 -2 -7 -16t-4 -36q-2 -43 -1 -110q0 -68 -2 -145q0 -8 -1 -15q16 18 33 37q35 40 66 82t52 84q11 3 20 4
q10 1 21 -3q-23 -49 -56 -96t-69 -91q-35 -41 -69 -79v-26q-3 -52 -8 -102q-10 -91 -33 -161t-66 -91q-28 -13 -51 -13h-5q-24 2 -40 17q-30 27 -28 89t42 133q25 45 84 105q1 53 0 100v70q-4 -18 -21 -50q-19 -33 -47 -58q-15 -13 -33 -21q-17 -8 -36 -8q-40 0 -66 19
q-26 20 -40 53q-16 33 -21 77t-5 88v3q0 30 1 59q2 30 4 56q4 50 6 86q2 35 -6 42q13 25 56 26h1q42 0 70 -23q9 -8 16 -18q6 -10 7 -23zM207 548q-7 -2 -13 -2q-12 0 -22 6q-14 8 -19 32q8 39 19 69t44 71q18 4 33 4q29 0 50 -14q32 -23 40 -49q-18 4 -38 -20t-43 -51
q-12 -15 -25 -27q-12 -13 -26 -19zM232 -138q-31 -62 -14 -92q17 -31 31 -25q12 5 19 42q6 36 9 88q2 27 3 57q-34 -40 -48 -70z" />
    <glyph glyph-name="ydieresis" unicode="&#xff;" horiz-adv-x="586" 
d="M167 475q-5 -40 -9 -83q-3 -43 -4 -84q-3 -76 2 -132q5 -55 20 -55q22 -1 46 51t40 123q8 40 13 81t5 79q2 15 7 24q6 10 15 15q26 15 62 -5q36 -19 39 -59q-5 -2 -7 -16t-4 -36q-2 -43 -1 -110q0 -68 -2 -145q0 -8 -1 -15q16 18 33 37q35 40 66 82t52 84q11 3 20 4
q10 1 21 -3q-23 -49 -56 -96t-69 -91q-35 -41 -69 -79v-26q-3 -52 -8 -102q-10 -91 -33 -161t-66 -91q-28 -13 -51 -13h-5q-24 2 -40 17q-30 27 -28 89t42 133q25 45 84 105q1 53 0 100v70q-4 -18 -21 -50q-19 -33 -47 -58q-15 -13 -33 -21q-17 -8 -36 -8q-40 0 -66 19
q-26 20 -40 53q-16 33 -21 77t-5 88v3q0 30 1 59q2 30 4 56q4 50 6 86q2 35 -6 42q13 25 56 26h1q42 0 70 -23q9 -8 16 -18q6 -10 7 -23zM253 633v3q0 17 18 33t37 16h2q29 -2 63 -16t37 -43v-4q0 -25 -30 -43q-30 -19 -56 -19h-4q-25 1 -45 25q-20 23 -22 48zM132 681h4
q26 0 55 -18q32 -19 30 -46q-3 -29 -37 -43q-24 -10 -45 -13q-9 -1 -17 -2h-2q-18 0 -36 16q-17 15 -17 32v3q2 24 21 47q20 23 44 24zM232 -138q-31 -62 -14 -92q17 -31 31 -25q12 5 19 42q6 36 9 88q2 27 3 57q-34 -40 -48 -70z" />
    <glyph glyph-name="OE" unicode="&#x152;" horiz-adv-x="1040" 
d="M454 880q14 -13 12 -27q65 -8 109 -54q23 -25 41 -55q2 13 4 25q8 66 -2 87q25 17 88 17q64 1 128 1q43 1 79 4q36 4 54 17h4q13 0 22 -4q10 -4 15 -11q17 -22 0 -57q-18 -35 -55 -42q-16 -5 -37 -6t-43 1q-41 3 -79 10q-38 6 -51 1q0 -16 -2 -60t-4 -92q-2 -31 -4 -58
q-2 -28 -4 -46q37 7 81 11t68 14q37 -23 32 -57q-6 -34 -34 -41q-35 -9 -73 -7q-38 1 -69 -4q2 -21 0 -59q-1 -38 -2 -81q-1 -64 2 -122q4 -58 22 -67t46 0q28 10 57 29q44 30 78 70q35 41 31 66q36 15 49 -24q5 -15 5 -28q0 -23 -14 -41q-5 -7 -17 -24q-13 -17 -32 -39
q-34 -41 -84 -87t-103 -67q-28 -10 -54 -12h-4q-25 0 -48 12q-34 17 -56 51q-16 24 -27 55q-12 -16 -24 -31q-61 -73 -149 -73h-1q-102 0 -185 41q-84 41 -135 111q-27 38 -42 83q-16 45 -18 95v21q0 34 3 70q5 48 17 96q21 91 62 176q42 84 101 141q49 47 110 68
q33 11 68 11q31 0 64 -8zM375 803q-33 -30 -62 -89q-15 -31 -29 -69q-13 -38 -24 -79q-16 -63 -25 -129q-10 -66 -9 -124q1 -31 9 -64q9 -33 24 -63q28 -57 70 -97q43 -41 86 -40q31 1 59 45q28 43 49 111q12 37 21 78q10 41 16 85q14 98 11 194q-4 97 -33 156
q-15 33 -39 50q-24 18 -57 16q-13 20 -13 37q-27 6 -54 -18z" />
    <glyph glyph-name="oe" unicode="&#x153;" horiz-adv-x="892" 
d="M187 554q17 4 31 4q29 0 45 -17q19 -21 12 -39q9 4 19 7q27 8 49 4q21 -4 38 -17q25 -20 40 -55q26 42 62 72q47 39 104 39q24 0 43 -9q20 -8 33 -23q25 -26 28 -68t-21 -83q-20 -34 -60 -63q-28 -21 -68 -35q-1 -46 3 -93q5 -57 17 -96q6 -21 14 -35q9 -13 19 -17
q38 -13 85 37t88 119q23 37 42 74q20 37 34 67q10 3 19 2q9 0 19 -6q-9 -22 -22 -49q-12 -27 -28 -57q-30 -55 -70 -112q-40 -56 -88 -95q-40 -32 -84 -46q-21 -6 -43 -6q-24 0 -49 8q-38 12 -65 36t-44 56q-1 2 -3 4q-15 -27 -34 -49q-45 -51 -109 -51q-52 0 -93 24
q-41 23 -70 62q-55 73 -67 179q-2 22 -2 44q0 80 32 149q22 45 57 80q36 35 87 54zM211 489q-26 -10 -42 -31q-26 -35 -33 -91q-6 -56 1 -116q4 -31 11 -62q6 -31 15 -58q17 -51 39 -85q22 -33 43 -33q34 1 53 60t26 134l1 11q-32 15 -57 46q-34 41 -47 88q-7 25 -7 50
q1 25 10 46q8 21 26 37q6 5 13 10q-30 3 -52 -6zM566 319q27 17 44 39q32 40 31 80q0 39 -23 38q-34 -2 -52 -57q-16 -50 -21 -111q11 5 21 11zM329 334q-2 55 -8 91t-16 32q-8 -3 -9 -37t7 -74q4 -21 11 -42q6 -17 14 -30q1 32 1 60z" />
    <glyph glyph-name="circumflex" unicode="&#x2c6;" horiz-adv-x="248" 
d="M144 941q6 -2 16 -12q10 -9 22 -20l35 -35q18 -17 27 -20q1 -4 1 -7q0 -19 -14 -27q-16 -9 -30 4q-15 15 -27 41q-13 25 -20 32q-7 -5 -18 -46t-10 -56q-18 -7 -35 -7q-18 0 -36 7q-35 15 -37 32v1q0 11 11 24q11 14 27 29q25 21 52 39t36 21z" />
    <glyph glyph-name="ring" unicode="&#x2da;" horiz-adv-x="210" 
d="M137 942q2 0 2 -10q5 -1 11 -3q12 -5 21 -13q25 -22 25 -60t-23 -63q-9 -11 -23 -18q-13 -6 -29 -6h-1q-55 1 -79 27q-23 27 -25 66v5q0 44 34 68q20 14 47 15q18 0 40 -8zM102 891q-13 -12 -11 -32q3 -19 10 -26q7 -8 24 -7q18 1 22 29q3 28 -31 27q-2 3 -1 13
q-8 1 -13 -4z" />
    <glyph glyph-name="tilde" unicode="&#x2dc;" horiz-adv-x="351" 
d="M142 883q17 0 31 -9t25 -21q21 -24 36 -50q15 -25 29 -25q15 0 17 11q3 10 1 15q3 9 26 8q24 -2 27 -11v-3q0 -11 -18 -40q-20 -33 -51 -38q-7 -1 -14 -1q-23 0 -41 12q-22 16 -40 31q-9 8 -18 13q-8 6 -16 6q-17 -1 -24 -14q-8 -14 -8 -27q-13 -11 -46 -5q-32 6 -41 21
q0 9 5 23q4 14 12 29q16 27 43 51t65 24z" />
    <glyph glyph-name="endash" unicode="&#x2013;" horiz-adv-x="512" 
d="M484 402q12 -14 16 -41q1 -6 1 -12q0 -19 -11 -30q-5 4 -20 6t-36 3q-40 1 -97 -1q-56 -2 -112 -6q-58 -4 -107 -7q-48 -4 -70 -5q-31 0 -38 27q-2 7 -2 15q-1 17 11 30q5 7 13 12t19 6q28 2 78 2h106q84 -1 159 -1q75 -1 90 2z" />
    <glyph glyph-name="emdash" unicode="&#x2014;" horiz-adv-x="730" 
d="M683 358q12 -15 16 -42q1 -6 1 -11q0 -19 -11 -30q-11 8 -87 10q-75 1 -171 0q-76 -2 -154 -4q-77 -3 -134 -5q-30 -2 -52 -3t-33 -1q-31 0 -38 26q-2 8 -2 15q0 17 11 31q6 7 14 12q8 4 18 6q22 1 66 1h32q70 0 153 -2l88 -2q45 0 86 -1q77 -2 132 -2q56 0 65 2z" />
    <glyph glyph-name="quoteright" unicode="&#x2019;" horiz-adv-x="172" 
d="M24 932q18 11 45 12q8 0 17 -1q39 -4 70 -47q-2 -52 -14 -92q-13 -39 -33 -74q-12 -14 -25 -18q-5 -1 -10 -1h-1q-20 0 -29 26q-5 14 -7 34t-1 41q0 39 1 75t-13 45z" />
    <glyph glyph-name="quotedblleft" unicode="&#x201c;" horiz-adv-x="331" 
d="M307 753q-17 -11 -45 -11q-8 0 -16 1q-39 4 -70 46q1 52 14 92q12 40 33 75q15 18 35 18h1q19 0 28 -26q6 -14 7 -34q2 -19 2 -40q-1 -40 -1 -76q-1 -36 12 -45zM151 776q-14 -36 -47 -45q-5 -1 -12 -2h-8q-38 0 -66 38q2 53 12 101t31 82q11 14 24 14q5 0 10 -2
q19 -9 29 -20q5 -13 7 -30t2 -34v-62q1 -29 18 -40z" />
    <glyph glyph-name="quotedblright" unicode="&#x201d;" horiz-adv-x="327" 
d="M12 920q18 11 45 11h17q39 -4 70 -47q-2 -52 -14 -92t-33 -75q-11 -13 -24 -17q-5 -1 -11 -1h-1q-20 0 -28 26q-6 14 -8 34q-1 19 -1 40q0 40 1 76t-13 45zM168 897q17 43 60 47h8q37 0 65 -38q-1 -53 -11 -101q-11 -48 -31 -82q-12 -14 -24 -14q-5 0 -11 2q-18 9 -28 20
q-11 25 -9 59q2 35 0 62q-2 15 -5 27q-4 12 -14 18z" />
    <glyph glyph-name="perthousand" unicode="&#x2030;" horiz-adv-x="873" 
d="M186 51q-25 -28 -46 -39q-18 -8 -33 -8h-7q-32 4 -49 38q-12 27 -12 50q0 7 1 14q4 8 17 31q13 22 33 56q38 63 92 153t107 183q23 41 45 81t40 76q35 68 55 120q21 51 17 72q18 25 45 32q7 2 14 2q16 0 25 -13q5 -7 6 -20v-4q0 -11 -4 -26q-21 -67 -68 -164
q-46 -96 -98 -198q-28 -54 -55 -107l-50 -100q-43 -89 -66 -152q-24 -63 -9 -77zM692 406q52 -4 79 -36q28 -32 40 -73q7 -22 10 -44q2 -23 3 -43v-5q0 -56 -34 -106q-35 -52 -102 -54h-4q-41 0 -65 27q-25 28 -37 68q-6 22 -10 45q-3 23 -4 45v14q0 34 7 69q8 42 34 68
q14 14 35 21q15 5 34 5q7 0 14 -1zM154 530q-51 8 -77 41t-35 75q-5 22 -7 45q-1 15 -1 28q0 8 1 15q2 59 40 109q36 47 99 47h6q44 -1 67 -31q24 -30 33 -71q5 -22 7 -45t2 -45q-1 -23 -4 -45q-3 -23 -10 -44q-13 -38 -41 -63q-12 -9 -27 -14q-13 -4 -30 -4q-11 0 -23 2z
M556 223v-8q0 -59 -21 -111q-22 -56 -90 -59h-7q-62 0 -97 40q-37 43 -39 101v14q0 14 1 28q1 22 6 44q10 40 36 72q26 31 78 39q12 2 23 2q13 0 25 -3q20 -5 35 -17q28 -22 38 -62q11 -39 12 -80zM623 236v-5q0 -58 14 -94q15 -37 37 -37q28 1 42 45q12 38 12 79v12
q-2 39 -15 69t-40 30q-29 0 -39 -28q-11 -27 -11 -71zM234 695q4 62 -10 96t-36 34h-1q-22 0 -37 -28t-20 -65q-2 -17 -2 -33q0 -28 6 -55q11 -42 44 -44h3q7 0 13 2q16 5 24 23q12 26 16 70zM435 294q-29 -1 -43 -27q-13 -23 -13 -52v-3q1 -20 8 -39q6 -19 20 -32
q8 -8 19 -12q10 -5 23 -5h1q22 1 39 20q13 15 13 56q0 12 -1 25q-3 44 -21 57q-15 13 -39 13q-3 0 -6 -1z" />
    <glyph glyph-name="trademark" unicode="&#x2122;" horiz-adv-x="702" 
d="M219 776q5 28 31 51q26 24 39 -5q6 -13 11 -36t7 -44q2 7 16 42q15 39 41 61q8 7 18 11q7 3 14 3h5q11 -2 20 -8q8 -6 15 -15q19 -28 23 -68t3 -47q6 11 24 47q18 37 48 54q12 8 27 9t32 -8q23 -11 26 -60q3 -48 -1 -106q-5 -71 -8 -135t21 -72q8 -2 12 1t6 6q3 -7 3 -15
q1 -17 -11 -40q-16 -29 -42 -29q-5 0 -10 1q-21 4 -35 16q-14 13 -22 32q-13 31 -15 74q-2 42 2 86q5 65 15 118q9 52 2 54q-12 4 -25 -19q-13 -24 -22 -58q-5 -17 -8 -36q-4 -19 -4 -36q-2 -27 -37 -38q-35 -12 -41 11q2 17 3 39q2 22 2 45q1 43 -3 78q-3 35 -17 37
q-18 3 -44 -43q-26 -47 -25 -66q4 -48 12 -112q7 -64 1 -106q-7 -10 -32 -16q-25 -5 -44 7q-9 5 -14 13q-6 9 -8 22q-1 12 1 52t3 87q2 57 -1 107q-2 50 -14 54zM259 874q12 -6 9 -20q-4 -14 -20 -15q-11 -2 -31 -4q-21 -1 -35 -3q2 -33 4 -82q2 -48 5 -99q4 -76 9 -138
q6 -63 15 -68q0 -10 -4 -17t-11 -10q-3 -2 -6 -3q-6 -2 -13 -2q-13 0 -30 7q-30 13 -35 31q-4 15 -6 41q-2 25 -3 58q-1 59 2 134q2 74 4 144q-10 -1 -30 -4q-21 -2 -36 -1q-17 9 -20 34v4q0 21 18 22q22 -2 46 -3q24 -2 48 -3q44 -3 79 -4q35 -2 41 1z" />
    <glyph glyph-name="" unicode="&#xffab;" horiz-adv-x="2181" 
d="M10 290q90 211 208 313q85 73 180 73q39 0 79 -12q98 -28 163 -112q64 -83 118 -189q28 -56 56 -116q28 -59 58 -115q47 -88 105 -160q58 -73 139 -113q34 -17 65 -17q31 -1 57 11q28 13 50 36q22 24 37 54q12 25 19 51q-102 50 -150 117q-21 29 -28 58q-8 30 -5 56
q6 50 42 82q37 32 87 26q26 -4 53 -19q28 -16 55 -47q35 -40 52 -89t18 -101q0 -33 -5 -65q33 -10 70 -18q98 -22 194 -18q99 4 183 43q84 38 127 123q25 49 28 95q3 47 -10 87q-10 33 -28 61t-41 49q-43 39 -93 51q-51 11 -86 -17q-30 -24 -22 -55q9 -32 31 -28q7 1 15 8
t15 21q11 9 29 -7q18 -15 10 -31q-13 -15 -27 -23q-14 -7 -28 -9q-40 -5 -72 28t-32 75q1 19 9 37t26 34q25 23 60 32q36 10 75 7q73 -5 146 -49q72 -45 104 -123q18 -45 19 -100q0 -9 -1 -18q-3 -65 -42 -143q-39 -77 -104 -124t-144 -69q-65 -18 -135 -21q-71 -3 -140 7
q-80 11 -153 35q-10 -29 -25 -57q-49 -87 -135 -119q-38 -14 -84 -14h-13q-53 3 -112 30q-93 43 -156 117q-63 75 -110 162q-31 58 -57 117q-27 59 -52 115q-48 104 -103 185q-55 80 -140 104q-118 32 -219 -32t-189 -270q-8 -5 -20 -7q-11 -3 -21 7zM1352 66q0 67 -39 114
q-21 26 -39 38t-31 13q-25 2 -29 -26q-4 -27 25 -65q18 -23 50 -46q28 -20 63 -38v10z" />
    <glyph glyph-name="" unicode="&#xffad;" horiz-adv-x="375" 
d="M62 435q46 3 102 5q51 1 92 1h8q25 0 43 -1q19 0 28 -2q13 -14 16 -41q1 -7 1 -12q0 -19 -10 -30q-17 12 -70 9q-54 -3 -110 -9q-30 -3 -57 -6t-46 -4q-31 0 -38 26q-3 8 -3 16q0 16 12 30q5 7 13 12q8 4 19 6z" />
    </font>
</defs>
</svg>
